<svg xmlns="http://www.w3.org/2000/svg" xmlns:xlink="http://www.w3.org/1999/xlink" id="Layer_1" x="0px" y="0px" viewBox="0 0 1200 984.36" style="enable-background:new 0 0 1200 984.36;" xml:space="preserve"><style type="text/css">	.st0{fill:#0071DC;}	.st1{fill:#FF8B00;}	.st2{fill:none;}	.st3{fill:#252525;}</style><path class="st0" d="M1200,217.89c0,19.53,0,39.07,0,58.6c-0.86,1.93-2.18,3.78-2.5,5.79c-7.87,48.57-27.78,91.48-60.8,128.02 c-5.08,5.62-7.16,11.05-7.15,18.56c0.19,180.81,0.15,361.63,0.15,542.45c0,4.15,0,8.3,0,12.46c-70.92,0-140.6,0-210.96,0 c0-11.85,0.24-23.11-0.05-34.36c-0.52-19.94-15.65-35.15-34.76-35.34c-19.6-0.19-35.01,15.27-35.43,35.84 c-0.23,11.21-0.04,22.43-0.04,33.97c-82.42,0-163.82,0-246.11,0c0-10.91,0.08-21.36-0.02-31.81c-0.2-22.37-15.2-38.3-35.66-38 c-20,0.3-34.43,16.02-34.62,37.86c-0.09,10.75-0.02,21.49-0.02,31.65c-84.58,0-167.55,0-250.79,0c0-11.31,0.12-21.84-0.02-32.36 c-0.29-21.56-15.28-37.26-35.32-37.15c-20.03,0.11-34.72,15.83-34.94,37.54c-0.11,10.77-0.02,21.55-0.02,32.76 c-71.24,0-141.09,0-210.94,0c0-281.28,0-562.55,0-843.83c240.09,0,480.19-0.05,720.28,0.21c8.65,0.01,12.62-2.83,16.8-10.29 C781.12,51.79,848.39,7.21,938.16,0.65c120.31-8.78,227.87,72.36,255.23,189.63C1195.55,199.5,1197.8,208.69,1200,217.89z  M467.34,913.7c18.69-42.89,50.33-68.74,97.7-69.57c49.44-0.87,82.59,25.16,102.02,69.46c39.33,0,78.29,0,116.74,0 c18.65-42.45,49.67-68,96.05-69.42c50.02-1.53,83.65,24.34,103.47,69.14c25.29,0,50.47,0,75.31,0c0-148.39,0-296.05,0-443.86 c-88.89,36.6-173.59,31.13-250.84-26.24c-77.12-57.27-107.38-136.6-98.33-231.54c-213.07,0-426.01,0-638.4,0 c0,234.55,0,468.28,0,702.01c25.69,0,50.62,0,75.18,0c19.18-43.67,51.35-69.37,99.29-69.58c48.46-0.21,81.03,25.47,100.39,69.6 C386.18,913.7,426.74,913.7,467.34,913.7z M952.89,421.81c97,0.35,176.41-78.17,176.79-174.81c0.38-97-78.15-176.43-174.78-176.78 c-97.04-0.35-176.42,78.14-176.77,174.77C777.78,342.01,856.3,421.46,952.89,421.81z"></path><path class="st0" d="M494.48,773.07c-118.55,0-235.6,0-354.42,0c3.76-51.11-7.07-102.67,7.56-152.59 c20.09-68.55,66.96-109.62,136.29-125.41c4.32-0.98,8.87-0.98,13.91-2.74c-32.62-9.09-58.84-26.38-74.57-56.53 c-15.94-30.57-16.78-62.15-2.38-93.54c21.07-45.94,72.97-70.38,121.78-57.95c50.46,12.85,84.97,59.59,81.32,110.11 c-3.51,48.42-43.76,90.49-94.59,96.47c5.26,1.51,8.19,2.79,11.23,3.15c84.41,9.83,152.49,84.55,153.79,169.51 C494.94,699.77,494.48,736.02,494.48,773.07z M424.18,702.8c0-12.77,0.2-24.43-0.03-36.08c-1.08-54.83-47.04-101.8-102-104.07 c-63.87-2.64-124.8,48.34-109.61,140.15C282.66,702.8,352.79,702.8,424.18,702.8z M316.71,351.5c-19-0.13-35.08,15.5-35.44,34.45 c-0.37,19.41,15.81,35.86,35.23,35.84c19.38-0.02,36.98-16.24,37.39-34.46C354.3,368.71,336.6,351.64,316.71,351.5z"></path><path class="st0" d="M567.92,703.39c116.81,0,233.1,0,350.11,0c0,22.91,0,45.74,0,69.29c-116.26,0-232.82,0-350.11,0 C567.92,750.19,567.92,727.36,567.92,703.39z"></path><path class="st0" d="M637.24,563.12c0,23.21,0,45.75,0,68.97c-23.06,0-45.88,0-69.38,0c0-22.65,0-45.47,0-68.97 C590.51,563.12,613.33,563.12,637.24,563.12z"></path><path class="st0" d="M708.48,562.71c23.23,0,45.77,0,68.97,0c0,23.07,0,45.89,0,69.38c-22.66,0-45.48,0-68.97,0 C708.48,609.43,708.48,586.61,708.48,562.71z"></path><path class="st0" d="M849.19,562.79c22.97,0,45.51,0,68.81,0c0,22.82,0,45.64,0,69.23c-22.4,0-45.23,0-68.81,0 C849.19,609.61,849.19,586.78,849.19,562.79z"></path><path class="st0" d="M918.11,363.39c-30.55-30.56-61.72-61.74-92.28-92.32c15.69-15.68,31.91-31.88,48.1-48.06 c13.64,13.88,28.11,28.6,42.29,43.03c39.46-39.5,77.67-77.74,115.06-115.18c18.15,18.2,34.29,34.4,49.61,49.76 C1027.44,254.06,972.61,308.89,918.11,363.39z"></path></svg>