<svg xmlns="http://www.w3.org/2000/svg" xmlns:xlink="http://www.w3.org/1999/xlink" id="Layer_1" x="0px" y="0px" viewBox="0 0 1200 1200" style="enable-background:new 0 0 1200 1200;" xml:space="preserve"><style type="text/css">	.st0{fill:#0071DC;}	.st1{fill:#FF8B00;}	.st2{fill:none;}	.st3{fill:#252525;}</style><g>	<path class="st0" d="M881.41,162.6c-8.35-25.35-29.75-39.97-58.07-40.03c-68.88-0.14-137.76-0.05-206.63-0.05  c-4.09,0-8.17,0-12.83,0c0-13.52,0-26.23,0-40.11c4.26,0,8.3,0,12.34,0c65.96,0,131.91,0,197.87,0c59.89,0,91.9,22.99,110.92,80.18  c59,0,118.26-0.72,177.48,0.47c16.2,0.33,33.62,3.58,48.17,10.41c35.78,16.83,55.4,47.05,55.93,86.55  c1.1,81.83,0.85,163.69,0.17,245.52c-0.45,54.01-44.44,97.06-98.65,97.95c-27.96,0.46-55.94,0.1-83.9,0.11c-3.98,0-7.95,0-14.93,0  c16.38,21.26,30.53,40.63,45.71,59.15c34.67,42.31,51.89,90.58,51.85,145.23c-0.09,123.18-0.02,246.36-0.04,369.55  c0,21.24-6.24,27.43-27.62,27.43c-230.43,0.01-460.86,0.04-691.28-0.02c-62.44-0.02-105.09-42.89-105.21-105.46  c-0.06-31.24-0.01-62.48-0.01-94.98c5.14,0,9.59,0,14.03,0c164.05,0,328.11-0.08,492.16,0.21c9.05,0.02,14.37-1.58,17.51-10.97  c3-8.97,8.4-17.14,13.15-26.44c-1.4-1.74-2.97-4.11-4.94-6.09c-27.99-28.1-55.94-56.24-84.11-84.16  c-11.75-11.65-25.03-21.9-35.81-34.35c-35.48-40.97-27.38-104.16,18.08-133.57c36.29-23.48,82.46-22.74,116.36,9.48  c16.03,15.24,31.41,31.17,47.01,46.86c2.79,2.81,5.26,5.94,9.72,11.02c0-28.84,0-54.13,0-80.54c-2.63,1.32-5.13,2.27-7.28,3.72  c-7.71,5.19-15.6,5.9-23.36,0.6c-8.22-5.62-10.11-13.73-8.14-23.18c4.59-22.03,9.05-44.08,13.52-66.13  c0.41-2.02,0.49-4.1,0.86-7.33c-4.88,0-9.34,0-13.8,0c-47.17,0-94.34,0.16-141.51-0.04c-59.22-0.25-102.63-43.62-102.77-102.83  c-0.19-78.5-0.21-157.01,0-235.51c0.16-59.13,43.68-102.41,102.98-102.59C764.34,162.46,822.35,162.6,881.41,162.6z   M1066.23,1164.87c0.25-2.74,0.45-3.95,0.45-5.17c0.01-118.54,0.39-237.08-0.42-355.61c-0.13-18.43-4.01-37.31-9.1-55.14  c-13.72-48.11-52.03-80.3-78.9-120.34c-15.01,10.64-28.76,20.78-42.96,30.27c-6.45,4.31-9.21,8.95-9.11,17.16  c0.52,42.98-0.06,85.98,0.58,128.97c0.09,6.14,3.27,13.63,7.54,18.08c21.59,22.56,44.01,44.32,65.3,65.53  c-9.64,10.18-18.42,19.46-28.75,30.36c-2.77-3.47-5.07-7.01-7.99-9.93C910.7,856.77,858.49,804.51,806.14,752.4  c-4.97-4.95-10.39-9.87-16.49-13.17c-24.08-13.04-56.88-3.2-70.75,20.64c-9.02,15.51-7.24,42.72,3.35,53.2  c41.43,41.02,82.75,82.15,124.25,123.1c23.15,22.84,25.62,24.5,6.3,55.47c-33.54,53.75-33.53,109.37-1.76,164.42  c2.25,3.9,7.73,8.41,11.74,8.44C930.3,1165.02,997.83,1164.87,1066.23,1164.87z M1166.9,465.81c0-4.57,0-6.95,0-9.33  c0-63.47,0.1-126.93-0.04-190.4c-0.08-38.13-25.46-63.33-63.77-63.35c-131.9-0.07-263.8-0.07-395.7,0  c-38.87,0.02-63.94,25.3-63.99,64.38c-0.08,60.12-0.02,120.25-0.02,180.37c0,4.41,0,8.82,0,15.44c4.07-2.85,6.31-4.37,8.49-5.97  c39.6-29.07,79.33-57.98,118.7-87.35c10.59-7.9,20.25-8.74,30.59-0.41c3.24,2.61,6.64,5.04,9.98,7.54  c45.35,34.01,90.7,68.01,136.06,102.02c34.91-23.25,69.44-45.84,103.47-69.15c11.25-7.7,20.79-7.82,31.98-0.11  C1109.75,428.17,1137.34,446.12,1166.9,465.81z M790.22,1045.22c-155.79,0-311.24,0-467.47,0c0,18.05-0.02,35.5,0,52.95  c0.05,42.42,24.27,66.68,66.73,66.68c135.63,0.03,271.27,0.01,406.9,0.01c3.96,0,7.93,0,13.57,0  C790.62,1126.07,784.74,1086.72,790.22,1045.22z M896.06,637.8c5.34-3.75,9-6.28,12.61-8.86c26.8-19.15,53.28-38.76,80.6-57.14  c7.06-4.75,16.66-7.66,25.19-7.92c30.86-0.93,61.77-0.13,92.66-0.44c25.44-0.26,46.93-15.88,55.84-39.14  c2.77-7.24,2.4-11.7-4.95-16.41c-28.06-18-55.8-36.53-83.21-55.49c-6.41-4.43-10.49-3.65-16.38,0.34  c-31.74,21.49-63.73,42.6-95.68,63.79c-14.76,9.79-19.25,9.62-33.6-1.11c-17.37-12.99-34.65-26.09-52.01-39.1  c-30.29-22.7-60.59-45.37-90.86-68.03c-45.44,33.39-89.93,66.35-134.8,98.79c-6.53,4.72-6.93,9.31-4.74,15.84  c8.14,24.33,31.13,40.5,58.69,40.56c58.44,0.14,116.88,0,175.32,0.06c20.39,0.02,28.1,9.54,24.12,29.25  C901.99,607.02,899.28,621.29,896.06,637.8z"></path>	<path class="st0" d="M327.23,443.19c4.85,24.54,9.12,47.87,14.18,71.02c2.26,10.33,1.64,19.28-7.51,25.63  c-9.89,6.85-18.64,2.99-27.45-3.36c-40.23-29-80.52-57.92-121.18-86.3c-5.64-3.94-13.42-6.3-20.34-6.65  c-27.03-1.36-54.49,0.98-81.1-2.87c-46.85-6.77-81.19-48.02-81.52-95.27C1.76,263.6,1.68,181.78,2.34,99.99  C2.77,46.71,46.61,2.74,99.94,2.48c121.83-0.59,243.67-0.59,365.5,0c53.37,0.26,97.06,44.11,97.53,97.57  c0.71,81.8,0.71,163.61,0,245.41c-0.46,53.39-44.19,96.77-97.58,97.58C419.94,443.74,374.48,443.19,327.23,443.19z M292.06,476.82  c-2.83-16.12-5.03-29.95-7.71-43.68c-4.04-20.73,3.27-29.96,24.42-29.98c50.48-0.05,100.97,0.11,151.45-0.06  c37.34-0.12,62.8-25.56,62.86-62.95c0.14-78.46,0.16-156.92-0.01-235.38c-0.08-36.63-25.67-62.34-62.14-62.38  c-118.91-0.14-237.82-0.14-356.72,0c-36.38,0.04-61.91,25.9-61.97,62.55c-0.14,78.46-0.13,156.92,0,235.38  c0.06,37.27,25.6,62.59,63.03,62.8c24.2,0.14,48.4-0.22,72.59,0.21c5.57,0.1,12.11,1.05,16.48,4.08  C226.12,429.45,257.46,452.12,292.06,476.82z"></path>	<path class="st0" d="M409.65,639.98c19.81,4.75,38.98,6.48,55.59,13.93c37.12,16.65,56.43,47.48,57.58,88  c1.17,41.3,0.75,82.66,0.15,123.99c-0.78,54.12-44.16,98.02-98.22,98.32c-108.1,0.59-216.2,0.59-324.3,0  c-54.03-0.3-97.49-44.34-98.2-98.34c-0.54-41.33-0.57-82.67,0.02-123.99c0.77-53.92,44.44-97.4,98.53-98.03  c48.83-0.57,97.67,0.04,146.5-0.37c6.27-0.05,13.2-1.88,18.66-4.95c40.67-22.82,81.08-46.09,121.48-69.38  c9.2-5.31,18.3-8.82,27.75-1.19c8.74,7.05,8.59,16.02,5.77,26.11C416.48,610.05,412.97,626.32,409.65,639.98z M371.85,624.5  c-32.48,18.54-61.86,35.82-91.81,52.04c-7.66,4.15-17.11,6.83-25.78,6.94c-50.46,0.64-100.94,0.1-151.41,0.4  c-34.23,0.2-60.26,26.05-60.55,60.11c-0.35,40.05-0.35,80.11,0,120.17c0.29,33.53,25.99,59.91,59.35,60.01  c107.2,0.34,214.4,0.33,321.6,0.02c33.44-0.1,59.33-26.24,59.68-59.68c0.42-40.05,0.37-80.11,0.02-120.17  c-0.29-34.26-26.1-59.93-60.21-60.5c-12.93-0.22-25.87,0.27-38.79-0.15c-15.12-0.49-23.47-11.49-20.21-26.22  C365.97,647.4,368.65,637.43,371.85,624.5z"></path>	<path class="st0" d="M866.31,322.47c0.12-44.2,36.45-79.97,80.93-79.69c43.67,0.27,79.29,36.18,79.36,80.01  c0.08,44.32-36.07,80.5-80.28,80.36C902.04,403.01,866.19,366.85,866.31,322.47z M986.49,323.55  c0.32-22.24-17.76-40.58-40.07-40.64c-21.53-0.06-39.79,17.96-40,39.47c-0.21,21.85,17.13,39.98,38.83,40.6  C967.5,363.61,986.18,345.75,986.49,323.55z"></path>	<path class="st0" d="M622.68,1124.44c-13.32,0-25.72,0-38.77,0c0-13.03,0-25.73,0-39.09c12.71,0,25.41,0,38.77,0  C622.68,1098.06,622.68,1110.77,622.68,1124.44z"></path>	<path class="st0" d="M242.8,102.79c45.32-40.22,101.73-15.2,115.71,25.4c8.42,24.46,4.51,46.67-10.44,67.41  c-2.66,3.69-4.44,8.03-6.62,12.06c0.81,0.69,1.62,1.38,2.43,2.07c15.41-7.67,30.75-15.47,46.24-22.97  c18.84-9.13,32.69-0.82,32.79,19.84c0.18,37.58,0.19,75.17-0.01,112.75c-0.11,20.01-13.95,28.64-31.95,20  c-15.72-7.54-31.2-15.57-46.97-23.47c-3.4,23.06-8.07,27.14-30.48,27.14c-48.43,0.01-96.85,0.04-145.28-0.02  c-18.93-0.02-25.76-6.76-25.8-25.45c-0.07-35.5,0.12-70.99-0.19-106.48c-0.04-4.59-1.21-10-3.82-13.6  c-23.42-32.31-21.16-70.59,6.16-96.29c26.67-25.09,64.89-25.12,95.39-0.07C240.57,101.62,241.34,101.94,242.8,102.79z   M182.77,302.19c40.58,0,79.99,0,119.2,0c0-26.8,0-52.86,0-78.71c-40.14,0-79.55,0-119.2,0  C182.77,249.97,182.77,275.73,182.77,302.19z M193,182.6c16.49-0.27,29.93-14.32,29.5-30.84c-0.42-15.99-13.93-29.19-29.88-29.2  c-16.56,0-30.18,13.66-30.13,30.23C162.53,169.26,176.46,182.87,193,182.6z M322.69,152.82c0.15-16.51-13.6-30.35-30.07-30.26  c-16.55,0.1-30.1,13.86-29.94,30.42c0.15,16,13.38,29.3,29.46,29.6C308.65,182.9,322.54,169.37,322.69,152.82z M382.7,235.42  c-12.76,6.29-24.31,11.68-35.54,17.65c-5.94,3.16-6.89,15.71-1.21,18.83c11.71,6.46,23.95,11.95,36.76,18.23  C382.7,271.42,382.7,254.41,382.7,235.42z"></path>	<path class="st0" d="M82.56,863.48c0-13.11,0-25.52,0-38.65c119.83,0,239.39,0,359.69,0c0,12.5,0,25.21,0,38.65  C322.86,863.48,203.3,863.48,82.56,863.48z"></path>	<path class="st0" d="M302.19,783.51c-73.32,0-146.13,0-219.4,0c0-13.21,0-25.91,0-39.08c73.32,0,146.13,0,219.4,0  C302.19,757.64,302.19,770.34,302.19,783.51z"></path>	<path class="st0" d="M343.57,744.27c32.95,0,65.39,0,98.61,0c0,12.75,0,25.46,0,38.96c-32.35,0-65.09,0-98.61,0  C343.57,770.92,343.57,758.21,343.57,744.27z"></path></g></svg>