<svg xmlns="http://www.w3.org/2000/svg" xmlns:xlink="http://www.w3.org/1999/xlink" id="Layer_1" x="0px" y="0px" viewBox="0 0 1200 1200" style="enable-background:new 0 0 1200 1200;" xml:space="preserve"><style type="text/css">	.st0{fill:#0071DC;}	.st1{fill:#FF8B00;}	.st2{fill:none;}	.st3{fill:#252525;}</style><g>	<path class="st0" d="M0,1129.69c8.89-13.58,15.19-27.22,14.45-44.73c-2.03-48.45-0.55-96.71,15.5-143.44  c10.84-31.58,25.57-60.94,44.7-88.28c3.04-4.34,4.84-10.55,4.79-15.88c-0.15-16.78-1.82-33.53-2.24-50.31  c-1.12-44.9,29.34-76.34,74.49-76.56c59.37-0.28,118.73-0.07,178.1-0.07c14.22,0,22.89-6.44,24.09-20.86  c1.42-17.07,0.97-34.32,0.82-51.49c-0.02-2.49-2.33-5.8-4.55-7.31c-49.74-33.66-77.92-80.68-87.07-139.62  c-0.17-1.06-0.73-2.07-1.31-3.64c-7.01,0-14,0.1-21-0.02c-32.07-0.54-56.3-23.75-57.33-55.96c-0.72-22.63-0.54-45.31,0.01-67.95  c0.47-19.51,8.7-35.66,25.29-46.3c5.51-3.54,6.83-7.09,6.89-13.04c0.31-31.21-2.02-62.83,2.21-93.54  c11.56-83.97,79.97-143,164.27-143.94c61.7-0.69,123.42-0.44,185.13-0.03c42.82,0.29,72.59,27.67,77.41,70.5  c0.68,6.03,2.8,7.6,8.57,8.09c43.49,3.7,71.49,33.95,72.24,78.24c0.45,26.55,0.21,53.12-0.01,79.67c-0.05,6.25,1.2,10.34,7.07,14.3  c16.62,11.19,24.8,27.47,24.77,47.72c-0.05,43.35,0.25,86.71-0.1,130.06c-0.32,39.74-30.52,72.1-70.18,70.83  c-24.59-0.78-40.6,5.26-54.43,26.47c-9.65,14.8-26.67,24.73-39.95,37.3c-3.16,2.99-6.18,7.79-6.42,11.92  c-0.8,13.62-0.51,27.33-0.24,40.99c0.39,19.31,8.84,27.61,27.53,27.61c57.41,0,114.83-0.06,172.24,0.02  c50.9,0.07,81.57,33.26,77.71,83.66c-1.16,15.18-2.03,30.4-2.38,45.62c-0.09,3.89,1.42,8.47,3.71,11.65  c42.44,58.96,62.93,124.72,61.98,197.28c-0.13,10.15-0.01,20.31-0.02,30.46c-0.02,14.67,0.72,28.21,8.48,42.37  c15.24,27.81-0.17,62.5-29.91,74.02c-3.4,1.32-6.67,2.99-10,4.49c-0.78,0-1.56,0-2.34,0c-3.92-0.77-7.84-2.21-11.76-2.21  c-274.55-0.11-549.11-0.11-823.66,0c-3.56,0-7.11,1.44-10.67,2.21c-0.78,0-1.56,0-2.34,0c-8.17-4.56-17.74-7.69-24.15-14.02  c-8.13-8.03-13.71-18.66-20.38-28.17C0,1148.44,0,1139.06,0,1129.69z M812.29,1087.88c1.12-20.36,2.24-40.16,3.31-59.96  c4.25-78.75,8.27-157.51,12.84-236.23c1.74-29.9-12.23-46.03-41.89-46.04c-210.87-0.04-421.73-0.04-632.6,0  c-28.28,0.01-42.81,14.69-41.45,42.93c2.59,53.81,5.81,107.59,8.75,161.39c0.77,14.02-4.77,22.13-15.71,23.12  c-11.68,1.06-18.36-6.03-19.38-20.73c-0.97-14-1.84-28.01-2.95-45.12c-32.22,58.85-36.86,119.15-33.3,180.43  c14.58,0,28.81,0,41.01,0c0-17.25-0.04-33.58,0.02-49.91c0.04-10.22,5.76-16.37,15.33-17.56c9.76-1.22,16.58,4,18.8,13.69  c1.2,5.26,1.11,10.83,1.46,16.27c0.82,12.72,1.57,25.45,2.31,37.71c92.29,0,183.16,0,274.84,0c-0.72-3.76-1.15-6.78-1.89-9.73  c-4.82-19.02-15.87-34.33-28.13-49.26c-47.45-57.8-32.51-145.84,30.93-184.52c22.49-13.71,43.92-2.1,44.4,24.28  c0.32,17.57-0.1,35.14,0.1,52.71c0.4,35.47-4.9,29.28,30.44,30.26c10.02,0.28,12.82-3.82,12.66-13.19  c-0.43-24.2-0.41-48.42-0.04-72.63c0.34-21.99,21.17-33.92,40.52-23.52c3.76,2.02,7.36,4.42,10.82,6.94  c59.45,43.22,69.21,125.94,21.25,182.77c-13.79,16.34-24.21,33.94-27.61,55.9C629.08,1087.88,720.28,1087.88,812.29,1087.88z   M296.76,398.28c0,24.06-0.65,47.82,0.11,71.54c3.19,98.83,87.39,162.59,171.85,163.39c40.57,0.38,76.79-12.24,111.06-37.99  c-10.53-0.58-18.64-0.5-26.6-1.55c-25.87-3.42-43.59-24.78-42.2-50.34c1.34-24.74,21.27-43.99,46.84-44.82  c11.7-0.38,23.44,0.28,35.14-0.17c16.06-0.63,31.15,1.45,43.44,13.28c8.31-18.58,12.14-86.62,6.71-113.76  c-29.27-4.76-38.92-16.29-38.92-46.52c0-20.31,0.4-40.63-0.06-60.92c-0.62-26.92-18.74-44.58-45.51-44.32  c-7.69,0.07-15.4,1.96-23.02,3.41c-13.76,2.62-27.35,6.39-41.2,8.18c-31.83,4.12-62.95-0.26-93.64-9.28  c-35.47-10.42-66.65,9.49-63.99,48.92c1.36,20.22,0.5,40.6,0.23,60.91c-0.23,17.35-9.5,31.07-24.44,36.42  C307.54,396.45,302.1,397.09,296.76,398.28z M639.43,362.74c13.68-4.71,25.69-8.98,37.78-12.98c9.04-2.99,13.1-9.29,13.1-18.51  c0.01-36.7,0.48-73.42-0.21-110.11c-0.46-24.25-16.67-39.67-40.75-40.9c-23.48-1.2-37.39-14.53-39.49-37.84  c-2.33-25.9-17.58-40.43-43.57-40.52c-60.52-0.2-121.05-0.58-181.57,0.08c-68.73,0.75-123.03,45.24-131.5,112.36  c-5,39.61-2.1,80.24-2.17,120.42c-0.01,3.97,3.12,10.07,6.42,11.54c13.95,6.22,28.51,11.06,44.36,16.97  c0-24.24-0.14-45.67,0.07-67.11c0.08-7.77,0.06-15.75,1.7-23.28c10.18-46.64,55.37-72.78,105.11-58.6  c41.88,11.94,82.73,12.4,124.28-0.25c19.1-5.82,38.85-5.42,57.37,2.61c32.82,14.23,48.35,40.42,48.98,75.65  C639.76,315.16,639.43,338.07,639.43,362.74z M471.12,1123.61c-135.53,0-271.07-0.01-406.6,0.04c-4.66,0-9.45-0.03-13.96,0.96  c-9.55,2.11-14.73,8.76-15.24,18.28c-0.52,9.58,4.18,16.66,13.36,19.72c4.32,1.44,9.2,1.64,13.82,1.64  c271.85,0.07,543.7,0.07,815.55,0.02c4.25,0,8.67-0.11,12.72-1.21c9.93-2.68,14.96-9.7,14.62-19.89  c-0.34-10.23-5.96-16.8-16.01-18.79c-4.54-0.9-9.32-0.73-13.99-0.73C740.63,1123.61,605.88,1123.61,471.12,1123.61z   M501.03,1088.51c4.41-33,19.83-59.81,40.65-84.38c14.12-16.67,19.64-37.14,18.15-58.93c-1.71-24.82-11.67-45.75-32.63-63.93  c0,22.93,0.31,43.13-0.08,63.3c-0.47,24.26-18.29,41.62-42.57,42.03c-9.75,0.17-19.52,0.23-29.27-0.02  c-22.71-0.58-40.08-16.88-41.09-39.62c-0.82-18.31-0.24-36.68-0.36-55.02c-0.02-2.79-0.49-5.58-0.9-9.97  c-3.14,2.81-4.93,4.25-6.52,5.87c-31.59,32.16-34.54,83.33-5.69,118.33c18.7,22.68,33.29,46.86,38.13,76.31  c0.38,2.3,4.27,5.69,6.6,5.75C463.71,1088.72,481.98,1088.51,501.03,1088.51z M387.47,709.82c54.94,0,111.26,0,166.03,0  c-1.32-18.9-2.6-37.27-3.94-56.47c-52.72,20.25-105.52,20.28-158.28-0.21C389.96,672.9,388.72,691.33,387.47,709.82z   M890.84,1088.24c3.39-62.69-0.95-122.82-33.47-181.34c-3.37,62.55-6.55,121.76-9.76,181.34  C862.89,1088.24,876.44,1088.24,890.84,1088.24z M721.79,358.41c-10.38,13.21-22.5,22.08-38.03,26.42  c-1.64,0.46-3.76,3.18-3.78,4.88c-0.26,20.81-0.17,41.63-0.17,62.57c8.26,0,14.89,0.35,21.48-0.08c11-0.71,19.65-6.7,20.14-17.47  C722.58,409.34,721.79,383.86,721.79,358.41z M260.87,452.35c0-19.7,0-37.99,0-56.28c0-1.17,0.37-2.51-0.07-3.47  c-1.3-2.81-2.37-7.2-4.52-7.89c-14.92-4.8-26.95-13.18-36.77-29.94c-0.55,7.43-1.04,11.17-1.06,14.9  c-0.09,15.97-0.04,31.94-0.04,47.92c0,30.1,5.13,35.11,35.52,34.78C255.81,452.34,257.7,452.35,260.87,452.35z M669.42,531.22  c38.78,2.38,58.49-15.98,51.26-45.66c-14.07,0.93-27.94,1.85-41.71,2.76C675.81,502.55,672.7,516.49,669.42,531.22z M580.79,533.6  c-7.37,0-15.14-1.42-21.98,0.48c-4.86,1.35-10.75,6.49-12.12,11.15c-2.14,7.22,3.26,13.14,10.77,13.52  c15.47,0.78,31.1,1.31,46.45-0.23c4.44-0.45,10.69-7.87,11.55-12.87c1.2-7.05-4.72-11.85-12.54-12.03  C595.54,533.44,588.16,533.58,580.79,533.6z"></path>	<path class="st0" d="M1200,110.16c-6.37,6.97-12.84,13.75-23.68,9.51c-10.81-4.22-11.85-13.26-11.52-23.14  c0.26-7.8,0.11-15.62,0.04-23.43c-0.22-23.55-13.39-37.08-37.02-37.29c-30.07-0.27-60.14-0.07-90.21-0.07  c-64.83,0-129.66-0.02-194.49,0.01c-28.76,0.01-41.17,12.56-41.19,41.57c-0.03,44.52-0.05,89.04,0.01,133.56  c0.04,25.93,11.09,37.86,36.78,40.03c25.64,2.16,43.96,21.91,44.48,48.52c0.41,21.07,0.28,42.15,0.42,63.23  c0,0.21,0.47,0.42,1.57,1.34c16.01-26.67,32.81-52.73,47.59-79.88c13.05-23.97,31.38-34.43,58.81-33.67  c44.88,1.25,89.81,0.38,134.73,0.32c25.22-0.03,38.35-13.03,38.53-37.94c0.05-7.03,0.29-14.07-0.06-21.09  c-0.51-10.19,1.55-19.19,12.3-22.62c10.72-3.43,17.78,2.49,22.92,11.35c0,17.19,0,34.38,0,51.56c-1.34,2.63-2.96,5.16-3.99,7.91  c-10.66,28.45-35.07,45.86-65.36,45.97c-48.02,0.16-96.04,0.28-144.05-0.15c-9.86-0.09-15.81,3.39-20.72,11.74  c-20.74,35.25-41.76,70.34-63.06,105.25c-11.44,18.75-34.15,21.95-46.98,6.17c-4.49-5.53-7.17-14.01-7.39-21.25  c-0.84-27.69-0.3-55.42-0.37-83.14c-0.03-14.56-2.91-17.55-17.48-18.69c-35.35-2.77-63.05-31.21-63.61-67.46  c-0.76-49.96-0.7-99.94-0.02-149.9c0.47-34.34,25.25-61.85,57.76-66.33c105.65-0.01,211.3-0.02,316.96-0.03  c19.38,2.23,34.55,11.86,45.27,27.7c5.45,8.07,8.76,17.58,13.04,26.44C1200,74.22,1200,92.19,1200,110.16z"></path>	<path class="st0" d="M46.87,1200c3.56-0.77,7.11-2.21,10.67-2.21c274.55-0.1,549.11-0.1,823.66,0c3.92,0,7.84,1.44,11.76,2.21  C610.94,1200,328.91,1200,46.87,1200z"></path>	<path class="st0" d="M1200,56.25c-4.28-8.86-7.58-18.38-13.04-26.44c-10.71-15.84-25.89-25.47-45.27-27.7  c-0.32-0.67-0.41-1.37-0.29-2.11c19.33,0,38.67,0,58.59,0C1200,18.75,1200,37.5,1200,56.25z"></path>	<path class="st0" d="M1141.41,0c-0.12,0.73-0.02,1.43,0.29,2.11c-105.65,0.01-211.3,0.02-316.96,0.03  c0.39-0.68,0.48-1.39,0.26-2.14C930.47,0,1035.94,0,1141.41,0z"></path>	<path class="st0" d="M890.84,1088.24c-14.4,0-27.95,0-43.23,0c3.21-59.58,6.39-118.8,9.76-181.34  C889.9,965.42,894.23,1025.55,890.84,1088.24z"></path>	<path class="st0" d="M983.11,204.98c-37.44,0-74.87,0.02-112.31-0.03c-3.88-0.01-7.88,0.08-11.63-0.75  c-8.17-1.81-12.73-7.27-13.21-15.63c-0.5-8.87,3.67-15.01,12.18-17.61c3.28-1,6.92-1.17,10.4-1.17  c76.43-0.06,152.86-0.06,229.3-0.01c3.48,0,7.09,0.15,10.42,1.03c8.69,2.3,12.94,8.42,12.66,17.26  c-0.29,8.88-5.03,14.62-13.86,16.28c-3.79,0.71-7.76,0.6-11.65,0.6C1057.98,204.99,1020.55,204.98,983.11,204.98z"></path>	<path class="st0" d="M1026.71,122.31c-24.19,0-48.38,0.09-72.56-0.04c-13.55-0.07-21.51-6.85-21.32-17.7  c0.19-10.84,8.14-17.37,21.88-17.4c47.98-0.09,95.97-0.08,143.95-0.01c14.66,0.02,22.49,6.49,22.31,17.98  c-0.17,11.19-7.46,17.08-21.7,17.13C1075.09,122.38,1050.9,122.31,1026.71,122.31z"></path>	<path class="st0" d="M872.97,122.31c-2.34,0.01-4.68,0.06-7.02,0c-12.88-0.36-20.17-6.8-20.06-17.67  c0.11-10.31,7.33-16.93,19.33-17.47c5.06-0.23,10.15-0.25,15.21,0.01c11.49,0.6,19.31,8.01,19.17,17.9  c-0.14,9.99-7.83,16.76-19.6,17.21C877.65,122.38,875.31,122.3,872.97,122.31z"></path></g><g>	<path class="st1" d="M-283.2,79.11l-6.87-7.21l-0.02-0.02l-2.58-2.99c-0.17-0.03-0.34-0.04-0.51-0.05  c-0.47-0.03-0.92,0.01-1.37,0.09c-1.95,0.34-3.73,1.54-5.21,2.57c0-0.01,0.01-0.03,0.02-0.04c-0.66,0.43-1.26,0.84-1.76,1.2  c-2.79,1.62-5.93,1.77-7.49,1.72c-0.03,0-0.06,0-0.08,0c-0.02,0-0.04,0-0.06,0c-0.08,0-0.15,0-0.22-0.01  c-0.05,0-0.09-0.01-0.13-0.01c-0.03,0-0.05,0-0.08-0.01c-0.17-0.01-0.29-0.03-0.35-0.03c-0.04,0-0.06,0-0.06,0  c-7.35-0.76-15.95-6.04-28.79-19.38c-6.68-6.94-13.84-15.52-23.48-17.71c-7-1.6-14.05,1.14-17.61,7.68  c-2.38,4.38-2.36,9.82-0.29,14.31c0.12,0.25,0.26,0.51,0.41,0.8c0.04,0.08,0.08,0.15,0.12,0.23c0,0.01,0.01,0.01,0.01,0.02  c0.07,0.12,0.14,0.25,0.21,0.37c0.97,1.65,2.23,3.13,3.69,4.38c0.96,0.77,1.98,1.41,2.99,1.93c0.55,0.29,1.09,0.54,1.62,0.76  c0.09,0.04,0.19,0.08,0.28,0.12c0.01,0,0.02,0.01,0.02,0.01c0.26,0.11,0.52,0.2,0.77,0.3c2.52,0.91,4.46,1.14,4.46,1.14  c0.03-1.79-0.94-3.45-2.49-4.34c-0.09-0.05-0.18-0.11-0.27-0.16c-1.4-0.83-2.42-1.63-3.14-2.28c-0.12-0.11-0.23-0.21-0.33-0.31  c-0.71-0.69-1.04-1.16-1.07-1.22c0,0,0-0.01,0-0.01c-0.05-0.06-0.1-0.11-0.15-0.17c-0.04-0.05-0.08-0.09-0.12-0.14  c-0.11-0.13-0.21-0.25-0.31-0.37c-0.08-0.1-0.16-0.19-0.23-0.29c-0.08-0.09-0.15-0.18-0.21-0.27c-0.03-0.05-0.07-0.09-0.1-0.13  c-0.13-0.17-0.26-0.33-0.37-0.49c-0.03-0.04-0.06-0.08-0.08-0.11c-0.05-0.07-0.1-0.14-0.15-0.21c-0.05-0.07-0.09-0.13-0.13-0.19  c-0.04-0.06-0.08-0.11-0.11-0.16c-0.05-0.07-0.09-0.14-0.13-0.2c-0.02-0.03-0.04-0.06-0.06-0.1c-0.04-0.07-0.09-0.15-0.13-0.24  c-0.03-0.04-0.05-0.09-0.07-0.14c-0.07-0.14-0.15-0.31-0.23-0.48c-0.11-0.24-0.22-0.5-0.33-0.79c-0.04-0.1-0.08-0.19-0.11-0.3  c-0.08-0.2-0.15-0.41-0.22-0.63c-0.04-0.11-0.07-0.22-0.11-0.33c-0.81-2.63-1.32-6.34,0.31-9.27c0.65-1.17,1.36-2.15,2.11-2.97  c0,0,0,0,0,0c0.27-0.3,0.55-0.57,0.83-0.83c0.07-0.07,0.14-0.13,0.21-0.19c0.77-0.67,1.58-1.17,2.43-1.54  c0.17-0.08,0.33-0.14,0.5-0.2c0.44-0.16,0.89-0.29,1.35-0.38c0.17-0.03,0.35-0.06,0.52-0.09c0.31-0.04,0.62-0.07,0.93-0.09  c0.02,0,0.03,0,0.05,0c1.3-0.06,2.65,0.13,4.01,0.5c0.11,0.03,0.22,0.06,0.33,0.09c0.22,0.06,0.44,0.13,0.66,0.21  c0.22,0.07,0.44,0.15,0.66,0.23h0c0.54,0.21,1.08,0.44,1.63,0.69c1.45,0.68,2.91,1.53,4.36,2.49c0.36,0.24,0.72,0.49,1.08,0.74  c0.36,0.25,0.72,0.51,1.07,0.78c0.18,0.13,0.36,0.27,0.53,0.4c0.31,0.24,0.63,0.48,0.94,0.73c0.31,0.25,0.62,0.5,0.93,0.75  c0.31,0.25,0.61,0.51,0.91,0.77c0.45,0.38,0.9,0.77,1.34,1.17c0.15,0.13,0.29,0.26,0.44,0.39c0.58,0.53,1.16,1.06,1.72,1.58  c0.28,0.26,0.56,0.53,0.83,0.79c0.68,0.66,1.34,1.31,1.97,1.94c0.19,0.19,0.38,0.38,0.56,0.56c0.18,0.19,0.37,0.37,0.55,0.56  c0.12,0.12,0.24,0.24,0.36,0.36c0.29,0.3,0.58,0.6,0.86,0.88c0.83,0.86,1.6,1.66,2.27,2.37c0.46,0.48,0.92,0.95,1.37,1.4  c0.03,0.03,0.06,0.06,0.09,0.09c3.35,3.42,6.38,6.28,9.24,8.74l0.02,0.01l0.01,0l0.01,0c0.01,0.01,0.03,0.03,0.04,0.04l0.01,0.01  c0,0,0.01,0,0.01,0.01c0.01,0.01,0.02,0.02,0.03,0.03c0.01,0.01,0.02,0.02,0.03,0.02v0c0.01,0.01,0.02,0.02,0.03,0.03  c0.01,0.01,0.03,0.02,0.04,0.03c0.02,0.01,0.03,0.03,0.05,0.04c0.08,0.06,0.17,0.14,0.27,0.23c0.04,0.04,0.09,0.08,0.14,0.11  s0.1,0.08,0.15,0.12c0.1,0.09,0.22,0.18,0.34,0.28c0.09,0.07,0.18,0.15,0.27,0.22c1.37,1.12,3.61,2.88,6.28,4.7  c0.13,0.09,0.26,0.18,0.39,0.27c0.13,0.09,0.26,0.18,0.4,0.27c0.15,0.1,0.3,0.2,0.45,0.3c0.45,0.3,0.88,0.58,1.31,0.85  c0.08,0.05,0.16,0.1,0.24,0.16c0.08,0.05,0.16,0.1,0.24,0.15c0.03,0.02,0.06,0.04,0.08,0.05c1.16,0.73,2.29,1.4,3.49,2.03  c0.13,0.07,0.25,0.14,0.38,0.2c0.11,0.06,0.23,0.12,0.34,0.18c0.03,0.02,0.06,0.03,0.09,0.05c0.77,0.39,1.58,0.78,2.43,1.16  c0.12,0.05,0.25,0.11,0.37,0.16c0.02,0.01,0.03,0.01,0.05,0.02c0.04,0.02,0.09,0.04,0.14,0.06c0.26,0.11,0.51,0.21,0.76,0.3  c0.1,0.04,0.2,0.07,0.29,0.11c0.39,0.14,0.79,0.27,1.2,0.42h0c0.28,0.09,0.56,0.17,0.85,0.25c0.28,0.08,0.56,0.15,0.84,0.21h0  c0,0,0.01,0,0.02,0c0.06,0.01,0.26,0.06,0.44,0.1c0.04,0.01,0.08,0.02,0.11,0.02c0.07,0.02,0.12,0.03,0.15,0.03  c-0.01,0-0.01-0.01-0.02-0.01c0,0,0,0-0.01,0c-0.01,0-0.02-0.01-0.03-0.01c0.01,0,0.03,0,0.05,0.01l0.01,0l0.01,0.01  c0.01,0,0.01,0.01,0.02,0.01c0,0,0.01,0,0.01,0h0c0,0,0,0,0.01,0c0.87,0.23,1.75,0.42,2.63,0.57c0.01,0,0.03,0,0.04,0.01h0.01  c0.32,0.04,1.28,0.21,2.58,0.34c0.08,0.01,0.16,0.02,0.24,0.03c1.67,0.16,3.84,0.26,5.92-0.03c0,0,0,0,0.01,0h0.01  c4.28-0.42,8.16-1.69,11.05-3.65l-0.26-0.27L-283.2,79.11z M-307.54,74.4c0.33-0.01,0.65-0.03,0.97-0.05  C-306.89,74.37-307.22,74.39-307.54,74.4z"></path>	<path class="st1" d="M-277.04,65.96l-9.08-9.13c0,0-7.65,9.54-3.59,13.62l8.11,8.15C-283.21,75.32-277.04,65.96-277.04,65.96z   M-283.13,74.39c0,0-2.92-1.72-2.6-5.06l-2.3-0.5l1.83-2.01l1.83-2.01l0.83,2.59l0.83,2.59l-2-0.44  C-284.87,70.8-284.77,72.79-283.13,74.39z"></path>	<g>		<path class="st1" d="M-452.44,80.7c0.97,0.94,2.07,0.71,2.45-0.54c0.06-0.19,0.11-0.38,0.15-0.58c0.33-1.59,0.19-3.25-0.3-4.83   c-0.29-0.93-0.6-1.88-0.99-2.8c-0.39-0.93-1.1-1.8-1.85-2.52c-0.81-0.78-1.87-0.6-2.31,0.4c-0.21,0.47-0.33,1-0.38,1.52   c-0.22,2.51,0.39,4.89,1.56,7.13C-453.68,79.3-453.09,80.07-452.44,80.7z"></path>		<path class="st1" d="M-457.68,86.01c0,0,8.18,15.29,21.44,11.65c4.45-1.22,9.2-6.97,7.49-13.91   C-428.74,83.75-442.39,97.55-457.68,86.01z"></path>		<path class="st1" d="M-429.5,82.88c0,0,0.91-0.25,1.77,0.64C-427.73,83.52-427.92,82.08-429.5,82.88z"></path>		<path class="st1" d="M-458.62,86.89c0-1.49,1.88-1.76,1.88-1.76C-459.34,84.82-458.62,86.89-458.62,86.89z"></path>		<path class="st1" d="M-437.32,73.14c0,0,3.19-4.48,9.11-6.37c0,0-9.4-0.29-12.32,9.84c0,0,6.73-5.67,14.26-5.43   C-426.28,71.18-432.72,69.86-437.32,73.14z"></path>		<path class="st1" d="M-385.31,99.56c-3.97,0-7.18,3.21-7.18,7.18c0,3.97,3.21,7.18,7.18,7.18c3.97,0,7.18-3.21,7.18-7.18   C-378.13,102.77-381.35,99.56-385.31,99.56z M-387.4,110.88l-0.29-8.47l7.1,3.72L-387.4,110.88z"></path>	</g>	<path class="st2" d="M-375.34,79.04c-0.53,0.53-1.08,1.05-1.64,1.55c-0.56,0.51-1.12,1.01-1.69,1.5c-1.42,1.22-2.86,2.36-4.16,3.35  c-0.26,0.2-0.51,0.39-0.76,0.58c-0.25,0.18-0.49,0.37-0.73,0.54c-0.07,0.04-0.13,0.09-0.2,0.14c-0.1,0.08-0.19,0.14-0.29,0.22  c-0.18,0.13-0.35,0.26-0.52,0.38c-0.21,0.15-0.42,0.3-0.61,0.44c-0.29,0.21-0.56,0.39-0.8,0.57c0.05,0.54,0.12,1.06,0.22,1.56  c0.1,0.49,0.22,0.97,0.36,1.43c0.07,0.23,0.15,0.46,0.23,0.67c0.17,0.43,0.35,0.85,0.54,1.24c0,0.01,0,0.01,0,0.01  c0.21,0.39,0.42,0.77,0.65,1.12v0.01c0.09,0.14,0.18,0.28,0.28,0.41c0.01,0.01,0.01,0.02,0.02,0.02c0.08,0.12,0.17,0.23,0.26,0.34  c0.09,0.12,0.19,0.24,0.29,0.36c0.09,0.12,0.19,0.23,0.29,0.34c0.14,0.15,0.28,0.29,0.42,0.43c0.28,0.28,0.57,0.54,0.87,0.79  c0.61,0.49,1.25,0.92,1.89,1.28c0.13,0.07,0.25,0.14,0.37,0.2c0.12,0.06,0.24,0.12,0.36,0.17c0.13,0.07,0.26,0.13,0.39,0.18  c0.2,0.09,0.39,0.17,0.59,0.24c0.14,0.06,0.29,0.11,0.43,0.16c0.14,0.05,0.29,0.1,0.43,0.14c0.13,0.04,0.26,0.08,0.39,0.12  c0.09,0.02,0.19,0.05,0.28,0.07c0.13,0.03,0.26,0.06,0.38,0.09c0.08,0.02,0.16,0.03,0.23,0.05c0.08,0.02,0.16,0.03,0.23,0.04  c0.09,0.02,0.19,0.03,0.28,0.04c0.02,0.01,0.04,0.01,0.06,0.01c0.03,0.01,0.05,0.01,0.08,0.01c0.13,0.02,0.26,0.03,0.38,0.04  c0.11,0.01,0.21,0.02,0.31,0.03c0.08,0.01,0.17,0.02,0.26,0.02c0.13,0.01,0.26,0.01,0.38,0.01h0.01v-21.7l-0.01,0.01  C-374.82,78.52-375.08,78.78-375.34,79.04z"></path>	<path class="st2" d="M-348.89,84.61c-0.58,0.39-1.13,0.75-1.66,1.08c-0.27,0.17-0.52,0.32-0.77,0.48  c-0.25,0.15-0.49,0.29-0.72,0.43c-0.23,0.13-0.46,0.26-0.68,0.38c-0.22,0.12-0.42,0.23-0.62,0.33c-0.29,0.15-0.57,0.28-0.82,0.4  v0.01c0.03,0.21,0.06,0.42,0.1,0.63c0,0.01,0.01,0.03,0.01,0.04v0.01c0.04,0.2,0.08,0.39,0.12,0.58c0,0.01,0,0.01,0,0.01  c0.04,0.21,0.09,0.41,0.15,0.6c0.06,0.19,0.11,0.39,0.17,0.58c0.06,0.19,0.13,0.38,0.19,0.56c0.07,0.18,0.14,0.37,0.22,0.54  c0.15,0.36,0.32,0.7,0.49,1.03c0.09,0.17,0.18,0.33,0.27,0.49c0.09,0.16,0.19,0.32,0.28,0.47c0.11,0.15,0.21,0.3,0.31,0.44  c0.11,0.15,0.21,0.29,0.32,0.43c0,0.01,0,0.01,0,0.01c0.11,0.14,0.22,0.28,0.33,0.42c0.11,0.13,0.23,0.27,0.34,0.39  c0.23,0.26,0.47,0.51,0.71,0.75c0.14,0.14,0.28,0.27,0.43,0.41c0.02,0.02,0.04,0.04,0.07,0.06c0.12,0.11,0.25,0.22,0.37,0.32  c0.13,0.11,0.26,0.21,0.38,0.32c0.02,0.01,0.04,0.03,0.07,0.05c0.15,0.12,0.3,0.23,0.45,0.34c0.34,0.25,0.69,0.48,1.04,0.7  c0.17,0.11,0.35,0.21,0.52,0.31c0.26,0.15,0.52,0.29,0.77,0.42c0.17,0.08,0.34,0.17,0.51,0.24c0.42,0.2,0.82,0.37,1.21,0.51  c0.16,0.06,0.31,0.11,0.46,0.17c0.67,0.23,1.26,0.38,1.75,0.47c0.11,0.02,0.21,0.03,0.3,0.04c0.62,0.08,0.98,0.03,0.98-0.13v-21.7  c-1.3,1.19-2.61,2.3-3.9,3.31C-346.2,82.71-347.6,83.73-348.89,84.61z"></path>	<path class="st0" d="M-280.38,77.85c1.23-5.46,11.68-14.36,11.68-14.36l-9.08-9.13c0,0-0.57,0.45-1.38,1.26l7.7,7.74  C-271.46,63.36-280.27,72.39-280.38,77.85z"></path>	<path class="st0" d="M-281.02,78.03c-0.65-4.65,8.37-14.53,8.37-14.53l-9.08-9.13c0,0-1.07,1.48-1.94,3.58l7.73,7.77  C-275.94,65.72-282.16,75.71-281.02,78.03z"></path>	<path class="st0" d="M-369.36,107.46l-0.1,0.12l-1.25,4.6c0,0,1.48,0.23,2.82,5.2h0.24v-6.43c0,0-1.23-1.03,0-1.58  c0.71-0.32,1.62,0.24,0.71,1.62l-0.08,6.39h0.19c0,0,0.64-3.82,2.8-5.37l-1.21-4.55H-369.36z"></path>	<path class="st0" d="M-365.31,106.65v-1.75c0,0-4.72,0.14-5.97-3.76c0,0,0.36,2.86,1.86,5.51H-365.31z"></path>	<path class="st0" d="M-301.11,108.36c-0.13-0.05-0.27-0.11-0.4-0.16c-0.07-0.03-0.13-0.05-0.2-0.08c-0.25-0.1-0.49-0.19-0.73-0.27  c0.16-0.74,0.31-1.54,0.45-2.43c0.24-1.54,0.43-3.32,0.53-5.34c0.02-1.22,0.04-2.44,0.06-3.62c0.04-3.92,0.03-7.43-0.11-9.34  c-0.25-1.22-0.73-1.5-1.79-1.54c-0.9,0.07-1.78,0.27-2.64,0.56c-3.06,1.08-5.74,3.48-7.83,5.89c-0.02,0.02-0.03,0.03-0.04,0.05  c-0.01,0.01-0.01,0.01-0.01,0.01c-0.01,0-0.01,0.01-0.02,0.02c-1.89,2.19-3.3,4.38-4.07,5.55V77.4c-0.01-0.01-0.09-0.09-0.26-0.22  c-0.24-0.16-0.47-0.33-0.71-0.5c-0.02-0.02-0.05-0.03-0.07-0.06c-0.13-0.09-0.27-0.19-0.39-0.28c-0.13-0.1-0.26-0.19-0.39-0.28  c-0.28-0.21-0.55-0.41-0.81-0.61c-0.18-0.14-0.36-0.27-0.53-0.41c-0.33-0.25-0.64-0.48-0.93-0.71c-0.5-0.38-0.94-0.73-1.33-1.05  c-0.25-0.2-0.48-0.38-0.68-0.55c-0.04-0.03-0.09-0.07-0.13-0.1c-0.06-0.04-0.11-0.08-0.16-0.13c-0.21,0-0.42-0.01-0.65-0.01  c-0.34-0.01-0.7-0.01-1.08-0.01c-0.25,0-0.52,0-0.8,0c-0.14-0.01-0.28-0.01-0.42-0.01c-0.43-0.01-0.88-0.01-1.34-0.01  c-0.16-0.01-0.31-0.01-0.47-0.01c-0.48-0.01-0.98-0.01-1.5-0.01c-0.34,0-0.69-0.01-1.06-0.01c-0.65-0.01-1.33-0.01-2.03-0.02  c-0.07,0-0.15-0.01-0.22,0c-0.3-0.01-0.61-0.01-0.92-0.01c-0.62,0-1.26-0.01-1.92-0.01c-0.06,0-0.13-0.01-0.19,0  c-0.63-0.01-1.27-0.01-1.93-0.02c-2.84-0.03-5.89-0.06-9.07-0.08c-0.98-0.01-1.97-0.02-2.97-0.03c-1-0.01-2.01-0.02-3.02-0.03  c-1.01-0.01-2.03-0.02-3.05-0.03c-1.03-0.01-2.05-0.02-3.07-0.03c-1.02-0.01-2.05-0.02-3.07-0.03c-0.51-0.01-1.02-0.01-1.53-0.02  l-2.61-0.02c-13.86-0.13-26.35-0.24-29.78-0.27v-0.01c-0.19,0.01-0.89,0-0.92,0v0.01l-7.48,0.09c-0.15,0.62-0.31,1.24-0.48,1.87  l7-0.09v24.94c-0.92-1.34-1.83-2.48-2.84-3.45c-0.01-0.02-0.04-0.04-0.05-0.05c-1.3-1.17-3.13-2.4-5.62-3.3  c-1.5-0.51-3.26-0.89-5.37-1.19l0,0l-0.05-0.01c-0.01,0-0.01,0-0.02,0c0,0,0,0,0,0l0,0c0.01-0.01,0.01-0.02,0.02-0.03  c0.25-0.41,0.47-0.78,0.66-1.12c0.34-0.61,0.66-1.22,0.98-1.84c2.37-4.63,4.1-9.41,5.3-13.85c0.17-0.63,0.33-1.25,0.48-1.87  c1.76-7.24,2.09-13.31,1.53-15.83l-15.31,6.43c0,0,7.16,13.99-1.4,31.91c-9.87,20.66-42.45,17.15-51.3-8.28l-5.88,1.47  c0,0,18.72,31.2,44.28,21.53c0.66-0.26,1.31-0.53,1.95-0.82c0.19-0.09,0.39-0.18,0.58-0.27c6.25-2.96,11.08-7.83,14.39-12.07  c0,0,0,0,0,0c10.43,0.41,16.15,4.45,16.96,6.38l-14.38,8.75c2.37,14.64,14.51,15.27,16.96,15.03V73.72  c2.88,0.02,11.38,0.1,21.69,0.2c-2.87,3.23-11.7,9.91-17.27,13.83c0.71,4.8,3.32,8.14,6.44,10.46c0.1-0.02,0.22-0.03,0.32-0.04  c3.26-0.33,6.18,1.35,7.65,3.95c2.77,0.85,4.98,1.13,5.5,1.16V73.94c1.78,0.02,3.6,0.03,5.44,0.05  c0.94,4.58-10.16,29.79,1.86,30.02l0.71-29.99c7.74,0.07,15.75,0.14,22.74,0.21c-5.51,5.19-18.45,10.98-18.59,11.05l-0.61,0.27  c-0.68,10.39,14.69,17.46,22.14,17.4V74.25c19.88,0.77,19.79-3.89,19.18,13.82c-12.82-16.47-26.12,6.5-11.83,15.16  c6.7-10.62-1.55-7.43-1.7-14.6c1.87-5.8,9.56-5.13,13.53,3.1v10.16c0,1.07,1.5,1.31,1.83,0.29c0.03-0.09,4.61-8.92,9.28-11.18  c1.07-0.52,2.27-0.29,3.08,0.43c0,0,0.01,0,0.01,0.01c0.07,0.06,0.13,0.13,0.19,0.19c0.01,0.01,0.01,0.01,0.02,0.02  c0.19,0.27,0.49,0.86,0.74,2.11c0.09,0.46,0.18,1.01,0.25,1.67c0.13,1.15,0.21,2.62,0.22,4.51v0.05c0,0.33,0,0.63,0.01,0.89  c0,1.31-0.05,2.82-0.2,4.51c-0.05,0.56-0.11,1.15-0.18,1.75c-0.49-0.14-0.79-0.21-0.79-0.21c-44.87-11.72-21.35,43.32,1.17,6.37  l0,0c0,0,0.01-0.02,0.03-0.06c0.13-0.21,0.25-0.42,0.38-0.63c7.93,2.93,11.76,6.48,31.81,27.49c0.01,0.02,0.04,0.04,0.06,0.07  c1.24,1.29,2.5,2.64,3.78,4.03v-15.59C-273.33,123.33-284.46,115.28-301.11,108.36z M-398.89,122.56c-0.22,0.08-0.65,0.15-1.2,0.12  c-0.01,0-0.03,0-0.04-0.01c-0.05,0-0.12,0-0.18-0.01c-0.16-0.01-0.32-0.03-0.49-0.06c-0.17-0.03-0.34-0.06-0.53-0.11  c-0.08-0.02-0.17-0.04-0.25-0.07c-0.21-0.06-0.41-0.13-0.63-0.22c-0.09-0.03-0.18-0.07-0.27-0.11c-0.08-0.03-0.16-0.07-0.23-0.11  c-0.09-0.04-0.19-0.1-0.29-0.15c-0.06-0.04-0.13-0.07-0.19-0.11c-0.09-0.05-0.18-0.1-0.27-0.17c-0.43-0.27-0.86-0.6-1.29-1  c-0.13-0.13-0.26-0.26-0.4-0.41c-0.33-0.35-0.65-0.75-0.96-1.2c-0.07-0.1-0.13-0.18-0.19-0.28c-0.19-0.3-0.39-0.63-0.58-0.97  c-0.09-0.17-0.18-0.35-0.27-0.54c-0.18-0.37-0.35-0.77-0.52-1.18c-0.16-0.42-0.32-0.86-0.47-1.34c-0.07-0.23-0.15-0.48-0.21-0.73  c-0.04-0.17-0.09-0.34-0.13-0.51c-0.03-0.14-0.07-0.28-0.1-0.44c-0.04-0.2-0.1-0.42-0.14-0.64v-0.01l9.84-5.99V122.56z   M-374.56,99.96L-374.56,99.96c-0.13,0-0.26-0.01-0.39-0.01c-0.08,0-0.17-0.01-0.26-0.02c-0.1,0-0.21-0.01-0.31-0.03  c-0.12-0.01-0.25-0.03-0.38-0.04c-0.03-0.01-0.05-0.01-0.08-0.01c-0.02-0.01-0.04-0.01-0.06-0.01c-0.09-0.01-0.19-0.03-0.28-0.04  c-0.08-0.02-0.16-0.03-0.23-0.04c-0.08-0.01-0.16-0.03-0.23-0.05c-0.13-0.03-0.26-0.05-0.38-0.09c-0.1-0.02-0.19-0.05-0.28-0.07  c-0.13-0.04-0.26-0.08-0.39-0.12c-0.15-0.04-0.29-0.09-0.43-0.14c-0.15-0.05-0.29-0.1-0.44-0.16c-0.2-0.07-0.39-0.16-0.59-0.25  c-0.13-0.05-0.26-0.12-0.39-0.18c-0.12-0.05-0.23-0.11-0.36-0.17c-0.12-0.06-0.25-0.13-0.37-0.2c-0.65-0.36-1.29-0.79-1.89-1.29  c-0.3-0.25-0.58-0.51-0.87-0.79c-0.14-0.14-0.28-0.28-0.42-0.43c-0.1-0.11-0.2-0.23-0.29-0.34c-0.1-0.12-0.19-0.23-0.29-0.36  c-0.09-0.11-0.17-0.22-0.26-0.34c0,0-0.01-0.01-0.01-0.02c-0.1-0.13-0.19-0.27-0.28-0.41v-0.01c-0.23-0.35-0.45-0.73-0.65-1.12  c0,0,0,0,0,0c-0.19-0.4-0.38-0.81-0.54-1.24c-0.08-0.22-0.16-0.45-0.23-0.67c-0.14-0.46-0.26-0.94-0.36-1.43  c-0.1-0.5-0.17-1.03-0.22-1.56c0.24-0.17,0.51-0.36,0.8-0.57c0.19-0.14,0.39-0.29,0.61-0.44c0.17-0.12,0.34-0.25,0.52-0.38  c0.1-0.07,0.19-0.14,0.29-0.22c0.07-0.05,0.13-0.1,0.2-0.14c0.23-0.18,0.48-0.36,0.73-0.55c0.25-0.19,0.5-0.38,0.76-0.58  c1.3-1,2.74-2.13,4.17-3.35c0.56-0.48,1.13-0.98,1.69-1.49c0.56-0.5,1.11-1.02,1.64-1.55c0.26-0.26,0.52-0.52,0.78-0.78l0.01-0.01  V99.96z M-340.86,99.96c0,0.16-0.37,0.21-0.99,0.13c-0.09-0.01-0.19-0.03-0.3-0.04c-0.48-0.08-1.08-0.24-1.75-0.47  c-0.14-0.05-0.3-0.1-0.46-0.16c-0.38-0.15-0.79-0.31-1.2-0.51c-0.17-0.08-0.33-0.16-0.51-0.24c-0.25-0.13-0.51-0.27-0.77-0.42  c-0.17-0.1-0.35-0.21-0.52-0.31c-0.34-0.22-0.7-0.45-1.04-0.7c-0.15-0.11-0.3-0.22-0.45-0.34c-0.02-0.01-0.04-0.04-0.07-0.05  c-0.13-0.1-0.26-0.21-0.38-0.32c-0.12-0.1-0.25-0.21-0.37-0.32c-0.02-0.02-0.04-0.04-0.07-0.06c-0.15-0.13-0.28-0.27-0.43-0.41  c-0.25-0.24-0.48-0.49-0.71-0.75c-0.11-0.13-0.23-0.26-0.34-0.39c-0.11-0.13-0.22-0.27-0.33-0.42c0,0,0,0,0,0  c-0.1-0.14-0.21-0.28-0.32-0.43c-0.1-0.15-0.2-0.3-0.3-0.45c-0.1-0.16-0.19-0.31-0.28-0.47c-0.1-0.16-0.18-0.32-0.27-0.49  c-0.17-0.33-0.34-0.68-0.49-1.03c-0.08-0.18-0.15-0.36-0.22-0.54c-0.07-0.19-0.13-0.37-0.2-0.56c-0.06-0.19-0.12-0.39-0.17-0.59  c-0.06-0.19-0.11-0.39-0.15-0.6c0,0,0,0,0,0c-0.04-0.19-0.08-0.39-0.12-0.59V88.4c0-0.01-0.01-0.03-0.01-0.04  c-0.04-0.21-0.07-0.42-0.1-0.63v0c0.25-0.12,0.53-0.25,0.82-0.4c0.2-0.11,0.4-0.22,0.62-0.33c0.22-0.12,0.45-0.25,0.68-0.38  c0.23-0.13,0.47-0.28,0.72-0.43c0.25-0.16,0.51-0.31,0.77-0.48c0.53-0.33,1.08-0.69,1.66-1.08c1.29-0.88,2.69-1.9,4.13-3.04  c1.28-1.01,2.59-2.12,3.9-3.31V99.96z M-305.66,112.75c-0.04,0.09-0.08,0.19-0.13,0.27c-0.1,0.2-0.19,0.4-0.3,0.59  c-0.03,0.06-0.06,0.12-0.1,0.18c-0.12,0.23-0.25,0.45-0.37,0.67c-0.01,0.01-0.01,0.03-0.03,0.04c-0.06,0.1-0.12,0.21-0.19,0.31  c-0.01,0.01-0.01,0.03-0.02,0.04c-0.12,0.19-0.23,0.38-0.36,0.56c-0.15,0.23-0.3,0.47-0.47,0.7c-0.09,0.13-0.18,0.25-0.27,0.37  c-0.09,0.13-0.19,0.26-0.28,0.38c-0.06,0.07-0.11,0.15-0.17,0.22c-0.16,0.2-0.31,0.39-0.47,0.59c-0.01,0.02-0.04,0.04-0.05,0.06  c-0.01,0.02-0.03,0.03-0.04,0.05c-0.19,0.22-0.37,0.43-0.56,0.63l-0.31,0.33c-2.51,2.25-4.75,3.66-6.69,4.43  c-0.01,0-0.01,0.01-0.01,0.01c-0.01,0-0.01,0.01-0.02,0.01h0c-2.69,1.07-4.81,0.91-6.25,0.05c0-0.01-0.01-0.01-0.01-0.01  c-0.01,0-0.02,0-0.02-0.01c-1.63-0.99-2.39-2.87-2.12-4.87c0-0.01,0.01-0.03,0.01-0.04c0.27-2.04,1.6-4.2,4.12-5.65  c0.01-0.01,0.01-0.01,0.03-0.01c0.99-0.57,2.16-1.02,3.53-1.32c2.06-0.38,4.13-0.41,5.94-0.28c0.13,0.01,0.25,0.02,0.38,0.03  c0.03,0,0.06,0,0.08,0c3.16,0.27,5.45,0.98,5.45,0.98C-305.45,112.3-305.55,112.53-305.66,112.75z"></path>	<g>		<path class="st3" d="M-384.12,121.06h-5.25h-0.44h-0.84v0.38c-0.23-0.25-0.48-0.38-0.74-0.38c-0.37,0-0.65,0.2-0.84,0.59   c-0.27-0.39-0.55-0.59-0.86-0.59h-0.53h-0.49h-0.06c0.02-0.47,0.21-0.82,0.54-1.06c0.31-0.22,0.7-0.33,1.18-0.33   c0.59,0,1.34,0.29,2.26,0.87l0.41-0.54c-0.53-0.35-0.96-0.59-1.29-0.74c-0.47-0.21-0.93-0.31-1.38-0.31   c-0.71,0-1.28,0.17-1.72,0.52c-0.48,0.37-0.73,0.9-0.76,1.58h-0.56v0.68h0.56v4h0.76v-4h0.06h0.29h0.12h0.08h0.02   c0.61,0,0.91,0.2,0.91,0.58c0,0.45-0.14,0.68-0.42,0.68c-0.13,0-0.31-0.14-0.56-0.43v0.87c0.16,0.26,0.37,0.38,0.65,0.38   c0.34,0,0.61-0.17,0.82-0.52c0.23,0.33,0.46,0.5,0.7,0.5c0.26,0,0.48-0.1,0.67-0.3v-0.85c-0.27,0.21-0.45,0.31-0.54,0.31   c-0.26,0-0.39-0.2-0.39-0.6c0-0.14,0.05-0.26,0.15-0.37c0.1-0.1,0.22-0.15,0.36-0.15c0.18,0,0.33,0.09,0.46,0.28   c0.12,0.17,0.17,0.34,0.17,0.54v3.11h0.74v-4.02h0.07h0.42v0.44c0.3,0,0.49,0.01,0.57,0.04c0.17,0.05,0.27,0.16,0.29,0.33   c-0.23,0.03-0.41,0.11-0.55,0.25c-0.14,0.14-0.21,0.32-0.21,0.54c0,0.21,0.07,0.39,0.22,0.55c0.15,0.18,0.33,0.26,0.53,0.24   l0.21-0.01l0.23-0.59c-0.27-0.01-0.4-0.06-0.4-0.14c0-0.11,0.09-0.17,0.27-0.17c0.19,0,0.36,0.07,0.51,0.21   c0.15,0.14,0.23,0.31,0.23,0.5c0,0.02,0,0.05-0.01,0.1c-0.26,0-0.49,0.08-0.7,0.22c-0.25,0.16-0.37,0.36-0.37,0.6   c0,0.25,0.09,0.47,0.27,0.67c0.18,0.2,0.39,0.29,0.64,0.28l0.17-0.01l0.29-0.6c-0.38-0.03-0.57-0.14-0.57-0.32   c0-0.13,0.16-0.2,0.47-0.2c0.24,0,0.48,0.13,0.73,0.38c0.19,0.2,0.35,0.44,0.48,0.71h0.71v-2.58c0.18,0.03,0.3,0.05,0.36,0.07   c0.14,0.05,0.21,0.14,0.21,0.26c0,0.19-0.15,0.28-0.45,0.29v0.74h0.29c0.28,0.01,0.51-0.08,0.68-0.29   c0.16-0.19,0.23-0.43,0.23-0.72c0-0.37-0.14-0.64-0.42-0.81c-0.19-0.12-0.49-0.2-0.9-0.26v-0.72h1.25h0.38h0.28v4.02h0.74v-4.02   h0.6v-0.68h-1.62H-384.12z M-386.12,124.59c-0.19-0.22-0.42-0.4-0.7-0.54c-0.01-0.34-0.1-0.64-0.26-0.9   c-0.18-0.29-0.42-0.48-0.73-0.59c0.01-0.36-0.16-0.64-0.51-0.83h1.16c0,0.09,0,0.17,0,0.26c0,0.36,0.08,0.64,0.25,0.84   c0.18,0.23,0.45,0.33,0.8,0.32V124.59z M-386.12,122.44h-0.06c-0.1,0-0.18-0.04-0.24-0.13c-0.06-0.09-0.09-0.18-0.09-0.29   c0-0.1,0.04-0.19,0.11-0.28h0.29V122.44z"></path>		<path class="st3" d="M-374.45,123.19c0-0.44-0.21-0.79-0.62-1.07c-0.36-0.24-0.76-0.36-1.21-0.36c-0.38,0-0.72,0.08-1.01,0.23   c-0.37,0.2-0.55,0.48-0.55,0.85c0,0.25,0.09,0.45,0.27,0.6c0.18,0.15,0.39,0.23,0.65,0.24l0.46-0.62   c-0.35-0.01-0.53-0.09-0.53-0.23c0-0.25,0.25-0.37,0.74-0.37c0.27,0,0.5,0.06,0.68,0.19c0.21,0.15,0.31,0.35,0.31,0.61   c0,0.31-0.25,0.55-0.74,0.72c-0.36,0.12-0.72,0.18-1.1,0.18c-0.14,0-0.4-0.02-0.8-0.08l0.32,0.98c0.44,0.01,0.97,0.15,1.59,0.42   c0.55,0.24,1.05,0.51,1.49,0.83l0.48-0.5c-0.66-0.47-1.3-0.83-1.93-1.1C-374.95,124.41-374.45,123.9-374.45,123.19z"></path>		<path class="st3" d="M-372.88,121.06h-1.2h-0.42h-3.15h-0.61h-0.31c-1.03,0.93-1.54,1.78-1.54,2.57c0,1.45,0.48,2.18,1.43,2.18   c0.2,0,0.42-0.07,0.66-0.2l-0.25-0.68c-0.19,0.12-0.33,0.17-0.44,0.17c-0.25,0-0.44-0.16-0.57-0.47c-0.1-0.24-0.15-0.49-0.15-0.77   c0-0.52,0.17-0.98,0.51-1.39c0.32-0.39,0.72-0.63,1.19-0.72h3.23h0.42h0.24v4.02h0.74v-4.02h0.22h0.38h2.11v0.08l-1.16,0.67   c-0.47,0.27-0.86,0.51-1.17,0.73l0.21,0.78c0.86,0.02,1.59,0.61,2.19,1.76h0.67v-3.23c0.71,0.08,1.07,0.31,1.07,0.68   c0,0.3-0.16,0.45-0.47,0.45c-0.1,0-0.23,0-0.38,0v0.71c0.13,0.02,0.2,0.03,0.23,0.03c0.37,0,0.67-0.1,0.92-0.31   c0.27-0.22,0.41-0.51,0.41-0.86c0-0.42-0.2-0.76-0.6-1.04c-0.34-0.24-0.73-0.37-1.18-0.4v-0.06h2.13v-0.68h-4.99H-372.88z    M-370.39,124.59c-0.52-0.59-0.89-0.96-1.11-1.1c0.54-0.48,0.91-0.76,1.11-0.85V124.59z"></path>		<path class="st3" d="M-352.62,126.05c0.34,0.08,0.69,0.2,1.04,0.36l0.32-0.56c-0.4-0.26-0.81-0.41-1.22-0.47L-352.62,126.05z"></path>		<path class="st3" d="M-354.25,121.06h-1.21h-0.41h-4.97h-0.43h-4.67v0.68h0.42v0.47c0.23,0,0.38,0,0.46,0   c0.22-0.01,0.39,0,0.5,0.04c0.12,0.04,0.23,0.15,0.36,0.31c0.12,0.17,0.18,0.31,0.18,0.43c-0.4-0.01-0.74,0.1-1.01,0.33   c-0.29,0.24-0.44,0.56-0.44,0.95c0,0.33,0.13,0.61,0.38,0.84c0.25,0.23,0.54,0.35,0.87,0.35c0.23,0,0.51-0.09,0.86-0.26   l-0.22-0.71c-0.3,0.13-0.5,0.2-0.59,0.2c-0.12,0-0.23-0.04-0.33-0.13c-0.11-0.09-0.16-0.19-0.16-0.3c0-0.15,0.08-0.28,0.24-0.38   c0.14-0.09,0.29-0.14,0.45-0.14c0.33,0,0.72,0.17,1.16,0.5c0.47,0.36,0.7,0.69,0.7,1.01v0.5h0.74v-4.02h0.11h0.43h1.49   c-0.29,0.41-0.44,0.79-0.44,1.14c0,0.32,0.08,0.58,0.25,0.78c0.17,0.21,0.4,0.31,0.71,0.31c0.28,0,0.54-0.11,0.79-0.34   c0.03,0.08,0.05,0.16,0.05,0.25c0,0.28-0.1,0.49-0.31,0.65c-0.18,0.14-0.42,0.21-0.7,0.21c-0.11,0-0.36-0.1-0.75-0.29   c-0.33-0.45-0.57-0.9-0.73-1.35l-0.48,0.46c0.31,0.63,0.56,1.1,0.74,1.4c0.32,0.2,0.52,0.31,0.59,0.35   c0.23,0.11,0.45,0.17,0.66,0.17c1.15,0,1.72-0.55,1.72-1.64c0-0.43-0.08-0.75-0.23-0.98h-0.66c-0.15,0.27-0.36,0.41-0.66,0.41   c-0.17,0-0.26-0.11-0.26-0.34c0-0.39,0.22-0.76,0.66-1.1c0.11,0.33,0.33,0.6,0.67,0.83c0.3,0.2,0.63,0.33,1,0.39   c-0.2,0.67-0.3,1.2-0.3,1.58c0,0.5,0.15,0.96,0.44,1.4l0.56-0.3c-0.2-0.28-0.3-0.75-0.3-1.4c0-0.3,0.16-0.77,0.48-1.43l-0.47-0.59   c-0.1,0.01-0.19,0.02-0.28,0.02c-0.51,0-0.85-0.19-1.02-0.56h1.73h0.41h0.26v4.02h0.74v-4.02h0.21h0.39h0.04v0.56   c0.31,0.01,0.61,0.08,0.91,0.2c0.33,0.13,0.58,0.3,0.76,0.52l-1.68,0.72l0.21,0.74c1.41,0.32,2.44,0.75,3.09,1.28h0.68v-4.02h0.47   v-0.68h-4.47H-354.25z M-362.11,123.95c-0.38-0.42-0.74-0.69-1.08-0.83c-0.03-0.54-0.32-1-0.89-1.38h1.97V123.95z M-350.6,121.74   v3.12c-0.49-0.3-1.09-0.59-1.8-0.87l1.07-0.5v-0.69c-0.19-0.32-0.62-0.67-1.29-1.06H-350.6z"></path>		<path class="st3" d="M-335.73,121.06h-0.39h-1.21h-0.41h-4.97h-0.43h-4.67v0.68h0.42v0.47c0.23,0,0.38,0,0.46,0   c0.22-0.01,0.39,0,0.5,0.04c0.12,0.04,0.23,0.15,0.36,0.31c0.12,0.17,0.18,0.31,0.18,0.43c-0.4-0.01-0.74,0.1-1.01,0.33   c-0.29,0.24-0.44,0.56-0.44,0.95c0,0.33,0.13,0.61,0.38,0.84c0.25,0.23,0.54,0.35,0.87,0.35c0.23,0,0.51-0.09,0.86-0.26   l-0.22-0.71c-0.3,0.13-0.5,0.2-0.59,0.2c-0.12,0-0.23-0.04-0.33-0.13c-0.11-0.09-0.16-0.19-0.16-0.3c0-0.15,0.08-0.28,0.24-0.38   c0.14-0.09,0.29-0.14,0.45-0.14c0.33,0,0.72,0.17,1.16,0.5c0.47,0.36,0.7,0.69,0.7,1.01v0.5h0.74v-4.02h0.11h0.43h1.49   c-0.29,0.41-0.44,0.79-0.44,1.14c0,0.32,0.08,0.58,0.25,0.78c0.17,0.21,0.4,0.31,0.71,0.31c0.28,0,0.54-0.11,0.79-0.34   c0.03,0.08,0.05,0.16,0.05,0.25c0,0.28-0.1,0.49-0.31,0.65c-0.18,0.14-0.42,0.21-0.7,0.21c-0.11,0-0.36-0.1-0.75-0.29   c-0.33-0.45-0.57-0.9-0.73-1.35l-0.48,0.46c0.31,0.63,0.56,1.1,0.74,1.4c0.32,0.2,0.52,0.31,0.59,0.35   c0.23,0.11,0.45,0.17,0.66,0.17c1.15,0,1.72-0.55,1.72-1.64c0-0.43-0.08-0.75-0.23-0.98h-0.66c-0.15,0.27-0.36,0.41-0.66,0.41   c-0.17,0-0.26-0.11-0.26-0.34c0-0.39,0.22-0.76,0.66-1.1c0.11,0.33,0.33,0.6,0.67,0.83c0.3,0.2,0.63,0.33,1,0.39   c-0.2,0.67-0.3,1.2-0.3,1.58c0,0.5,0.15,0.96,0.44,1.4l0.56-0.3c-0.2-0.28-0.3-0.75-0.3-1.4c0-0.3,0.16-0.77,0.48-1.43l-0.47-0.59   c-0.1,0.01-0.19,0.02-0.28,0.02c-0.51,0-0.85-0.19-1.02-0.56h1.73h0.41h0.26v4.02h0.74v-4.02h0.21h0.39h0.04v0.56   c0.31,0.01,0.61,0.08,0.91,0.2c0.33,0.13,0.58,0.3,0.76,0.52l-1.68,0.72l0.21,0.74c1.41,0.32,2.44,0.75,3.09,1.28h0.68v-4.02h0.47   v-0.68H-335.73z M-343.98,123.95c-0.38-0.42-0.74-0.69-1.08-0.83c-0.03-0.54-0.32-1-0.89-1.38h1.97V123.95z M-332.46,124.85   c-0.49-0.3-1.09-0.59-1.8-0.87l1.07-0.5v-0.69c-0.19-0.32-0.62-0.67-1.29-1.06h2.02V124.85z"></path>		<path class="st3" d="M-334.48,126.05c0.34,0.08,0.69,0.2,1.04,0.36l0.32-0.56c-0.4-0.26-0.81-0.41-1.22-0.47L-334.48,126.05z"></path>	</g></g></svg>