<svg xmlns="http://www.w3.org/2000/svg" xmlns:xlink="http://www.w3.org/1999/xlink" id="Layer_1" x="0px" y="0px" viewBox="0 0 974.79 1200" style="enable-background:new 0 0 974.79 1200;" xml:space="preserve"><style type="text/css">	.st0{fill:#0071DC;}	.st1{fill:#FF8B00;}	.st2{fill:none;}	.st3{fill:#252525;}</style><path class="st0" d="M628.16,0c34.05,34.35,68.09,68.73,102.17,103.05c15.96,16.07,31.69,32.39,48.18,47.91 c6.61,6.22,9.15,12.66,8.58,21.48c-0.65,10.05-0.15,20.17-0.15,31c-61.88,0-123,0-185.13,0c0-55.43,0-111.07,0-167.47 c-101.51,0-202,0-303.1,0c0,213.12,0,426.14,0,639.8c150.65,0,300.83,0,452.38,0c0-144.39,0-288.6,0-433.46c12.44,0,23.53,0,35.37,0 c0,6.54,0,12.67,0,19.89c3.99,0.23,7.32,0.58,10.65,0.58c38.66,0.04,77.33-0.02,115.99,0.04c40.13,0.06,61.67,21.42,61.68,61.33 c0.04,195.66,0.04,391.32,0,586.98c-0.01,41.57-22.14,63.62-63.62,63.62c-105.84,0.01-211.67,0-317.51,0c-4.21,0-8.42,0-13.05,0 c0,38.44,0,75.82,0,114.98c6.78,0,13.6-0.15,20.41,0.03c29.95,0.78,50.95,19.54,53.47,49.52c1.69,20.15,1.29,40.47,1.82,60.72 c-112.5,0-225,0-337.5,0c0.14-17.56,0.12-35.12,0.47-52.68c0.67-34.2,23.39-56.84,57.6-57.59c5.71-0.12,11.43-0.02,16.72-0.02 c0-39.16,0-76.82,0-114.96c-5.04,0-9.3,0-13.55,0c-105.82,0-211.65,0.06-317.47-0.03c-38.42-0.03-62.49-23.83-62.5-61.79 c-0.06-197.2-0.06-394.4,0.01-591.6C0.07,289.07,19.02,266,51.08,263.9c32.55-2.13,65.34-0.47,98.59-0.47c0,11.46,0,22.56,0,34.64 c-28.8,0-57.2-0.05-85.59,0.01c-22.2,0.05-28.82,6.6-28.82,28.33c-0.01,162.45,0,324.89,0,487.34c0,4.13,0,8.25,0,12.21 c14.16,0,26.8,0,40.48,0c0-163.05,0-325.28,0-488.59c37.92,0,74.78,0,112.53,0c0-87.96,0-174.85,0-262.72c25.33,0,49.74,0,74.28,0 c0-25.55,0-50.1,0-74.66C384.41,0,506.28,0,628.16,0z M110.8,826.18c251.4,0,501.92,0,752.88,0c0-151.09,0-301.56,0-452.18 c-25.86,0-50.98,0-77.08,0c0,112.72,0,224.63,0,337.8c-25.33,0-49.7,0-75.28,0c0,25.62,0,49.99,0,74.25c-175.19,0-349.14,0-523.84,0 c0-137.81,0-274.77,0-412.24c-25.91,0-51.06,0-76.69,0C110.8,524.67,110.8,674.91,110.8,826.18z M35.95,862.49 c-0.37,1.84-0.65,2.58-0.65,3.31c-0.04,13.67-0.06,27.34-0.06,41.01c0,26.2,6.41,32.69,32.3,32.69c280.43,0,560.86,0,841.29,0 c2.73,0,5.47,0.11,8.2-0.02c13.27-0.63,21.15-6.54,21.87-19.56c1.05-18.95,0.27-38.01,0.27-57.43 C637.69,862.49,337.08,862.49,35.95,862.49z M223.65,110.67c0,214.02,0,427,0,640.09c151.13,0,301.57,0,452.25,0 c0-13.23,0-25.58,0-39.24c-137.79,0-275.02,0-413.26,0c0-201.03,0-400.74,0-600.85C249.24,110.67,236.87,110.67,223.65,110.67z  M938.88,826.28c0.37-2.1,0.62-2.86,0.62-3.63c0.03-167.18,0.08-334.35-0.02-501.53c-0.01-16.11-6.79-22.9-22.9-22.99 c-41.4-0.23-82.81-0.08-124.21-0.04c-1.48,0-2.95,0.41-4.84,0.68c0,13.06,0,25.7,0,39.49c37.48,0,74.36,0,112.46,0 c0,163.37,0,325.6,0,488.03C913.59,826.28,925.92,826.28,938.88,826.28z M430.31,975.18c0,38.43,0,76.06,0,113.93 c38.32,0,75.97,0,113.78,0c0-38.24,0-75.87,0-113.93C506.17,975.18,468.82,975.18,430.31,975.18z M619.64,1164.32 c0-7.39,0.47-14.36-0.1-21.24c-0.99-11.81-6.97-17.95-18.77-17.98c-74.88-0.22-149.75-0.22-224.63,0 c-12.22,0.04-19.75,6.54-21.11,17.62c-0.87,7.11-0.16,14.42-0.16,21.6C443.77,1164.32,531.43,1164.32,619.64,1164.32z  M741.57,168.43c-34.64-34.66-69.95-69.99-104.55-104.6c0,33.54,0,68.83,0,104.6C672.86,168.43,708.22,168.43,741.57,168.43z"></path><path class="st0" d="M466.61,489.07c0,42.97,0,85.28,0,128.09c-11.36,0-22.13,0-34.23,0c0-12.03,0-23.84,0-36.31 c-13.94,0-26.55,0-40.09,0c0,12.02,0,23.59,0,35.98c-11.95,0-22.99,0-34.78,0c0-42.4,0-84.66,0-127.76 C393.53,489.07,429.6,489.07,466.61,489.07z M431.58,524.53c-14.01,0-26.6,0-39,0c0,7.11,0,13.19,0,19.47c13.32,0,25.98,0,39,0 C431.58,537.14,431.58,531.01,431.58,524.53z"></path><path class="st0" d="M357.56,244.52c112.73,0,224.59,0,337.07,0c0,11.63,0,22.74,0,34.33c-112.48,0-224.39,0-337.07,0 C357.56,267.67,357.56,256.58,357.56,244.52z"></path><path class="st0" d="M694.77,319.69c0,11.66,0,22.44,0,34c-112.48,0-224.6,0-337.36,0c0-11.26,0-22.34,0-34 C469.84,319.69,581.7,319.69,694.77,319.69z"></path><path class="st0" d="M563.3,169.43c0,11.73,0,22.58,0,34.1c-68.6,0-136.97,0-205.91,0c0-11.43,0-22.5,0-34.1 C426.01,169.43,494.04,169.43,563.3,169.43z"></path><path class="st0" d="M694.83,583.14c0,11.27,0,22.05,0,33.74c-30.68,0-61.28,0-92.85,0c0-10.68,0-21.74,0-33.74 C632.24,583.14,662.82,583.14,694.83,583.14z"></path><path class="st0" d="M694.66,541.85c-18.65,0-36.69,0-55.29,0c0-11.56,0-22.58,0-34.17c18.64,0,36.64,0,55.29,0 C694.66,519.01,694.66,529.74,694.66,541.85z"></path><path class="st0" d="M507.69,128.6c0-11.59,0-22.66,0-34.28c12.39,0,24.23,0,36.58,0c0,11.53,0,22.67,0,34.28 C531.97,128.6,520.11,128.6,507.69,128.6z"></path><path class="st0" d="M432.57,94.12c12.73,0,24.35,0,36.46,0c0,11.49,0,22.67,0,34.41c-12.11,0-23.97,0-36.46,0 C432.57,117.2,432.57,106.14,432.57,94.12z"></path><path class="st0" d="M393.96,94.39c0,11.97,0,22.78,0,34.14c-12.25,0-24.11,0-36.58,0c0-11.42,0-22.48,0-34.14 C369.62,94.39,381.47,94.39,393.96,94.39z"></path><path class="st0" d="M470.27,883.48c12.24,0,23.83,0,36.21,0c0,11.29,0,22.31,0,34.13c-11.77,0-23.56,0-36.21,0 C470.27,906.79,470.27,895.77,470.27,883.48z"></path></svg>