<svg xmlns="http://www.w3.org/2000/svg" xmlns:xlink="http://www.w3.org/1999/xlink" id="Layer_1" x="0px" y="0px" viewBox="0 0 1200 1200" style="enable-background:new 0 0 1200 1200;" xml:space="preserve"><style type="text/css">	.st0{fill:#0071DC;}	.st1{fill:#FF8B00;}	.st2{fill:none;}	.st3{fill:#252525;}</style><path class="st0" d="M953.91,1200c-18.92-15.03-20.12-24.61-5.52-45.17c54.85-77.3,109.36-154.85,164.74-231.77 c27.19-37.77,40.41-79.04,40.18-125.6c-0.57-115.6-0.17-231.2-0.2-346.81c-0.01-20.05-8.83-32.75-24.73-36.02 c-18.18-3.73-34.44,7.35-37.69,25.99c-0.8,4.57-0.73,9.33-0.73,14c-0.04,91-0.34,182,0.1,272.99 c0.23,46.77-15.14,87.04-46.99,121.05c-35.76,38.2-71.66,76.27-107.61,114.29c-10.19,10.78-21.14,13.12-31.29,7.26 c-10.13-5.85-13.98-15.07-10.82-25.8c1.76-5.98,6.29-11.55,10.68-16.28c34.57-37.17,69.46-74.05,104.15-111.11 c14.69-15.69,16.68-34.98,5.65-51.23c-9.88-14.55-29.81-21.7-44.25-12.13c-58.64,38.84-121.71,72.27-163.74,132.03 c-28.15,40.02-44.13,84.53-53.59,132.05c-10.57,53.11-22.11,106.03-32.96,159.08c-2.28,11.16-8.67,18.37-18.51,23.16 c-3.91,0-7.81,0-11.72,0c-16.62-10.18-19.38-17.04-15.1-36.76c14.36-66.22,26.91-132.9,43.49-198.56 c17.92-70.97,57.82-129.39,115.36-174.34c33.73-26.35,69.91-49.66,105.81-73.09c33.09-21.6,68.74-18.61,99.66,6.2 c1.08,0.87,2.23,1.67,4.76,3.56c0-5.5,0-9.25,0-13c0-88.25-0.08-176.5,0.04-264.75c0.05-38.35,20.77-67.88,54.59-78.62 c40.59-12.89,83.58,8.93,97.79,49.54c1.08,3.07,3.01,5.85,4.54,8.76c0,136.72,0,273.44,0,410.16c-1.39,3.79-3.4,7.47-4.07,11.38 c-6,34.88-20.67,65.97-41.01,94.6c-56.47,79.5-112.88,159.05-169.62,238.36c-4.57,6.39-11.5,11.1-17.33,16.59 C963.28,1200,958.59,1200,953.91,1200z"></path><path class="st0" d="M496.88,1200c-9.93-6.6-14.52-15.88-16.94-27.64c-12.54-61.04-25.08-122.1-39.05-182.82 c-17.69-76.92-61.64-136.12-126.27-180.46c-24.75-16.98-49.79-33.52-74.75-50.19c-18.93-12.64-37.95-11.46-50.68,3.01 c-13.99,15.9-13.12,38.28,2.49,54.97c34.67,37.07,69.53,73.95,104.15,111.06c4.19,4.49,8.84,9.47,10.63,15.07 c3.17,9.92,0.87,19.45-8.43,25.8c-8.99,6.14-18.31,6.35-27.03-0.4c-4.58-3.55-8.61-7.87-12.61-12.11 c-32.72-34.61-65.16-69.49-98.11-103.89c-34.04-35.54-50.76-77.32-50.4-126.79c0.67-90.58,0.21-181.17,0.14-271.76 c0-5.04-0.14-10.2-1.18-15.11c-3.3-15.62-16.64-25.7-32.16-24.82c-15.54,0.88-27.77,12.4-29.52,28.09 c-0.47,4.25-0.28,8.58-0.28,12.87c-0.01,112.84,0.58,225.69-0.29,338.52c-0.38,49.06,12.28,92.94,42.11,131.98 c10.88,14.24,20.94,29.12,31.08,43.92c9.72,14.19,8.13,27.67-3.79,35.97c-11.2,7.8-24.83,4.61-34.2-8.87 c-18.24-26.23-37.99-51.68-53.4-79.5c-11.11-20.06-16.23-43.44-24.02-65.34c-1.48-4.16-2.92-8.34-4.38-12.51c0-137.5,0-275,0-412.5 c1.51-2.05,3.57-3.88,4.44-6.17c14.74-38.83,49.92-59.32,89.75-52.12c36.37,6.58,62.59,39.37,62.69,79.54 c0.23,88.66,0.07,177.33,0.07,265.99c0,3.79,0,7.57,0,9.1c15.04-6.16,29.74-13.79,45.36-18.15c17.46-4.87,35.83-2.11,50.7,7.93 c43.9,29.62,89.05,58,129.7,91.71c58.01,48.11,91.1,112.79,107.03,186.11c12.65,58.25,24.67,116.64,36.93,174.97 c3.64,17.3,0.16,24.78-15.75,34.53C506.25,1200,501.56,1200,496.88,1200z"></path><path class="st0" d="M229.69,1200c-15.56-20.5-31.75-40.56-46.43-61.67c-7.09-10.2-3.26-23.32,6.07-30.16 c9.84-7.21,23.17-6.35,31.34,4.13c13.16,16.87,25.74,34.29,37.14,52.38c8.7,13.79,2.91,26.34-14.06,35.32 C239.06,1200,234.38,1200,229.69,1200z"></path><path class="st0" d="M604.69,0c14.99,5.92,20.07,17.34,18.85,32.77c-0.61,7.73,0.1,15.55-0.16,23.32 c-0.5,15.09-9.93,25.48-23.06,25.76c-13,0.28-23.14-10.21-23.67-25.1c-0.37-10.48,0.18-21-0.15-31.49 c-0.35-11.4,7.26-18.05,14.12-25.26C595.31,0,600,0,604.69,0z"></path><path class="st0" d="M396.87,692.52c2.66,0.28,4.17,0.57,5.68,0.57c12.86,0.04,25.72,0.02,40.41,0.02c0-10.72-0.01-21.05,0-31.38 c0-5.47-0.24-10.95,0.11-16.4c0.92-14.25,10.88-24.25,23.65-24.11c12.68,0.15,22.59,10.35,23.01,24.72 c0.44,15.2,0.1,30.43,0.1,47.17c7.35,0,14.23-0.18,21.1,0.04c16.06,0.5,25.72,8.88,26.16,22.45c0.45,13.92-9.37,23.74-25.63,24.29 c-16.78,0.57-33.59,0.14-50.38,0.14c-26.95,0-53.9,0.1-80.85-0.03c-21.79-0.11-30.59-8.87-30.66-30.43 c-0.1-28.12-0.02-56.24-0.02-85.34c-2.94-0.25-5.87-0.7-8.79-0.7c-30.86-0.05-61.71,0.03-92.57-0.06 c-20.41-0.06-30.19-8.76-29.24-29.13c1.19-25.54,0.46-52.22,7.8-76.19c11.96-39.04,42.67-60.99,82.17-70.35 c9.85-2.33,19.67-4.83,29.56-7.01c9.53-2.1,8.25-6.59,2.84-11.97c-3.03-3.02-6.52-5.58-9.57-8.59 c-16.33-16.11-27.68-35.28-29.62-58.21c-2.92-34.53-6.24-69.47,4.2-103.36c20.12-65.28,101.76-92.81,157.47-53.61 c2.86,2.01,5.73,3.99,9.23,6.44c26.07-52.88,67.4-84.4,126.99-84.4c59.55,0,101.36,30.75,127.37,84.49 c20.67-16.12,43.42-25.14,69.4-24.48c52.96,1.34,96.02,38.79,101.34,91.66c2.83,28.13,1.69,56.92-0.47,85.2 c-1.92,25.08-15.95,45.11-34.68,61.76c-3.18,2.83-5.09,7.09-7.58,10.69c3.87,1.92,7.58,4.26,11.62,5.69 c21.87,7.77,45.74,12.08,65.33,23.66c33.61,19.88,48.01,53.05,49.25,91.74c0.41,12.88,0.35,25.78,0.02,38.66 c-0.45,18.2-9.6,27.21-27.77,27.31c-30.47,0.17-60.93,0.05-91.4,0.05c-3.8,0-7.61,0-11.96,0c0,29.2,0.05,57.24-0.01,85.29 c-0.05,22.43-8.65,31.15-31.08,31.2c-42.97,0.1-85.93,0.06-128.9-0.05c-4.25-0.01-8.59-0.51-12.71-1.51 c-11.07-2.68-17.67-11.85-17.16-23.21c0.5-11.05,8.31-19.92,19.44-21.46c5-0.69,10.12-0.54,15.19-0.65c4.6-0.1,9.21-0.02,14.91-0.02 c0-15.28-0.11-29.62,0.03-43.96c0.17-16.93,9.52-27.96,23.4-27.91c13.93,0.04,23.25,11.01,23.43,27.91 c0.15,14.34,0.03,28.67,0.03,43.48c15.82,0,30.48,0,47.7,0c-1.31-27.68,0.35-55.32-4.56-81.74c-7.16-38.52-33.16-62.58-70.85-73 c-20.98-5.8-42.34-10.28-64.63-15.62c-9.02,20.31-17.98,40.43-26.89,60.57c-4.88,11.03-9.8,22.04-14.47,33.17 c-4.44,10.58-11.34,17.76-23.57,17.59c-12.21-0.17-18.7-7.7-23.23-18.15c-12.21-28.21-24.72-56.3-37.11-84.44 c-1.22-2.78-2.48-5.54-4.17-9.32c-26.06,6.78-52.45,11.24-76.98,20.59c-38.01,14.51-58.47,44.41-61.16,85.03 C395.7,648.62,396.87,670.12,396.87,692.52z M686.49,246.33c0.43,0.55,0.86,1.1,1.29,1.64c-0.09-0.9-0.19-1.8-0.28-2.71 c-6.95-45.06-52.92-77.48-99.94-70.49c-46.29,6.88-81.83,50.03-75.69,91.86c44.64,2.82,75.49-0.02,109.31-36.21 c9.06-9.69,18.21-9.88,30.76-3.1C663.51,233.57,674.98,239.99,686.49,246.33z M646.1,278.28c-23.87,11.25-43.93,24.05-65.86,30.12 c-22.03,6.1-45.91,5.49-69.17,7.84c0,10.04-0.66,20.94,0.12,31.73c2.68,37.23,32.15,70.35,69.37,78.62 c37.26,8.29,76.36-8.66,96.02-40.21c15.48-24.85,13.8-52.07,13.32-79.26c-0.04-2.22-3.29-4.99-5.7-6.45 C670.58,292.43,656.75,284.5,646.1,278.28z M732.16,488.85c0.81,0.53,1.67,1.45,2.7,1.71c46.58,11.56,81.52,37.63,102.28,81.62 c0.93,1.97,3.89,4.24,5.92,4.26c30.31,0.27,60.63,0.19,90.79,0.19c4.8-48.1-13.45-73.82-58.65-84.39 c-12.52-2.93-25.09-5.68-37.43-9.26c-7.68-2.23-16.73-4.1-21.91-9.36c-5.33-5.41-6.7-14.73-10.14-23.15c-6.6,0-14.69,0-23.31,0 C783.81,487.38,751.64,479.44,732.16,488.85z M266.28,576.64c28.68,0,56.73-0.27,84.76,0.18c7.23,0.12,10.96-2.01,14.19-8.62 c18.25-37.33,47.71-61.75,87.41-73.88c2.6-0.8,5.25-1.48,7.82-2.36c2.53-0.86,4.99-1.91,7.86-3.02c-20.96-9.2-52.45-2.15-50.65-38.2 c-9.34,0-17.38,0-25.34,0c-1.84,22.33-5.92,26.97-27.28,32.01c-15.53,3.66-31.07,7.31-46.53,11.25 C279.07,504.05,262.77,529.37,266.28,576.64z M465.67,320.03c-1.15-0.63-2.3-1.27-3.45-1.9c-36.65,15.99-75.36,17.66-114.15,16.59 c-3.55,32.9,12.5,58.03,41.67,66.68c26.42,7.84,56.69-4.48,66.95-30.77C462.8,354.98,462.88,336.97,465.67,320.03z M852.84,334.69 c-39.52,1.34-77.91-1.07-114.63-16.2c-5.17,52.03,15.62,83.73,54.49,84.95C829.38,404.59,854.09,377.12,852.84,334.69z  M457.31,268.18c-9.88-24.2-34.05-37.49-61.36-33.75c-25.58,3.5-44.89,24.6-48.01,52.46C383.75,292.16,430.68,284.13,457.31,268.18z  M852.52,287.64c-3.56-29.08-22.98-50-48.55-53.24c-27.54-3.49-51.98,10.19-61,34.31C777.11,287.37,814.14,289.09,852.52,287.64z  M600.38,549.84c8.36-25.87,28.26-47.19,27.53-75.18c-19.23,0-36.93,0-55.89,0C572.22,502.97,590.94,524.45,600.38,549.84z  M482.17,418.92c0.9-1.43,1.81-2.86,2.71-4.28c-5.79,5.07-12.08,9.71-17.09,15.46c-1.56,1.79-0.39,9.3,0.8,9.63 c16.85,4.7,33.91,8.6,50.92,12.7c0.24-0.53,0.49-1.06,0.73-1.59C507.55,440.2,494.86,429.56,482.17,418.92z M715.56,414.82 c0.8,1.27,1.6,2.54,2.4,3.82c-12.4,11.94-24.8,23.89-34.32,33.06c12.55-2.99,30.38-6.76,47.89-11.68c6.62-1.86,4.87-6.92,0.67-10.7 C726.74,424.39,721.11,419.64,715.56,414.82z"></path><path class="st0" d="M472.2,45.04c14.91-0.29,48.8,34.24,48.08,48.98c-0.86,17.34-20.93,28.8-34.76,18.36 c-12.26-9.25-23.62-20.57-32.71-32.94C442.68,65.67,455.01,45.37,472.2,45.04z"></path><path class="st0" d="M703.81,116.82c-18.1,0.31-31.34-19.96-21.33-33.69c9.44-12.95,21.75-24.24,34.37-34.28 c7.76-6.17,18.01-3.76,25.63,3.24c7.21,6.62,11.58,16.85,5.94,24.11c-11.01,14.15-24.83,26.15-37.78,38.73 C708.96,116.57,705.52,116.39,703.81,116.82z"></path><path class="st0" d="M623.35,716.48c-0.08,12.2-10.93,23.1-23.15,23.24c-12.62,0.15-23.97-11.4-23.56-23.97 c0.4-12.38,11.17-22.55,23.7-22.38C612.87,693.54,623.43,704.14,623.35,716.48z"></path><path class="st0" d="M154.31,1035.56c13.29-0.03,23.75,10.41,23.51,23.45c-0.23,12.26-10.85,22.82-23.16,23.01 c-12.69,0.19-23.54-10.93-23.35-23.92C131.5,1045.26,141.37,1035.59,154.31,1035.56z"></path><path class="st0" d="M687.5,245.27c0.09,0.9,0.19,1.8,0.28,2.71c-0.43-0.55-0.86-1.1-1.29-1.64 C686.83,245.98,687.17,245.62,687.5,245.27z"></path></svg>