<svg xmlns="http://www.w3.org/2000/svg" xmlns:xlink="http://www.w3.org/1999/xlink" id="Layer_1" x="0px" y="0px" viewBox="0 0 1200 1200" style="enable-background:new 0 0 1200 1200;" xml:space="preserve"><style type="text/css">	.st0{fill:#0071DC;}	.st1{fill:#FF8B00;}	.st2{fill:none;}	.st3{fill:#252525;}</style><g>	<path class="st0" d="M54.3,619.31c-9.48,0-21.29,1.23-32.69-0.45c-7.11-1.05-15.15-5.04-19.92-10.3  c-6.06-6.69-2.8-15.15,2.45-22.15c37.81-50.32,75.51-100.73,113.44-150.96c10.02-13.26,24.24-13.25,34.28,0.06  c37.93,50.24,75.87,100.48,113.06,151.27c3.78,5.16,5.52,15.62,2.79,20.72c-3.04,5.67-11.93,10.2-18.9,11.32  c-11.38,1.83-23.27,0.49-35.87,0.49c2.21,45.75,11.88,88.99,29.52,130.34c64.26,150.63,210.73,246,374.15,237.15  c156.46-8.48,269.07-86.98,337.51-228.2c1.93-3.98,3.3-8.27,5.48-12.09c7.17-12.58,21.82-15.18,31.38-4.26  c28.19,32.19,55.79,64.91,83.27,97.72c6.87,8.2,4.51,16.98-0.51,25.83c-48.05,84.75-113.84,152.22-197.7,201.67  c-93.13,54.91-194.13,79.91-302.04,74.85C336.7,1131.16,132.96,965.05,74.53,734.49C65.09,697.22,61.05,658.58,54.3,619.31z   M982.11,791.2c-1.76,3.15-3.14,5.53-4.45,7.96c-87.75,162.96-261.85,251.23-444.13,221.85  c-131.46-21.18-231.89-91.23-300.88-205.02c-39.31-64.83-58.14-136.01-59.08-211.83c-0.2-16.49,6.86-23.43,23.45-23.64  c4.26-0.05,8.52-0.01,15.21-0.01c-26.64-35.49-51.81-69.03-77.56-103.33c-26.09,34.84-51.08,68.19-77.12,102.96  c4.08,0.19,5.98,0.33,7.87,0.36c26.47,0.41,30.06,4.22,30.7,31.26c1.12,47.46,8.48,93.98,23.03,139.18  c94.89,294.82,422.14,436.11,701.03,302.34c88.53-42.46,158.26-106.34,209.65-190.02c2.2-3.58,3.68-10.76,1.71-13.24  C1015.7,830.17,998.97,811.03,982.11,791.2z"></path>	<path class="st0" d="M987.56,580.5c-12.58-175.78-128.74-315.77-295.07-357.21c-180.9-45.07-370.15,47.1-446.07,217.24  c-1.97,4.41-3.55,9.05-5.98,13.19c-7.03,11.98-21.5,14.67-30.61,4.29c-28.51-32.46-56.38-65.48-84.08-98.64  c-6.45-7.72-4.25-16.37,0.52-24.83c35.09-62.35,80.39-116.08,136.72-160.14c106.89-83.6,228.59-123.31,364-116.74  c228.74,11.09,423.94,163.84,492.17,382.67c14.12,45.3,21.37,91.75,23.92,140.16c12.45,0,24.66-1.28,36.4,0.48  c7,1.05,15.95,5.41,19.08,11.03c2.81,5.05,1.28,15.62-2.46,20.74c-37.4,51.14-75.55,101.74-113.75,152.3  c-9.78,12.94-23.6,12.87-33.41-0.12c-38.18-50.56-76.34-101.13-113.74-152.27c-3.73-5.1-5.21-15.7-2.38-20.73  c3.16-5.61,12.12-9.86,19.14-10.95C963.33,579.21,975.2,580.5,987.56,580.5z M218.27,408.66c1.69-3.02,2.9-5.11,4.03-7.24  c86.78-163.13,262.55-252.51,444.81-222.57c138.97,22.83,242.42,98.77,310.18,222.08c33.21,60.45,48.71,126.03,49.5,195.01  c0.18,15.82-6.97,23.04-22.57,23.34c-4.62,0.09-9.25,0.01-16.05,0.01c26.57,35.42,51.59,68.79,77.51,103.34  c25.93-34.6,51.06-68.14,77.45-103.34c-5.03,0-7.38,0.02-9.74,0c-24.03-0.18-27.39-4.96-29.4-29.13  c-2.81-33.7-5.07-67.81-12.27-100.71c-48.24-220.4-243.85-384.28-468-393.3c-103.17-4.15-199.14,20.29-287.32,74.2  c-68.75,42.03-124.14,97.58-166.1,166.38c-2.08,3.41-3.81,10.08-2.04,12.3C184.36,369.16,201.27,388.62,218.27,408.66z"></path>	<path class="st0" d="M891.12,600c-0.05,160.37-130.94,291.01-291.37,290.81c-160.37-0.21-290.86-131.2-290.51-291.64  c0.35-159.89,130.77-290.06,290.74-290.16C760.44,308.91,891.17,439.57,891.12,600z M723.51,775.03  c6.41,10.85,12.62,21.36,20.73,35.07c22.63-22.73,43.72-43.91,65.9-66.18c-13.7-8.31-24.13-14.63-34.74-21.07  c6.88-11.73,13.09-22.34,19.3-32.94c11.53,6.46,21.88,12.27,35.3,19.79c8.21-30.74,15.94-59.67,24.25-90.8  c-22.53,0-41.27,0-59.26,0c0-13.66,0-25.97,0-38.75c19,0,37.12,0,59.04,0c-8.21-30.6-16.03-59.75-24.19-90.18  c-13.71,7.74-24.13,13.63-35.24,19.9c-6.45-11.13-12.62-21.79-19.24-33.22c10.89-6.46,21.17-12.55,32.39-19.2  c-17.92-26.08-39.3-47.37-65.12-65.16c-6.76,11.43-12.85,21.74-19.2,32.48c-11.55-6.72-22.25-12.95-33.21-19.34  c6.3-11.16,12.2-21.61,18.41-32.59c-28.26-13.49-57.31-21.77-89.23-23.65c0,19.21,0,37.63,0,56.22c-13.27,0-25.57,0-38.77,0  c0-18.99,0-37.43,0-56.37c-31.67,2.5-60.9,9.94-88.86,24.1c6.31,11.1,12.19,21.45,18.42,32.41c-11.42,6.58-22.06,12.71-33.42,19.25  c-6.53-11.12-12.55-21.39-19.06-32.48c-26.18,18.13-47.54,39.39-65.09,65.14c11.55,6.84,21.85,12.95,32.43,19.22  c-6.82,11.67-13.08,22.38-19.38,33.16c-11.2-6.33-21.65-12.22-32.58-18.4c-13.52,28.39-21.84,57.39-23.66,89.34  c19.39,0,37.79,0,56.16,0c0,13.3,0,25.6,0,38.82c-19.03,0-37.43,0-56.19,0c2.31,31.66,10,60.76,24,88.75  c11.26-6.4,21.58-12.25,32.47-18.44c6.59,11.48,12.7,22.12,19.17,33.38c-11.15,6.58-21.38,12.62-32.44,19.14  c18.3,26.03,39.39,47.51,65.19,64.94c6.91-11.6,13.04-21.87,19.31-32.38c11.71,6.85,22.4,13.11,33.09,19.37  c-6.4,11.34-12.27,21.74-18.42,32.63c28.64,13.38,57.51,21.88,89.51,23.55c0-19.65,0-38.03,0-55.96c13.37,0,25.67,0,38.9,0  c0,19.11,0,37.45,0,59.26c30.72-8.29,59.66-16.1,89.99-24.29c-7.65-13.5-13.56-23.95-19.92-35.17  C701.08,788.09,711.79,781.86,723.51,775.03z"></path>	<path class="st0" d="M707.2,641.49c-7.13,11.71-13.59,22.31-20.13,33.04c-31.9-19.11-62.88-37.8-94.01-56.25  c-8.46-5.02-12.4-11.83-12.37-21.75c0.19-50.01,0.09-100.02,0.09-150.9c12.44,0,24.74,0,38.28,0c0.15,2.66,0.49,6.1,0.5,9.53  c0.04,41.15,0.3,82.29-0.21,123.43c-0.1,8.02,2.58,12.13,9.21,15.98C654.62,609.72,680.37,625.42,707.2,641.49z"></path></g></svg>