<svg xmlns="http://www.w3.org/2000/svg" xmlns:xlink="http://www.w3.org/1999/xlink" id="Layer_1" x="0px" y="0px" viewBox="0 0 1200 1200" style="enable-background:new 0 0 1200 1200;" xml:space="preserve"><style type="text/css">	.st0{fill:#0071DC;}	.st1{fill:#FF8B00;}	.st2{fill:none;}	.st3{fill:#252525;}</style><g>	<path class="st0" d="M0,426.56c1.46-3.04,3.01-6.05,4.35-9.14c10.05-23.21,27.46-37.69,52.84-37.96  c74.59-0.79,149.21-0.85,223.8-0.02c31.41,0.35,56.45,26.03,56.68,57.31c0.57,74.99,0.01,149.99,0.29,224.98  c0.01,4.1,2.46,9.27,5.5,12.06c8.3,7.6,17.52,14.19,27.15,21.78c12.59-10.67,31.16-17.87,53.1-13.88c22,4,37.05,17.13,46.26,33.45  c15.27-5.08,29.35-12.63,44.02-14.06c29.57-2.89,55.35,15.15,64.88,43.4c10.2,30.24,19.2,60.89,28.41,91.46  c3.39,11.26-1.3,20.4-11.08,23.49c-9.45,2.99-18.64-2.22-22.23-13.5c-8.96-28.2-17.45-56.55-26.32-84.77  c-5.08-16.17-14.87-24.71-28.42-25.46c-19.95-1.1-35.19,16.62-30.27,36.03c3.73,14.71,8.61,29.12,12.99,43.66  c4.61,15.33,1.38,24.08-10.21,27.61c-10.87,3.31-18.62-2.29-23.11-16.74c-8.55-27.51-17.03-55.05-25.65-82.54  c-1.39-4.44-2.83-9-5.16-12.97c-7.48-12.75-23.25-18.06-36.56-12.76c-13.4,5.34-21.39,19.83-17.26,34.36  c8.39,29.58,17.69,58.91,26.63,88.34c0.34,1.12,0.91,2.16,1.24,3.28c4.27,14.36,0.95,23.42-9.92,27.07  c-10.63,3.58-19.3-2.21-23.71-16.2c-5.86-18.56-11.51-37.19-17.24-55.8c-7.91-25.68-15.74-51.38-23.75-77.02  c-3.93-12.58-12.31-20.87-25.41-23.12c-10.85-1.86-20.05,2.33-26.93,10.8c-7.27,8.95-7.8,19.06-4.46,29.83  c13.28,42.76,26.41,85.57,39.58,128.37c1.14,3.72,2.58,7.41,3.17,11.22c1.55,9.96-2.83,16.99-12.24,19.88  c-9.55,2.93-17.34-0.65-20.79-10.09c-4.94-13.51-9.03-27.34-13.28-41.1c-25.25-81.85-50.44-163.72-75.66-245.57  c-0.8-2.61-1.56-5.23-2.54-7.77c-6.66-17.3-21.7-25.2-38.14-20.11c-15.96,4.95-23.61,20.54-18.11,38.76  c14.28,47.34,28.89,94.58,43.46,141.84c24.09,78.13,48.05,156.3,72.6,234.29c3.44,10.94,3.58,20.2-2.72,29.86  c-4.03,6.17-6.66,13.26-10.62,19.48c-5.56,8.75-15.05,11.09-23.38,6.48c-8.23-4.55-12.72-14.95-6.81-23.04  c12.18-16.65,7.57-32.17,1.67-49.14c-8.82-25.36-15.96-51.3-24.1-76.9c-5.93-18.66-21.07-27.65-37.33-22.67  c-17.39,5.32-25.16,20.88-19.28,40.11c19.7,64.41,39.58,128.77,59.54,193.1c5,16.1,14.4,29.3,28.05,39.33  c8.17,6.01,16.4,11.94,24.59,17.93c16.9,12.37,17.6,22.08,2.65,36.21c-4.69,0-9.38,0-14.06,0c-10.72-8.1-21.33-16.34-32.17-24.27  c-18.41-13.46-33.14-30.25-40.06-51.95c-21.83-68.53-43.4-137.15-63.61-206.17c-10.51-35.89,12.01-70.8,48.47-78.9  c7.8-1.73,15.96-1.86,24.84-2.82c-12.29-39.73-24.51-79.26-36.53-118.1c-1.78-0.39-2.16-0.55-2.53-0.55  c-24.18-0.05-48.37,0.05-72.55-0.16c-27.63-0.24-48.45-14.6-58.79-40.06c-0.96-2.36-2.51-4.48-3.79-6.71  C0,589.06,0,507.81,0,426.56z M128.39,681.91c-7.37-17.71-14.08-33.62-20.56-49.63c-1.28-3.16-2.34-6.68-2.35-10.04  c-0.15-49.6-0.21-99.19-0.03-148.79c0.04-12.18,6.7-18.57,19.05-18.78c14.83-0.26,29.71-0.63,44.51,0.14  c22.35,1.16,38.19,12.58,46.59,33.33c6.72,16.61,4.12,32.79-3.07,44.82c7.19,14.21,14.71,25.63,18.9,38.17  c5.63,16.86,8.17,34.73,12.99,51.89c5.42,19.3,11.9,38.31,17.47,56.03c13.97-6.27,26.89-12.06,40.97-18.37c0-22.15,0-45.56,0-68.96  c0-48.81,0.05-97.63-0.02-146.44c-0.03-22.37-8.72-30.93-31.25-31.18c-3.51-0.04-7.03-0.01-10.54-0.01  c-65.22,0-130.43-0.08-195.65,0.05c-19.25,0.04-30.05,9.34-30.1,26.51c-0.22,71.46-0.2,142.93,0,214.39  c0.04,15.99,10.44,26.46,26.36,26.77C82.71,682.22,103.79,681.91,128.39,681.91z M141.12,489.81c0,12.37,0,23.13,0,34.77  c7.49,0,14.41,0.02,21.33-0.01c1.94-0.01,3.92,0.03,5.82-0.29c10.02-1.69,16.71-9.31,15.63-18.52c-1.15-9.8-6.93-15.48-16.94-15.88  C158.51,489.54,150.03,489.81,141.12,489.81z"></path>	<path class="st0" d="M946.88,0c7.5,3.44,15.63,5.97,22.39,10.52c17.24,11.6,26.83,28.17,26.88,49.19  c0.2,72.98,0.34,145.95-0.04,218.93c-0.17,32.3-25.37,58.7-57.55,59.01c-74.14,0.71-148.29,0.71-222.43,0.01  c-32.22-0.3-57.45-26.64-57.62-58.92c-0.39-72.97-0.32-145.95-0.03-218.93c0.11-28.06,18.6-50.69,45.73-57.74  c1.29-0.34,2.41-1.36,3.61-2.06C787.5,0,867.19,0,946.88,0z M693.51,169.06c0,34.73-0.07,69.47,0.03,104.2  c0.06,20.19,9.09,29.54,29.23,29.59c69.47,0.16,138.94,0.15,208.4,0.01c20.81-0.04,29.88-9.35,29.9-30.16  c0.06-69.08,0.06-138.15,0-207.23c-0.02-20.64-9.48-30.26-29.87-30.28c-69.47-0.07-138.94-0.08-208.4,0.01  c-19.69,0.02-29.2,9.72-29.26,29.66C693.43,99.59,693.51,134.33,693.51,169.06z"></path>	<path class="st0" d="M82.03,0c7.18,6.21,14.01,12.54,9.76,23.52c-4.19,10.83-13.1,11.77-23.01,11.72  c-25.2-0.13-33.61,8.43-33.62,33.61c-0.01,67.52-0.02,135.03,0.01,202.55c0.01,22.34,8.85,31.44,31.05,31.47  c68.69,0.1,137.38,0.1,206.06,0c21.72-0.03,30.49-8.92,30.51-30.67c0.07-68.69,0.07-137.38,0-206.06  c-0.02-22.15-9.06-30.94-31.49-30.96c-35.12-0.04-70.25-0.14-105.37,0.07c-10.16,0.06-19.99-0.09-24.64-11.19  C136.96,13.66,143.63,6.78,150,0c46.09,0,92.19,0,138.28,0c23.06,7.2,40.93,20.08,47.4,44.68c1.66,6.31,2.23,13.06,2.24,19.61  c0.15,69.81,0.21,139.62,0.05,209.42c-0.09,39.27-24.82,64.15-64.33,64.31c-69.42,0.27-138.84,0.19-208.25,0.03  c-32.88-0.08-51.64-13.68-63.24-44.95c-0.36-0.96-1.41-1.65-2.14-2.47c0-81.25,0-162.5,0-243.75C9.02,23.49,24.72,7.13,49.22,0  C60.16,0,71.09,0,82.03,0z"></path>	<path class="st0" d="M665.63,1200c-4.31-6.11-10.28-11.65-12.63-18.44c-8.13-23.51-15.86-47.23-22.02-71.32  c-3.34-13.03-4.64-26.98-4.38-40.47c0.91-46.73-9.66-91.1-25.18-134.65c-1.04-2.93-2.1-5.87-2.84-8.89  c-2.37-9.74,2.2-18.63,10.99-21.65c9.46-3.26,18.84,1.04,22.51,11.17c3.71,10.22,5.8,21.08,9.96,31.09  c17.8,42.79,16.87,88.28,20.89,133.2c1.71,19.09,7.91,37.83,12.7,56.57c2.98,11.66,6.71,23.19,10.92,34.46  c4.64,12.41,1.86,21.84-9.22,28.93C673.44,1200,669.53,1200,665.63,1200z"></path>	<path class="st0" d="M1200,100.78c-7.04,8.05-15.8,10.35-26.48,10.2c-38.56-0.53-77.13-0.11-115.7-0.26  c-13.96-0.05-22.12-7.84-20.5-19.35c1.48-10.56,8.48-15.65,18.61-15.7c41.68-0.21,83.38-0.57,125.04,0.39  c6.42,0.15,12.69,6.94,19.03,10.66C1200,91.41,1200,96.09,1200,100.78z"></path>	<path class="st0" d="M1200,478.13c-5.67,9.14-13.79,11.98-24.51,11.84c-38.57-0.51-77.15-0.17-115.72-0.22  c-14.48-0.02-22.73-6.53-22.69-17.66c0.04-11.17,8.13-17.45,22.8-17.47c38.57-0.05,77.15,0.3,115.72-0.22  c10.78-0.15,18.91,2.63,24.4,12.01C1200,470.31,1200,474.22,1200,478.13z"></path>	<path class="st0" d="M49.22,0C24.72,7.13,9.02,23.49,0,46.88C0,31.25,0,15.63,0,0C16.41,0,32.81,0,49.22,0z"></path>	<path class="st0" d="M996.28,548.46c0,35.14,0.14,70.29-0.04,105.43c-0.19,37.36-25.99,63.09-63.5,63.18  c-70.29,0.15-140.58,0.15-210.86,0c-37.59-0.08-63.4-25.71-63.49-63.14c-0.17-70.68-0.16-141.36,0-212.03  c0.08-36.61,24.62-61.68,61.19-62.87c8.97-0.29,17.98-0.33,26.92,0.24c10.13,0.64,15.67,6.79,15.96,16.75  c0.29,10.09-5.44,16.42-15.2,17.56c-8.87,1.04-17.94,0.23-26.9,0.61c-17.23,0.73-26.73,10.19-26.76,27.34  c-0.14,71.07-0.15,142.14,0.01,213.21c0.04,16.65,10.36,27.06,27.12,27.11c71.07,0.2,142.14,0.2,213.21,0  c16.74-0.05,27.05-10.51,27.09-27.17c0.17-71.07,0.16-142.14,0.01-213.21c-0.04-17.43-9.92-27.1-28.04-27.28  c-32.41-0.32-64.82-0.09-97.23-0.11c-3.12,0-6.28,0.19-9.36-0.19c-10.21-1.27-16.68-8.42-16.48-17.91  c0.2-9.53,6.74-16.49,17.3-16.81c16.78-0.51,33.58-0.26,50.36-0.26c19.52,0,39.06-0.41,58.57,0.24  c35.29,1.16,59.83,26.4,60.07,61.55C996.47,476.61,996.27,512.54,996.28,548.46z"></path>	<path class="st0" d="M800.93,455.16c9.36,0,18.86-1.02,28.06,0.2c25.83,3.42,45.22,17.24,56.33,40.66  c15.73,33.14,16.37,67.22,0.62,100.56c-13.04,27.61-35.2,43.08-66.31,44.19c-13.26,0.47-26.54,0.67-39.81,0.61  c-14.86-0.06-22.14-6.46-22.24-21.04c-0.34-48.8-0.3-97.61-0.04-146.41c0.07-12.8,7-18.99,19.96-19.3  c7.8-0.19,15.62-0.03,23.42-0.03C800.93,454.78,800.93,454.97,800.93,455.16z M792.94,604.55c30.13,5.23,48.31-0.58,59.21-18.38  c13.65-22.31,12.48-61.54-2.56-81.28c-15.16-19.9-36.31-14.69-56.65-14.72C792.94,529.03,792.94,566.48,792.94,604.55z"></path>	<path class="st0" d="M459.56,110.77c-19.86,0-39.72,0.12-59.58-0.04c-13.83-0.11-21.16-6.58-20.9-17.88  c0.24-10.66,7.64-17.18,20.67-17.23c40.5-0.17,80.99-0.19,121.49,0.01c12.92,0.06,20.28,6.83,20.34,17.56  c0.07,10.87-7.12,17.39-20.12,17.52C500.84,110.91,480.2,110.77,459.56,110.77z"></path>	<path class="st0" d="M460.43,489.76c-20.31,0-40.62,0.11-60.93-0.04c-12.79-0.1-20.36-6.77-20.42-17.47  c-0.06-10.81,7.4-17.57,20.19-17.61c40.62-0.12,81.24-0.11,121.86,0c12.84,0.03,20.39,6.69,20.45,17.39  c0.06,10.69-7.56,17.58-20.22,17.68C501.06,489.89,480.74,489.76,460.43,489.76z"></path>	<path class="st0" d="M437.1,606.22c12.85,0.01,25.7-0.24,38.54,0.08c11.17,0.28,18.4,7.01,18.8,16.66  c0.41,10.09-6.92,18.1-18.51,18.3c-26.08,0.45-52.17,0.44-78.25,0.01c-11.96-0.2-18.78-7.52-18.57-18.04  c0.21-10.53,7.01-16.7,19.45-16.96C411.4,606,424.25,606.21,437.1,606.22z"></path>	<path class="st0" d="M1095.13,606.23c12.85-0.01,25.7-0.25,38.55,0.06c11.1,0.27,18.52,7,19.05,16.51  c0.54,9.75-7.18,18.25-18.47,18.44c-26.47,0.44-52.96,0.46-79.42-0.05c-10.96-0.21-17.88-8.06-17.74-17.83  c0.14-9.79,7.19-16.73,18.33-17.05C1068.65,605.96,1081.9,606.24,1095.13,606.23z"></path>	<path class="st0" d="M1095.16,262.5c-12.85,0-25.71,0.19-38.56-0.06c-11.76-0.23-19.34-7.17-19.53-17.27  c-0.2-10.6,7.59-17.72,20.06-17.79c24.93-0.14,49.85-0.12,74.78-0.01c12.62,0.06,20.6,6.82,20.81,17.17  c0.22,10.72-8.07,17.79-21.35,17.93C1119.31,262.61,1107.24,262.51,1095.16,262.5z"></path>	<path class="st0" d="M1094,565.27c-12.85-0.01-25.71,0.23-38.55-0.08c-11.13-0.27-18.15-7.08-18.34-16.98  c-0.19-9.69,6.87-17.71,17.68-17.91c26.47-0.49,52.97-0.46,79.44-0.05c11.25,0.17,19.02,8.67,18.48,18.45  c-0.52,9.58-7.94,16.3-18.99,16.51C1120.49,565.48,1107.24,565.28,1094,565.27z"></path>	<path class="st0" d="M437.53,151.74c12.85,0,25.7-0.24,38.54,0.07c11,0.27,18.22,7.27,18.36,17c0.14,9.2-6.46,17.47-16.61,17.69  c-27.62,0.6-55.28,0.62-82.89-0.12c-10.3-0.28-16.22-8.45-15.82-18.15c0.4-9.74,6.76-16.08,17.53-16.38  c13.62-0.37,27.25-0.09,40.88-0.09C437.53,151.76,437.53,151.75,437.53,151.74z"></path>	<path class="st0" d="M1094.84,151.74c12.85,0,25.7-0.19,38.55,0.06c11.6,0.22,19.36,7.41,19.34,17.33  c-0.02,9.42-7.36,17.38-18.2,17.58c-26.47,0.49-52.96,0.5-79.43,0.01c-10.99-0.2-18.01-7.94-18.02-17.62  c-0.01-10.28,7.27-17.07,19.21-17.3C1069.14,151.54,1081.99,151.74,1094.84,151.74z"></path>	<path class="st0" d="M436.2,565.28c-12.85-0.01-25.7,0.21-38.55-0.07c-11.55-0.25-18.16-6.45-18.52-16.63  c-0.37-10.47,6.58-18.14,18.28-18.33c26.08-0.43,52.18-0.41,78.26-0.03c11.6,0.17,19.02,7.99,18.77,18.11  c-0.26,10.11-7.72,16.72-19.69,16.91C461.9,565.45,449.05,565.29,436.2,565.28z"></path>	<path class="st0" d="M437.42,227.34c12.46,0,24.92-0.15,37.37,0.04c11.75,0.19,19.4,7,19.64,17.05  c0.25,10.45-7.65,17.9-19.96,17.99c-25.3,0.2-50.61,0.21-75.92,0c-11.91-0.1-19.22-6.89-19.43-17.15  c-0.23-10.85,7.2-17.74,19.76-17.9C411.72,227.21,424.57,227.34,437.42,227.34z"></path>	<path class="st0" d="M113.48,262.36c-17.04,0.21-24.88-12-19.77-25.66c14.31-38.22,28.97-76.3,43.5-114.44  c4.01-10.53,8.16-21.02,12.04-31.6c3.49-9.51,10.36-14.85,20.22-14.84c9.93,0.01,16.69,5.71,20.2,15.02  c18.36,48.74,36.79,97.45,54.96,146.26c4.15,11.15,0.12,20.27-9.63,24.11c-9.4,3.71-20.57-0.47-22.73-11.84  c-4.2-22.07-17.03-27.63-36.92-24.24c-2.65,0.45-5.5,0.41-8.17,0.01c-21.24-3.2-37.7,0.08-41.93,25.79  C124.41,256.03,116.14,259.92,113.48,262.36z M189.18,189.68c-6.5-17.34-12.7-33.87-19.87-53.01  c-7.32,19.29-13.59,35.81-20.11,53.01C162.91,189.68,175.29,189.68,189.18,189.68z"></path>	<path class="st0" d="M846.41,262.45c-44.35,0-79.42-24.69-92.87-61.9c-13.26-36.68-2.19-77.67,27.76-102.83  c30.31-25.46,72.98-29.13,107.05-9.19c12.88,7.54,16.52,19.46,8.79,28.81c-6.49,7.86-14.28,8.22-27.25,1.27  c-32.6-17.48-71.62-2.93-83.39,31.42c-7.66,22.35-2.97,42.71,13.3,59.45c15.18,15.61,34.2,21.92,55.57,15.39  c7.09-2.17,13.6-7.29,19.47-12.16c9.35-7.76,18.63-8.96,26.06-2.05c7.99,7.43,7.84,17.48-0.9,26.9  C884.24,254.55,864.32,262.03,846.41,262.45z"></path></g></svg>