<svg xmlns="http://www.w3.org/2000/svg" xmlns:xlink="http://www.w3.org/1999/xlink" id="Layer_1" x="0px" y="0px" viewBox="0 0 1200 1200" style="enable-background:new 0 0 1200 1200;" xml:space="preserve"><style type="text/css">	.st0{fill:#0071DC;}	.st1{fill:#FF8B00;}	.st2{fill:none;}	.st3{fill:#252525;}</style><path class="st0" d="M1200,646.88c-1.28,6.59-2.77,13.14-3.8,19.76c-2.17,13.85-9.46,21.12-20.81,20.41 c-11.62-0.73-18.36-9.6-17.75-24.07c0.8-19.07,2.03-38.11,2.92-57.18c0.49-10.52,1.88-20.53,13.59-24.6 c12.17-4.23,19.4,3.08,25.86,11.78C1200,610.94,1200,628.91,1200,646.88z"></path><path class="st0" d="M546.09,1200c-12.72-2.29-25.44-4.6-38.17-6.85c-1.91-0.34-3.89-0.3-5.82-0.6 c-15.58-2.4-23.66-11.22-21.59-23.53c1.97-11.69,12.04-17.4,27.04-15.51c17.78,2.24,35.54,4.78,53.39,6.35 c11.33,0.99,20.97,3.62,24.42,15.82c2.73,9.66-2.68,17.54-15.84,24.32C561.72,1200,553.91,1200,546.09,1200z"></path><path class="st0" d="M0,592.97c1.93-1.79,3.85-3.59,5.78-5.37c11.93-11.03,30.16-6.08,32.05,10.09c2.84,24.32,3.76,48.92,4.18,73.42 c0.18,10.33-7.91,16.09-17.89,16.47c-10.04,0.39-17.09-5.03-19.39-15.13C2.81,664,1.55,655.4,0,646.88C0,628.91,0,610.94,0,592.97z"></path><path class="st0" d="M625.78,1200c-1.37-1.73-3.33-3.26-4.02-5.23c-2.28-6.56-6.9-14.07-5.31-19.72c1.61-5.7,9.01-12.75,14.83-13.76 c22.55-3.92,45.44-6.06,68.28-8.05c11.23-0.97,19.26,6.27,20.42,16.34c1.21,10.52-4.2,19.2-15.38,21.32 c-15.63,2.98-31.54,4.47-47.31,6.75c-2.75,0.4-5.38,1.54-8.07,2.34C641.41,1200,633.59,1200,625.78,1200z"></path><path class="st0" d="M630.47,0c17.99,6.62,23.18,12.66,21.13,24.62c-1.99,11.63-9.93,15.62-29.64,15.45 c-17.14-0.15-34.29-0.2-51.43,0.23c-11.24,0.28-20.18-2.59-23.77-14.28c-3.08-10.03,1.53-17.25,14.65-24.16 c0.54-0.28,0.73-1.23,1.09-1.86c8.59,0,17.19,0,25.78,0c7.81,0,15.63,0,23.44,0C617.97,0,624.22,0,630.47,0z"></path><path class="st0" d="M711.61,732.83c-10.02,0-15.84,0.44-21.56-0.11c-6.8-0.66-10.18,2.04-13.32,8.12 c-19.52,37.86-49.73,62.84-91.88,70.96c-16.31,3.14-33.35,2.92-50.08,3.27c-24.14,0.5-48.29,0.13-75.12,0.13 c4,14,7.35,26.56,11.21,38.96c2.84,9.12,6.32,18.16-2.46,25.92c-8.53,7.53-17.46,4.27-26.17,0.21 c-36.03-16.8-67.68-38.55-86.48-75.3c-1.9-3.71-6.68-6.28-10.58-8.6c-48.24-28.6-73.19-84.18-63.82-142.58 C289.94,600.37,332.99,556,387.28,545c10.15-2.06,23.18,0.15,30-5.5c6.43-5.34,5.54-18.81,9.4-28.07 c27.04-64.81,75.84-101.88,145.85-104.87c66.66-2.85,133.6-2.37,200.31-0.17c86.29,2.85,153.35,69.66,156.55,155.94 c2.38,64.32-25.43,114.5-81.27,147.85c-8.28,4.95-14.06,10.71-18.93,19.27c-22.42,39.34-58.56,62.73-98.28,81.52 c-2.11,1-4.36,1.69-6.47,2.7c-9.11,4.36-18.35,7.9-27.12-0.3c-9.53-8.92-3.95-18.33-0.84-28.03 C701.78,768.8,706.15,751.97,711.61,732.83z M641.3,732.82c-20.1,0-38.07,1.36-55.74-0.35c-21.16-2.05-42.29-5.81-63.01-10.62 c-12.67-2.94-17.29-12.64-14.1-22.78c3.16-10.04,12.01-13.47,24.74-10.41c12.83,3.08,25.77,7.54,38.74,7.84 c49.16,1.12,98.36,0.75,147.55,1.02c18.04,0.1,23.15,4.49,24.01,22.44c0.71,14.78,0.14,29.61,0.14,43.66 c23.44-11.67,47.43-33.04,56.36-54.66c5.52-13.37,14.25-20.99,26.72-27.16c45.09-22.3,73.33-75.63,67.19-125.08 c-8.33-67.08-62.5-115.18-131.26-115.71c-59.34-0.45-118.69,0.26-178.03-0.18c-88.98-0.66-157.5,84.1-125.55,172.82 c1.52,4.23,2.61,9.37,1.66,13.57c-1.74,7.72-6.81,12.83-15.62,13.2c-9.75,0.42-15.81-4.65-18.27-13.2 c-4.58-15.96-8.22-32.19-12.53-49.43c-6.62,0.57-14.07,0.52-21.21,1.94c-38.33,7.62-71.56,42.65-76.79,80.47 c-6.48,46.83,12.73,88.55,50.66,107.75c10.4,5.27,17.41,12.24,21.92,22.8c7.4,17.35,20.92,29.22,37.23,40.12 c0-10.22-0.22-19.01,0.05-27.78c0.55-18.23,5.72-23.12,24.32-23.16c34.75-0.07,69.49,0,104.24-0.03 C590.87,779.87,619.28,765.2,641.3,732.82z"></path><path class="st0" d="M82.46,955.46c-22.47,22.86-34.76,46.94-35.74,76.04c-0.51,15.21,0.1,30.46-0.39,45.67 c-0.28,8.5,2.91,12.02,11.47,12c71.85-0.13,143.69-0.11,215.54-0.03c7.97,0.01,11.38-3.4,10.8-11.37 c-1.83-25.18-3.08-50.4-5.39-75.53c-1.2-12.98,2.67-21.23,13.29-23.39c10.04-2.04,17.66,3.4,21.12,15.3 c9.22,31.75,7.22,64.3,5.14,96.52c-1.32,20.44-20.8,33.61-45.28,33.68c-57.01,0.15-114.02,0.05-171.03,0.05 c-15.23,0-30.46,0.24-45.68-0.06c-28.54-0.55-45.53-16.97-44.88-45.44c0.62-27.17,1.02-54.69,5.69-81.32 c4.74-27.03,21.19-48.93,41.4-67.74c3.11-2.9,5.23-9.29,4.52-13.51c-7.46-44.4,6.33-80.96,42.9-106.36 c35.41-24.59,74.17-25.66,111.31-3.22c35.75,21.6,52.92,54.92,49.25,96.59c-3.75,42.59-26.76,73.16-67.04,87.65 c-44.12,15.87-82.74,4.75-114.27-30.12C84.14,959.74,83.72,958.05,82.46,955.46z M164.14,826.89c-37.3-0.03-67.82,30.22-68.02,67.41 c-0.2,36.9,30.22,67.78,67.41,68.43c37,0.65,68.69-30.97,68.55-68.41C231.93,857.12,201.51,826.92,164.14,826.89z"></path><path class="st0" d="M950.32,957.13c-20.34,20.33-32.73,43.97-34.04,72.6c-0.73,15.98,0.02,32.02-0.5,48.02 c-0.29,8.98,3.92,11.45,12.02,11.44c71.07-0.12,142.14-0.18,213.21,0.06c9.74,0.03,13.37-3.71,12.61-13.24 c-1.97-24.78-3.25-49.62-5.49-74.37c-1.14-12.54,2.51-20.22,12.76-22.64c10.11-2.39,17.77,2.78,21.41,14.67 c9.82,32.08,7.5,65.04,5.32,97.63c-1.27,18.99-19.49,32.76-41.12,32.91c-74.58,0.49-149.17,0.61-223.75-0.06 c-25.95-0.23-42.42-17.56-41.86-43.5c0.6-27.95,1.05-56.25,5.79-83.66c4.6-26.61,20.58-48.61,41.2-66.36 c5.17-4.45,6.26-8.46,4.98-15c-10.24-52,19.35-103.38,67.89-118.58c52.3-16.38,105.54,7.29,127.48,56.67 c27.66,62.26-14.87,135.51-82.54,142.97c-36.24,3.99-65.75-7.98-90-34.51C954.15,960.48,952.35,959.03,950.32,957.13z  M1033.08,826.89c-37.34,0.26-67.52,30.65-67.45,67.9c0.07,36.98,30.84,67.81,67.82,67.94c37.23,0.14,68.57-31.58,68.09-68.89 C1101.04,856.65,1070.35,826.63,1033.08,826.89z"></path><path class="st0" d="M81.12,242.64C60.75,262.18,48.99,285.37,47,312.86c-1.21,16.71-0.21,33.57-0.66,50.35 c-0.21,7.9,2.76,11.44,10.81,11.43c72.24-0.1,144.47-0.08,216.71-0.02c7.41,0.01,10.75-3.3,10.25-10.7 c-1.73-25.18-2.92-50.42-5.3-75.54c-1.23-12.99,2.37-21.7,12.53-23.91c11.01-2.39,20.65,3.24,21.92,16.83 c2.93,31.31,5.33,62.84,4.96,94.24c-0.24,20.39-20.52,34.21-44.59,34.26c-64.82,0.14-129.63,0.05-194.45,0.05 c-8.2,0-16.41,0.21-24.6-0.05c-26.38-0.83-43.69-17.31-43.14-43.61c0.58-27.94,1.08-56.23,5.79-83.65 c4.5-26.19,20.09-48.04,40.3-65.59c5.86-5.09,7.16-9.48,5.73-16.88C50.13,132.5,104.01,72.33,172.67,77.49 c52.23,3.93,93.64,48.28,94.56,101.28c0.9,51.74-38.36,96.89-89.66,103.11C139.56,286.49,114.03,276.28,81.12,242.64z M163.6,112.29 c-37.14,0.24-67.63,30.98-67.47,68.02c0.15,36.93,31.12,67.88,67.94,67.91c37.33,0.03,68.43-31.52,68-68.96 C231.64,142.11,200.91,112.05,163.6,112.29z"></path><path class="st0" d="M952.02,241.36c-21.68,20.57-33.43,43.62-35.56,71.04c-1.18,15.14-0.49,30.44-0.54,45.66 c-0.05,16.49,0.01,16.52,16.07,16.52c62.09,0.01,124.17,0,186.26,0c7.81,0,15.63-0.23,23.43,0.06c8.18,0.3,12.58-2.57,11.93-11.48 c-1.86-25.18-3.13-50.4-5.42-75.54c-1.14-12.48,2.4-20.74,12.14-23.1c10.64-2.58,18.64,2.8,22.27,15.18 c9.3,31.75,7.14,64.3,5.14,96.52c-1.18,18.95-19.6,33.28-40.7,33.41c-74.97,0.43-149.94,0.53-224.91-0.05 c-24.54-0.19-41.53-17.44-41.16-41.77c0.43-27.95,0.85-56.23,5.35-83.7c4.51-27.54,21.13-49.77,41.69-68.83 c3.11-2.89,5.18-9.31,4.47-13.55c-7.48-44.39,6.27-80.96,42.91-106.31c35.87-24.82,74.95-25.69,112.29-2.59 c35.09,21.71,51.93,54.8,48.18,95.98c-3.92,43.03-27.12,73.5-68.16,87.9c-44.04,15.46-81.94,3.89-113.16-30.39 C953.51,245.2,953.08,243.52,952.02,241.36z M1033.87,112.29c-37.29-0.16-67.89,29.97-68.25,67.17 c-0.35,37.44,30.92,68.98,68.19,68.75c36.94-0.22,67.69-31.15,67.72-68.11C1101.56,143.05,1071.02,112.45,1033.87,112.29z"></path><path class="st0" d="M888.37,117c-2.83-1.07-6.93-2.25-10.71-4.1c-17.78-8.71-35.48-17.59-53.19-26.44 c-13.13-6.56-18.01-17.53-12.65-28.25c5.09-10.18,16.19-13.26,29.16-7.07c18.91,9.04,37.63,18.5,56.19,28.24 c8.64,4.53,13.33,11.84,10.9,22.15C905.79,111.16,899.13,115.64,888.37,117z"></path><path class="st0" d="M701.46,7.87c24.02,6.17,48.24,11.68,71.96,18.83c9.48,2.86,13.08,11.86,10.91,21.87 c-2.06,9.46-11.22,16.48-20.97,14.45c-23.53-4.89-46.99-10.34-70.17-16.68c-9.74-2.66-13.72-11.15-12.17-21.25 C682.51,15.41,690.69,9.28,701.46,7.87z"></path><path class="st0" d="M14.11,735.76c2.23-11.04,7.63-17.58,17.54-19.62c9.48-1.95,17.7,1.76,20.7,10.91 c7.6,23.17,14.54,46.58,20.83,70.13c2.52,9.45-2.82,16.94-11.69,20.21c-9.26,3.4-19.49,1.65-23.05-7.87 C29.35,785.31,22.1,760.4,14.11,735.76z"></path><path class="st0" d="M3.51,529c4.04-21.45,7.65-42.98,12.27-64.3c2.7-12.46,12.51-18.8,22.87-16.5 c10.67,2.36,17.01,11.8,15.04,24.14c-3.31,20.78-7.13,41.48-11.02,62.16c-2.37,12.62-11.03,19.83-21.43,18.54 C9.93,551.62,3.71,542.8,3.51,529z"></path><path class="st0" d="M1196.54,528.99c-0.73,12.32-6.99,20.59-17.51,21.98c-10.7,1.42-19.21-4.67-21.57-16.65 c-4.14-21.01-7.98-42.09-11.32-63.24c-2.11-13.39,4.23-22.72,15.47-24.68c10.65-1.86,19.6,4.41,22.34,17.23 C1188.59,485.32,1192.38,507.19,1196.54,528.99z"></path><path class="st0" d="M434.37,63.74c-10.94-0.14-17.89-4.74-20.27-14.87c-2.37-10.11,1.4-18.97,10.93-21.67 c23.84-6.76,48.03-12.46,72.32-17.35c9.44-1.9,18.63,6.31,20.01,15.68c1.4,9.51-2.29,18.13-11.38,20.68 C482.11,52.9,457.81,58.1,434.37,63.74z"></path><path class="st0" d="M372.07,1114.52c2.57,0.77,6.33,1.71,9.96,3c17.9,6.38,35.77,12.86,53.66,19.28 c14.23,5.11,20.1,14.51,16.44,26.35c-3.43,11.07-14.87,15.64-28.96,10.73c-19.77-6.89-39.48-13.98-58.92-21.72 c-10.75-4.28-14.97-13.5-12.47-23.44C353.84,1120.49,362.12,1114.32,372.07,1114.52z"></path><path class="st0" d="M1185.81,735.98c-7.85,24.31-15.08,48.85-23.87,72.81c-3.31,9.03-12.79,11.37-21.82,8.64 c-9.06-2.74-14.04-9.57-13.47-19.41c0.2-3.43,1.26-6.85,2.23-10.18c5.68-19.36,11.21-38.76,17.29-57.99 c3.43-10.84,12.57-16.43,22.12-14.67C1177.76,716.93,1184.1,725.13,1185.81,735.98z"></path><path class="st0" d="M849.38,1138.34c-2.88,2.98-7.17,10.75-13.6,13.48c-20.66,8.76-42,15.98-63.31,23.12 c-10.23,3.43-20.09-1.91-23.76-11.34c-3.64-9.35,0.13-20.29,10.23-24.26c21.98-8.65,44.19-16.82,66.7-23.99 C838.08,1111.39,849.38,1120.95,849.38,1138.34z"></path><path class="st0" d="M388.79,71.29c-2.28,2.91-5.33,10-10.67,12.99c-19.93,11.16-40.5,21.21-61.08,31.17 c-9.52,4.6-19.22,1.25-24.35-7.16c-4.96-8.15-3.97-20.06,4.61-24.9c21.55-12.16,43.52-23.8,66.17-33.71 C375.8,44.3,388.54,54.66,388.79,71.29z"></path></svg>