<svg xmlns="http://www.w3.org/2000/svg" xmlns:xlink="http://www.w3.org/1999/xlink" id="Layer_1" x="0px" y="0px" viewBox="0 0 1200 1200" style="enable-background:new 0 0 1200 1200;" xml:space="preserve"><style type="text/css">	.st0{fill:#0071DC;}	.st1{fill:#FF8B00;}	.st2{fill:none;}	.st3{fill:#252525;}</style><g>	<path class="st0" d="M316.41,1200c-38.8-14.04-61.08-48.05-89.55-74.51c-10.45-9.71-10.11-24.08-1.01-33.49  c9.41-9.74,23.61-9.8,34.37,0.6c15.72,15.2,30.98,30.89,46.49,46.31c18.95,18.82,35.25,18.72,54.38-0.3  c10.8-10.74,21.58-21.5,32.32-32.32c18.34-18.48,17.89-33.34-0.39-51.72c-36.6-36.8-72.7-74.1-109.28-110.92  c-42.67-42.95-85.61-85.64-128.52-128.35c-5.23-5.2-10.8-10.1-16.58-14.68c-9.58-7.59-26.41-6.59-36.72,3.08  c-15.09,14.15-29.85,28.7-43.99,43.8c-12.67,13.53-11.65,30.83,2.09,44.98c16.59,17.09,33.73,33.66,50.41,50.66  c7.22,7.36,9,16.18,4.84,25.85c-3.97,9.22-11.41,14.56-21.05,13.78c-6.09-0.49-13.16-3.33-17.57-7.48  c-18.47-17.4-36.6-35.23-53.92-53.77c-27.7-29.65-27.82-75.51-0.3-105.37C37.51,799.8,53.21,783.9,69.71,769  c22.29-20.14,48.71-25.67,77.31-16.31c7.69,2.52,11.81,1.02,17.03-4.35c22.86-23.52,46.15-46.62,70.11-70.72  c-20.77-21.25-31.53-46.52-25.65-76.91c5.9-30.49,24.55-50.55,52.78-62.23c-30.56-52.7-5.44-111.1,51.16-127.13  c-5.27-22.31-3.11-43.92,8.85-63.97c12-20.12,29.9-32.42,52.99-38.48c-5.8-27.41-2.51-53.04,16.02-74.72  c22-25.74,50.1-34.45,83.19-27.52c3.18,0.67,7.88,1.95,9.63,0.4c21.01-18.61,45.62-16.13,70.03-11.74  c51.03,9.18,101.87,19.45,152.86,28.85c8.74,1.61,18,0.31,26.8,1.69c47.9,7.55,76.88,48.47,69,96.8c-0.31,1.92-0.47,3.87-0.81,6.74  c21.97,6.1,40.17,17.91,52.3,37.85c12.21,20.07,14.45,41.64,9.05,65.12c22.23,5.98,40.36,17.77,52.56,37.66  c12.31,20.07,14.37,41.64,9.35,65.27c30.96,8.65,52.94,27.57,61.52,59.08c8.66,31.79-0.93,59.2-24.54,83.27  c19.29,19.24,38.25,38.16,57.21,57.08c1.38,1.38,2.99,2.6,4.11,4.17c9.28,12.92,19.08,16.25,35.98,10.61  c26.4-8.8,51.85-1.3,72.5,18.01c15.68,14.66,31.03,29.76,45.61,45.51c28.95,31.26,29.09,77.64-0.96,107.95  c-84.7,85.44-169.81,170.47-255.37,255.04c-30.5,30.15-77.87,29.27-108.88-0.35c-14.68-14.03-29.23-28.25-43.07-43.09  c-23.22-24.91-28.72-53.73-16.1-85.46c2.21-5.56,1.95-8.76-2.37-13.01c-28.94-28.49-57.54-57.34-86.47-85.85  c-2.45-2.42-6.49-4.4-9.86-4.53c-24.95-0.94-49.91-1.42-74.87-1.92c-8.58-0.17-17.17-0.05-25.75,0.1  c-10.64,0.19-19.27,4.21-26.89,12.01c-27.52,28.18-55.48,55.92-83.16,83.7c19.52,44.16,14.25,71.79-19.94,105.96  c-6.63,6.63-13.6,12.95-19.82,19.94c-15.45,17.38-33.43,30.63-56.29,36.45C336.72,1200,326.56,1200,316.41,1200z M785.72,1002.05  c71.92-72.2,143.97-144.53,213.86-214.68c-23.87-24.06-48.77-49.15-74.99-75.57c-4.06,4.61-8.45,10.79-13.99,15.62  c-10.63,9.27-24.73,8.04-33.38-2.08c-8.43-9.86-7.56-23.04,2.8-33.61c17.23-17.57,35.11-34.51,52.01-52.38  c13.19-13.95,12.56-34.65-0.24-47.6c-13.08-13.24-32.92-14.14-47.59-1.66c-6.82,5.8-12.86,12.53-19.3,18.78  c-12.34,11.98-25.88,13.1-36.14,3.04c-10.04-9.84-9.09-24.3,2.58-36.14c12.06-12.24,24.42-24.19,36.39-36.52  c15.35-15.82,15.86-37.19,1.56-51.1c-14.27-13.87-34.47-13.19-50.19,1.84c-6.49,6.21-12.71,12.7-19.13,18.98  c-12.01,11.73-26.17,12.87-36.19,3c-10.1-9.96-9.19-24.11,2.6-36.12c13.96-14.21,28.51-27.86,42.03-42.47  c13.51-14.59,12.67-35.14-0.88-48.41c-13.42-13.14-34.06-13.06-48.54,0.46c-7.13,6.66-13.78,13.84-20.78,20.64  c-12.04,11.7-26.28,12.72-36.23,2.75c-10-10.02-9-24.22,2.81-36.18c14-14.17,28.53-27.84,42.16-42.35  c12.99-13.81,12.35-34.5-0.51-47.65c-12.66-12.95-33.16-15-46.54-2.22c-23.67,22.61-46,46.6-69.34,70.48  c14.47,26.64,15.66,54.36,0.25,81.74c-15.42,27.39-40.15,40.11-70.3,41.88c-0.64,1.2-0.93,1.52-0.99,1.89  c-8.55,51.14-26.81,69.93-76.89,80.01c-2.62,0.53-5.86,5.37-6.25,8.51c-4.35,35.76-28.43,63.74-62.71,71.75  c-6.3,1.47-12.82,1.99-19.03,2.91c-3.04,66.04-68.79,98.78-119.52,72.91c-2.33-1.19-7.17-1.09-8.79,0.5  c-24.51,24.03-48.68,48.42-70.74,70.53c72.43,72.81,144.42,145.18,216.73,217.86c27.12-27.19,55.14-54.96,82.76-83.12  c12.59-12.83,27.69-20.34,45.15-22.49c11.95-1.47,24.15-1.6,36.22-1.29c19.51,0.5,38.99,2.29,58.5,2.75  c26.03,0.61,49.59-5.5,66.64-27.28c2.15-2.75,4.91-5.03,7.43-7.48c12.09-11.76,26.13-12.83,36.12-2.78  c10.24,10.3,8.84,23.36-2.63,36.23c-10.04,11.27-19.09,23.42-27.86,34.29C736.26,952.06,761.49,977.56,785.72,1002.05z   M866.61,1153.36c8.56-4.87,17.49-7.78,23.45-13.69c83.7-82.99,167.08-166.31,250.31-249.78c14.33-14.37,13.97-32.08-0.16-46.74  c-12.73-13.21-25.77-26.11-38.97-38.85c-15.01-14.49-32.83-14.66-47.71,0.16c-83.52,83.18-166.92,166.47-250.18,249.91  c-13.89,13.92-13.95,31.85-0.53,45.91c13.47,14.11,27.15,28.09,41.63,41.13C850.18,1146.56,858.32,1149.02,866.61,1153.36z   M472.82,509.64c19.46-1.46,30.53-7.61,36.11-21.33c5.64-13.9,3.57-27.08-7-37.8c-28.17-28.58-56.52-57-85.22-85.04  c-15.16-14.81-36.31-14.39-50.06-0.08c-13.33,13.87-12.99,34.3,1.68,49.21c27.59,28.06,55.26,56.06,83.68,83.27  C458.53,504.14,468.21,507.12,472.82,509.64z M558.04,429.02c20.78-2.08,36.84-17.54,36.23-36.9  c-0.33-10.32-3.43-17.71-15.37-22.91c-48.29-21.05-83.87-55.65-104.35-105.02c-1.88-4.54-7.05-9.25-11.72-10.83  c-15.35-5.18-31.12,1.58-39.16,15.34c-8.18,14-6.17,30.34,6.23,42.84c34.64,34.92,69.3,69.83,104.59,104.08  C540.77,421.72,550.11,424.64,558.04,429.02z M430.83,556.47c-2.76-6.67-3.9-14.89-8.54-19.76c-23.37-24.52-47.1-48.77-71.86-71.88  c-12.5-11.66-32.53-9.28-44.72,2.59c-12.23,11.91-15.23,31.88-3.57,44.5c23.23,25.15,47.63,49.29,72.61,72.71  c10.16,9.53,23.86,9.16,36.23,2.82C423.01,581.28,429.11,570.82,430.83,556.47z M347.14,637.01c-0.86-2.91-0.91-9.41-4.16-12.99  c-12.22-13.44-24.3-27.5-38.7-38.3c-12.94-9.7-31.38-4.55-41.99,7.93c-10.17,11.96-11.23,30.93-0.77,43.15  c9.34,10.91,19.69,21.18,30.77,30.29c10.83,8.9,23.89,9.21,36.28,2.75C340.54,663.6,346.58,653.11,347.14,637.01z M519.37,237.73  c-0.66,1.52-1.32,3.03-1.97,4.55c11.85,37.31,39.34,60.98,68.61,79.12c21.2-21.23,41.03-41.09,60.7-60.78  C605.3,253.17,562.34,245.45,519.37,237.73z"></path>	<path class="st0" d="M604.69,0c12.98,6.5,17.29,16.94,16.92,31.35c-0.8,31.14-0.18,62.31-0.28,93.46  c-0.05,17.22-8.84,27.43-23.29,27.53c-14.3,0.09-23.69-10.49-23.75-27.23c-0.11-31.16,0.51-62.33-0.28-93.46  C573.65,17.31,578.2,6.94,590.63,0C595.31,0,600,0,604.69,0z"></path>	<path class="st0" d="M218.33,6.38c3.26,1.82,10.21,4.04,14.89,8.59c27.96,27.2,55.52,54.82,82.95,82.56  c11.09,11.21,11.28,25.73,1.29,35.32c-9.66,9.27-23.68,8.81-34.48-1.85c-28.03-27.69-55.83-55.61-83.7-83.47  c-7.67-7.67-9.75-16.77-5.59-26.77C197.49,11.62,204.81,7.08,218.33,6.38z"></path>	<path class="st0" d="M868.26,118.08c4.38-8.26,6.27-14.99,10.55-19.37c27.79-28.45,55.97-56.53,84.32-84.42  c10.62-10.45,24.97-10.27,34.35-0.57c8.98,9.28,9.05,23.48-0.9,33.58c-27.91,28.33-56.17,56.32-84.33,84.41  c-7.68,7.66-17.59,10.66-26.64,5.39C878.74,133.1,874.27,124.94,868.26,118.08z"></path>	<path class="st0" d="M163.71,1055.21c-13.28-0.16-23.46-10.73-23.13-24c0.31-12.43,10.89-22.91,23.27-23.05  c12.8-0.14,23.74,10.82,23.71,23.78C187.53,1045.2,177.1,1055.38,163.71,1055.21z"></path>	<path class="st0" d="M802.62,825.37c-13.19-0.07-23.44-10.72-23.11-24.01c0.31-12.64,10.64-22.89,23.2-23.05  c12.74-0.16,23.97,10.95,23.95,23.7C826.65,814.95,815.85,825.44,802.62,825.37z"></path></g></svg>