<svg xmlns="http://www.w3.org/2000/svg" xmlns:xlink="http://www.w3.org/1999/xlink" id="Layer_1" x="0px" y="0px" viewBox="0 0 1200 1200" style="enable-background:new 0 0 1200 1200;" xml:space="preserve"><style type="text/css">	.st0{fill:#0071DC;}	.st1{fill:#FF8B00;}	.st2{fill:none;}	.st3{fill:#252525;}</style><g>	<path class="st0" d="M752.88,0c15.37,2.93,30.83,5.48,46.11,8.86c154.32,34.23,268.23,164.97,279.1,322.68  c3.21,46.58,1.56,93.49,1.81,140.26c0.04,7.13,1.92,10.89,8.3,15.48c11.3,8.14,20.45,19.27,30.49,29.15  c-0.72,0.93-1.44,1.86-2.15,2.79c8.56,0,17.14-0.25,25.69,0.05c30.87,1.08,56.72,25.91,57.13,56.88  c0.72,54.96,0.69,109.94,0.02,164.9c-0.38,31.2-25.68,55.73-56.88,57.03c-8.55,0.36-17.13,0.05-25.86,0.05  c-7.02,15.81-17.25,27.92-32.98,35.22c-2.77,1.28-4.96,6.53-5.21,10.1c-10.41,144.92-106.09,269.5-244.21,314.54  c-29.29,9.55-60.75,12.38-91.14,18.67c-4.03,0.83-8.57,2.94-11.25,5.91c-8.91,9.89-19.55,15.1-32.84,15.09  c-45.61-0.02-91.23,0.15-136.84-0.08c-24.36-0.12-40.81-16.85-40.99-41.34c-0.2-25.73-0.21-51.46,0.01-77.19  c0.2-24.09,16.23-40.63,40.15-40.79c46-0.31,92-0.04,138.01-0.15c12.92-0.03,23.17,5.01,32.02,14.26  c2.44,2.55,7.19,4.45,10.69,4.18c111.36-8.68,205.87-101.41,216.39-212.05c0.5-5.23,1.52-9.76-5.46-13.32  c-22.14-11.28-32.6-30.36-32.75-55.06c-0.13-22.22-0.04-44.44-0.04-66.66c0-54.58,0.3-109.16-0.12-163.74  c-0.21-27.52,10.21-48.13,34.96-61.1c2.25-1.18,5-4.32,4.96-6.52c-0.77-51.79,3.21-104.29-3.97-155.21  c-15.87-112.54-102.88-191-215.96-201.96c-112.51-10.91-222.57,66.08-250.32,175.12c-0.18,0.72-0.11,1.51-0.22,3.42  c4.19,0,8.3,0,12.41,0c97.46,0,194.92-0.01,292.39,0.01c52.33,0.01,85.76,32.84,85.8,85.03c0.15,169.58,0.15,339.17,0,508.75  c-0.05,51.66-33.36,84.64-84.87,84.66c-131.38,0.05-262.76,0.07-394.14-0.13c-7.58-0.01-12.83,1.98-18.1,7.73  c-59.24,64.68-118.85,129.02-178.19,193.6c-12.79,13.92-27.68,21.5-46.75,17.34c-22.57-4.92-36.3-22.99-36.39-47.82  c-0.18-52.24-0.06-104.48-0.06-156.72c0-4.24,0-8.47,0-13.99c-11.45,0-22.24,0.01-33.02,0c-43.74-0.04-69.98-18.76-84.15-59.92  c-0.44-1.27-1.62-2.29-2.45-3.42C2,730.6,2,546.59,2,362.57c0.85-1.12,2.06-2.12,2.51-3.39c14.62-41.1,40.87-59.69,84.45-59.7  c69.39-0.01,138.78,0,208.16,0c22.96,0,45.93,0,68.89,0c0.56-1.61,0.99-2.63,1.27-3.69c0.59-2.26,1.12-4.54,1.65-6.81  C403.45,140.99,494.42,47.86,641.21,9.19c14.42-3.8,29.21-6.16,43.83-9.19C707.65,0,730.27,0,752.88,0z M335.84,977.93  c-13.36,0-23.8,0.27-34.22-0.07c-11.6-0.38-19.39-8.01-19.9-18.75c-0.53-11.21,7.23-19.82,19.09-20.88  c3.87-0.35,7.79-0.13,11.69-0.13c160.96,0,321.92,0.01,482.88-0.01c28.79,0,44.71-15.2,44.73-43.41  c0.11-170.7,0.11-341.41-0.01-512.11c-0.02-27.49-16.24-43.17-43.91-43.17c-236.57-0.03-473.14-0.03-709.7,0  c-28.11,0-44.56,16.14-44.57,43.95c-0.05,170.31-0.05,340.63,0,510.94c0.01,27.49,16.18,43.74,43.4,43.79  c43.26,0.08,86.52,0,129.78,0.03c17.03,0.01,26.03,6.84,26.21,19.73c0.18,13.02-8.78,20.1-25.61,20.13  c-17.78,0.04-35.56,0.01-54.14,0.01c0,57.86-0.07,114.29,0.2,170.73c0.01,2.88,2.39,7.56,4.53,8.12c2.33,0.62,6.34-1.97,8.46-4.24  c21.84-23.33,43.45-46.86,65.11-70.37C271.22,1048.15,302.58,1014.07,335.84,977.93z M1040.13,478.67c0-29.3,0.64-58.05-0.18-86.76  c-0.83-29.16-0.13-58.8-5.22-87.32C1005.39,140.16,861.16,29.53,694.12,41.7c-130.99,9.55-246.27,104.68-280.59,231.64  c-2.26,8.37-4.04,16.87-6.14,25.74c14.44,0,27.22,0,40.56,0c0.46-2.09,0.79-3.92,1.27-5.72  C488.31,148.15,621.35,61.14,768.94,84.24C890.67,103.3,991.4,212.84,998.41,335.7c2.48,43.52,1.29,87.25,1.77,130.88  c0.04,4.06,0.01,8.12,0.01,12.09C1014.37,478.67,1026.69,478.67,1040.13,478.67z M960.25,658.57c0,38.58-0.1,77.16,0.05,115.74  c0.07,17.31,6.77,23.82,24.17,23.9c24.16,0.11,48.32,0.15,72.48-0.02c15.47-0.11,22.97-7.4,23-22.95  c0.14-77.55,0.13-155.1,0.01-232.64c-0.03-16.16-7.52-23.33-23.86-23.42c-23.38-0.14-46.76-0.08-70.14-0.02  c-19.4,0.05-25.64,6.33-25.68,26.02C960.2,582.97,960.25,620.77,960.25,658.57z M999.14,838.65  c-6.38,69.26-32.85,128.47-81.54,177.12c-48.63,48.58-107.93,74.88-176.33,81.24c0,13.51,0,26.19,0,38.9  c168.01-7.68,293.93-154.75,296.04-297.26C1024.96,838.65,1012.61,838.65,999.14,838.65z M561.69,1078.56c0,26.93,0,52.82,0,78.68  c46.49,0,92.28,0,138.53,0c0-26.44,0-52.32,0-78.68C653.83,1078.56,608.03,1078.56,561.69,1078.56z M1120.77,558.99  c0,67.37,0,133.24,0,199.31c5.9,0,10.96,0.08,16.01-0.01c15.48-0.28,22.89-7.4,22.93-22.89c0.14-51.34,0.16-102.67-0.02-154.01  c-0.05-14.64-7.78-22.01-22.44-22.38C1131.88,558.88,1126.5,558.99,1120.77,558.99z"></path>	<path class="st0" d="M440.98,838.24c-96.27,0-192.54,0-288.81-0.01c-4.28,0-8.61,0.16-12.84-0.35  c-10.02-1.21-17.57-9.03-17.47-18.73c0.11-9.94,4.84-17.21,14.94-19.68c4.09-1,8.47-1.2,12.71-1.2  c194.49-0.05,388.98-0.05,583.47-0.04c18.15,0,27.12,6.68,27.21,20.02c0.07,10.14-6.38,18.04-16.41,19.5  c-4.21,0.62-8.55,0.46-12.83,0.47C634.3,838.24,537.64,838.24,440.98,838.24z"></path>	<path class="st0" d="M441.77,698.81c95.88,0,191.77,0,287.65,0.01c4.28,0,8.6-0.14,12.85,0.29c10.38,1.05,17.39,8.21,17.87,18.15  c0.52,10.9-4.92,17.82-15.17,20.6c-4.04,1.1-8.49,0.88-12.75,0.89c-194.11,0.04-388.21,0.03-582.32,0.02  c-3.5,0-7.07,0.21-10.5-0.34c-10.41-1.67-17.86-10.34-17.67-20.12c0.2-10.48,8.17-18.8,19.53-19.24  c13.23-0.51,26.5-0.24,39.75-0.24C267.94,698.81,354.86,698.81,441.77,698.81z"></path>	<path class="st0" d="M482,539.77c6.08-32.66,12.16-65.32,18.24-97.98c0.36-1.91,0.56-3.86,1.03-5.74  c3.14-12.63,12.38-19.31,23.69-17.2c10.8,2.02,17.35,11.13,15.38,23.67c-3.81,24.2-8.37,48.29-12.73,72.41  c-4.36,24.11-8.94,48.19-13.29,72.3c-3.59,19.9-15.5,31.41-32.99,31.55c-17.22,0.14-29.29-10.54-32.94-30  c-9.12-48.55-18.03-97.14-26.9-145.74c-2.08-11.39,4.7-21.82,15.14-24.11c11.26-2.48,21.53,4.15,23.93,16.56  c6.68,34.63,12.9,69.36,19.31,104.05C480.57,539.61,481.28,539.69,482,539.77z"></path>	<path class="st0" d="M621.4,458.95c0,13.6,0,25.96,0,39.9c6.12,0,12.22-0.35,18.27,0.07c12.92,0.9,21.25,9.21,21.02,20.47  c-0.23,11.34-8.73,18.99-21.79,19.42c-5.42,0.18-10.86,0.03-17.14,0.03c0,13.21,0,25.82,0,39.9c11.52,0,23.06-0.18,34.59,0.04  c15.81,0.31,24.49,7.91,24.13,20.7c-0.34,12.27-8.86,19.26-24.18,19.4c-17.13,0.16-34.27,0.19-51.4-0.01  c-16.41-0.19-23.99-7.21-24.06-23.23c-0.23-51.01-0.22-102.03,0-153.05c0.07-16.13,7.71-23.33,23.85-23.47  c17.52-0.16,35.05-0.17,52.57,0.01c14.66,0.15,23.41,8.01,23.22,20.39c-0.18,12.07-8.44,19.23-22.71,19.4  C645.81,459.06,633.84,458.95,621.4,458.95z"></path>	<path class="st0" d="M241.49,578.76c13.43,0,25.07-0.26,36.69,0.06c14.83,0.41,23.5,8.31,23.2,20.52  c-0.29,11.77-8.83,19.29-22.99,19.5c-17.91,0.26-35.83,0.27-53.73,0c-15.45-0.24-23.09-7.61-23.16-23.02  c-0.22-51.01-0.18-102.02-0.02-153.03c0.05-14.54,8.31-23.73,20.27-23.62c12.01,0.11,19.63,9.08,19.69,23.97  c0.14,40.5,0.05,80.99,0.05,121.49C241.5,568.84,241.49,573.05,241.49,578.76z"></path>	<path class="st0" d="M341.28,519.3c0-25.33-0.07-50.66,0.03-75.99c0.06-14.59,7.83-23.93,19.72-24.13  c11.93-0.21,20.06,9.12,20.09,23.58c0.08,50.66,0.08,101.32,0.01,151.98c-0.02,14.92-7.44,23.83-19.55,23.98  c-12.55,0.16-20.22-9.03-20.27-24.6C341.22,569.18,341.28,544.24,341.28,519.3z"></path></g></svg>