<svg xmlns="http://www.w3.org/2000/svg" xmlns:xlink="http://www.w3.org/1999/xlink" id="Layer_1" x="0px" y="0px" viewBox="0 0 1200 1200" style="enable-background:new 0 0 1200 1200;" xml:space="preserve"><style type="text/css">	.st0{fill:#0071DC;}	.st1{fill:#FF8B00;}	.st2{fill:none;}	.st3{fill:#252525;}</style><path class="st0" d="M967.97,1200c-245.31,0-490.63,0-735.94,0c-9.72-5.72-13.22-14.16-12.58-25.38c0.73-12.85-0.16-25.78,0.4-38.65 c1.39-32.38,26.46-57.12,58.79-58.13c12.88-0.4,25.78,0.15,38.65-0.34c3.41-0.13,7.95-1.55,9.92-4.02 c32.59-40.78,55.89-85.89,64.03-139.63c-4.96,0-9.11,0-13.27,0c-116.78,0-233.55-0.09-350.33,0.14C15.95,934.02,6.1,932.09,0,921.09 c0-256.25,0-512.5,0-768.75c5.82-10.4,14.92-12.96,26.38-12.92c88.52,0.3,177.04,0.17,265.56,0.17c4.15,0,8.3,0,13.12,0 c0-38.05,0.39-74.68-0.23-111.3c-0.2-11.63,2.56-20.97,11.58-28.29C460.94,0,605.47,0,750,0c4.73,4,9.77,7.69,14.13,12.05 c27.6,27.6,55.06,55.36,82.41,82.9c1.45-0.86,2.34-1.09,2.73-1.66c10.38-15.09,20.71-30.21,31.04-45.33 c16.98-24.85,37.06-28.85,61.75-12.28c4.44,2.98,8.87,5.96,13.8,9.27c3.03-4.35,5.95-7.99,8.29-11.98 c20.9-35.67,40.35-37.9,73-13.04c17.6,13.4,21.4,31.34,9.27,50.12c-5.27,8.17-10.86,16.13-16.58,24.61 c18.98,17.01,1.16,29.75-6.07,44.95c5.18,0,8.96,0,12.73,0c46.08,0,92.16,0.21,138.24-0.15c11.14-0.09,19.67,3.02,25.25,12.9 c0,256.25,0,512.5,0,768.75c-6.09,11.02-15.96,12.93-27.63,12.9c-116.78-0.23-233.56-0.14-350.34-0.14c-4.16,0-8.32,0-13.24,0 c7.71,51.68,29.8,95.23,60.1,135.23c4.63,6.12,9.26,9.32,17.31,8.8c11.67-0.75,23.43-0.43,35.13-0.05 c32.36,1.04,57.35,25.66,58.79,58.12c0.57,12.86-0.32,25.8,0.41,38.65C981.19,1185.82,977.66,1194.26,967.97,1200z M111.94,251.11 c0,190.89,0,380.89,0,570.94c325.94,0,651.18,0,976.12,0c0-190.6,0-380.61,0-571.26c-43.62,0-86.55,0.21-129.47-0.13 c-12.79-0.1-22.15,4.4-29.09,15.23c-8.84,13.78-18.92,26.8-27.25,40.87c-3.9,6.59-6.98,14.87-7,22.39 c-0.42,126.95-0.3,253.9-0.3,380.85c0,22.8-5.38,28.11-28.43,28.11c-177.73,0-355.46,0-533.19,0c-22.97,0-28.28-5.29-28.28-28.24 c0-148.82,0-297.65,0-446.47c0-4.08,0-8.16,0-12.29C239.83,251.11,176.24,251.11,111.94,251.11z M343.45,37.89 c0,221.46,0,441.88,0,661.84c171.74,0,342.6,0,513.29,0c0-108.38,0-215.88,0-325.41c-3.23,4.34-5.29,7.01-7.26,9.76 c-15.29,21.34-27.53,44.26-39.32,67.78c-11.26,22.47-28.89,41.65-41.68,63.47c-10.65,18.16-24.65,26.98-45.5,29.34 c-16.97,1.92-35.61,2.16-45.61,22.13c-4.33,8.65-15.35,8.35-23.94,2.64c-8.12-5.39-11.23-16.71-4.56-24.67 c9.92-11.83,9.01-23.66,5.34-36.9c-2.28-8.24-2.79-16.96-5.07-25.2c-3.08-11.16-0.51-20.28,6.43-29.38 c25.02-32.83,47-67.62,73.51-99.75c38.55-46.72,69.56-99.68,103.33-150.29c4.86-7.28,7.2-16.23,10.71-24.4 c-1.15-0.65-2.3-1.31-3.46-1.96c-1.89,2.08-4,3.99-5.63,6.26c-4.78,6.65-8.99,13.74-14.13,20.08c-6.04,7.45-13.99,9.97-22.94,5.33 c-9.4-4.87-11.69-13.04-9.21-22.83c0.64-2.54,1.89-4.92,3.36-8.62c-14.51,0-28.12,0.12-41.73-0.03 c-17.14-0.19-23.41-6.33-23.51-23.2c-0.14-24.61-0.04-49.21-0.04-73.82c0-13.94,0-27.89,0-42.18 C597.73,37.89,470.88,37.89,343.45,37.89z M973,213.27c44.18,0,85.91-0.02,127.65,0.01c19.78,0.01,25.65,5.87,25.65,25.97 c0.03,198.4,0.03,396.81,0,595.21c0,19.87-5.99,25.7-25.97,25.7c-333.54,0.01-667.08,0.01-1000.62,0c-20.04,0-26-5.8-26-25.66 c-0.03-198.4-0.03-396.81,0-595.21c0-20.57,5.69-26.02,26.76-26.02c64.05-0.01,128.1,0,192.16,0c4.08,0,8.17,0,11.84,0 c0-12.94,0-24.15,0-35.7c-89.05,0-177.52,0-266.38,0c0,239.68,0,478.92,0,718.19c374.91,0,749.25,0,1123.78,0 c0-239.8,0-479.04,0-718.62c-52.96,0-105.29-0.08-157.62,0.19c-3.33,0.02-7.85,1.8-9.75,4.31C987.3,191.18,980.96,201.38,973,213.27 z M371.78,1077.11c153.09,0,303.89,0,456.49,0c-30.55-43.86-50.55-90.61-57.57-142.79c-113.96,0-227.41,0-341.4,0 C422.24,986.47,402.26,1033.23,371.78,1077.11z M942.86,1162.02c0-3.62-0.01-5.96,0-8.3c0.14-33.84-4.49-38.51-38.26-38.51 c-201.53,0-403.06,0-604.59,0c-40.16,0-43.52,3.38-42.82,43.25c0.02,1.06,0.43,2.12,0.73,3.55 C486.06,1162.02,713.98,1162.02,942.86,1162.02z M868.75,217c-37.04,54.64-73.61,108.59-110.37,162.81 c11.7,7.89,22.21,14.98,33.36,22.5c36.96-54.49,73.42-108.24,110.44-162.81C891.08,232.04,880.21,224.72,868.75,217z M949.89,86.27 c-21.94,32.38-43.3,63.88-65.14,96.1c14.73,10,28.78,19.54,43.6,29.6c21.95-32.4,43.4-64.07,65.08-96.08 C978.54,105.77,964.7,96.35,949.89,86.27z M732.17,407.36c-14.71,21.71-29.17,42.91-43.41,64.26c-1.36,2.05-2.2,5.16-1.8,7.54 c1.76,10.61,4.06,21.14,6.35,32.62c9.75-1.88,18.52-3.31,27.14-5.36c3.93-0.93,9.08-2.01,11.1-4.85 c15.01-21.14,29.37-42.75,44.19-64.6C760.87,426.86,746.76,417.28,732.17,407.36z M763.98,67.53c0,23.2,0,47.09,0,72.12 c14.41,0,28.42-0.69,42.34,0.23c10.22,0.68,16.22-2.93,18.83-11.4C804.51,107.92,784.24,87.71,763.98,67.53z M1003.13,42.23 c-5.69,8.6-10.71,16.21-15.9,24.06c4.16,2.79,7.3,4.9,11.35,7.61c5.54-8.2,10.67-15.8,15.99-23.68 C1010.84,47.61,1007.68,45.41,1003.13,42.23z M918.99,65.61c-1.29-0.85-2.57-1.69-3.86-2.54c-11.28,16.61-22.56,33.21-33.84,49.82 c1.15,0.79,2.3,1.57,3.45,2.36C896.16,98.7,907.58,82.15,918.99,65.61z"></path><path class="st0" d="M554.9,147.35c37.06,0,74.13-0.05,111.19,0.02c14.76,0.03,23.15,7.06,22.92,18.88 c-0.22,11.28-8.62,18.55-22.43,18.57c-74.52,0.1-149.04,0.1-223.55,0c-13.74-0.02-22.15-7.36-22.31-18.65 c-0.17-11.77,8.25-18.77,22.99-18.8C480.78,147.31,517.84,147.35,554.9,147.35z"></path><path class="st0" d="M554.3,628.31c-36.67,0-73.35,0.03-110.02-0.02c-14.91-0.02-23.34-6.68-23.56-18.33 c-0.21-11.66,8.51-19.12,22.93-19.13c74.13-0.06,148.25,0.01,222.38-0.08c8.78-0.01,17.31,1.64,20.33,10.37 c1.91,5.54,2.2,14.35-0.99,18.24c-3.97,4.84-12.23,8.44-18.72,8.57C629.21,628.71,591.75,628.31,554.3,628.31z"></path><path class="st0" d="M555.58,295.23c36.67,0,73.34-0.03,110.01,0.01c14.94,0.02,23.31,6.68,23.42,18.42 c0.1,11.72-8.49,19.02-23.09,19.03c-74.12,0.07-148.24,0.07-222.36,0c-14.41-0.02-23.06-7.55-22.79-19.27 c0.26-11.37,8.48-18.15,22.47-18.17C480.68,295.19,518.13,295.23,555.58,295.23z"></path><path class="st0" d="M496.84,480.46c-18.31,0-36.62,0.12-54.93-0.04c-12.81-0.12-20.94-7.39-21.13-18.37 c-0.18-11.05,7.92-18.94,20.52-19.01c37.79-0.19,75.58-0.19,113.37,0c12.67,0.06,20.68,7.87,20.51,18.98 c-0.17,11.02-8.25,18.28-21.08,18.39C535.02,480.59,515.93,480.46,496.84,480.46z"></path><g>	<path class="st1" d="M-105.39,459.7l-6.87-7.21l-0.02-0.02l-2.58-2.99c-0.17-0.03-0.34-0.04-0.51-0.05  c-0.47-0.03-0.92,0.01-1.37,0.09c-1.95,0.34-3.73,1.54-5.21,2.57c0-0.01,0.01-0.03,0.02-0.04c-0.66,0.43-1.26,0.84-1.76,1.2  c-2.79,1.62-5.93,1.77-7.49,1.72c-0.03,0-0.06,0-0.08,0c-0.02,0-0.04,0-0.06,0c-0.08,0-0.15,0-0.22-0.01  c-0.05,0-0.09-0.01-0.13-0.01c-0.03,0-0.05,0-0.08-0.01c-0.17-0.01-0.29-0.03-0.35-0.03c-0.04,0-0.06,0-0.06,0  c-7.35-0.76-15.95-6.04-28.79-19.38c-6.68-6.94-13.84-15.52-23.48-17.71c-7-1.6-14.05,1.14-17.61,7.68  c-2.38,4.38-2.36,9.82-0.29,14.31c0.12,0.25,0.26,0.51,0.41,0.8c0.04,0.08,0.08,0.15,0.12,0.23c0,0.01,0.01,0.01,0.01,0.02  c0.07,0.12,0.14,0.25,0.21,0.37c0.97,1.65,2.23,3.13,3.69,4.38c0.96,0.77,1.98,1.41,2.99,1.93c0.55,0.29,1.09,0.54,1.62,0.76  c0.09,0.04,0.19,0.08,0.28,0.12c0.01,0,0.02,0.01,0.02,0.01c0.26,0.11,0.52,0.2,0.77,0.3c2.52,0.91,4.46,1.14,4.46,1.14  c0.03-1.79-0.94-3.45-2.49-4.34c-0.09-0.05-0.18-0.11-0.27-0.16c-1.4-0.83-2.42-1.63-3.14-2.28c-0.12-0.11-0.23-0.21-0.33-0.31  c-0.71-0.69-1.04-1.16-1.07-1.22c0,0,0-0.01,0-0.01c-0.05-0.06-0.1-0.11-0.15-0.17c-0.04-0.05-0.08-0.09-0.12-0.14  c-0.11-0.13-0.21-0.25-0.31-0.37c-0.08-0.1-0.16-0.19-0.23-0.29c-0.08-0.09-0.15-0.18-0.21-0.27c-0.03-0.05-0.07-0.09-0.1-0.13  c-0.13-0.17-0.26-0.33-0.37-0.49c-0.03-0.04-0.06-0.08-0.08-0.11c-0.05-0.07-0.1-0.14-0.15-0.21c-0.05-0.07-0.09-0.13-0.13-0.19  c-0.04-0.06-0.08-0.11-0.11-0.16c-0.05-0.07-0.09-0.14-0.13-0.2c-0.02-0.03-0.04-0.06-0.06-0.1c-0.04-0.07-0.09-0.15-0.13-0.24  c-0.03-0.04-0.05-0.09-0.07-0.14c-0.07-0.14-0.15-0.31-0.23-0.48c-0.11-0.24-0.22-0.5-0.33-0.79c-0.04-0.1-0.08-0.19-0.11-0.3  c-0.08-0.2-0.15-0.41-0.22-0.63c-0.04-0.11-0.07-0.22-0.11-0.33c-0.81-2.63-1.32-6.34,0.31-9.27c0.65-1.17,1.36-2.15,2.11-2.97  c0,0,0,0,0,0c0.27-0.3,0.55-0.57,0.83-0.83c0.07-0.07,0.14-0.13,0.21-0.19c0.77-0.67,1.58-1.17,2.43-1.54  c0.17-0.08,0.33-0.14,0.5-0.2c0.44-0.16,0.89-0.29,1.35-0.38c0.17-0.03,0.35-0.06,0.52-0.09c0.31-0.04,0.62-0.07,0.93-0.09  c0.02,0,0.03,0,0.05,0c1.3-0.06,2.65,0.13,4.01,0.5c0.11,0.03,0.22,0.06,0.33,0.09c0.22,0.06,0.44,0.13,0.66,0.21  c0.22,0.07,0.44,0.15,0.66,0.23h0c0.54,0.21,1.08,0.44,1.63,0.69c1.45,0.68,2.91,1.53,4.36,2.49c0.36,0.24,0.72,0.49,1.08,0.74  c0.36,0.25,0.72,0.51,1.07,0.78c0.18,0.13,0.36,0.27,0.53,0.4c0.31,0.24,0.63,0.48,0.94,0.73c0.31,0.25,0.62,0.5,0.93,0.75  c0.31,0.25,0.61,0.51,0.91,0.77c0.45,0.38,0.9,0.77,1.34,1.17c0.15,0.13,0.29,0.26,0.44,0.39c0.58,0.53,1.16,1.06,1.72,1.58  c0.28,0.26,0.56,0.53,0.83,0.79c0.68,0.66,1.34,1.31,1.97,1.94c0.19,0.19,0.38,0.38,0.56,0.56c0.18,0.19,0.37,0.37,0.55,0.56  c0.12,0.12,0.24,0.24,0.36,0.36c0.29,0.3,0.58,0.6,0.86,0.88c0.83,0.86,1.6,1.66,2.27,2.37c0.46,0.48,0.92,0.95,1.37,1.4  c0.03,0.03,0.06,0.06,0.09,0.09c3.35,3.42,6.38,6.28,9.24,8.74l0.02,0.01l0.01,0l0.01,0c0.01,0.01,0.03,0.03,0.04,0.04l0.01,0.01  c0,0,0.01,0,0.01,0.01c0.01,0.01,0.02,0.02,0.03,0.03c0.01,0.01,0.02,0.02,0.03,0.02v0c0.01,0.01,0.02,0.02,0.03,0.03  c0.01,0.01,0.03,0.02,0.04,0.03c0.02,0.01,0.03,0.03,0.05,0.04c0.08,0.06,0.17,0.14,0.27,0.23c0.04,0.04,0.09,0.08,0.14,0.11  s0.1,0.08,0.15,0.12c0.1,0.09,0.22,0.18,0.34,0.28c0.09,0.07,0.18,0.15,0.27,0.22c1.37,1.12,3.61,2.88,6.28,4.7  c0.13,0.09,0.26,0.18,0.39,0.27c0.13,0.09,0.26,0.18,0.4,0.27c0.15,0.1,0.3,0.2,0.45,0.3c0.45,0.3,0.88,0.58,1.32,0.85  c0.08,0.05,0.16,0.1,0.24,0.16c0.08,0.05,0.16,0.1,0.24,0.15c0.03,0.02,0.06,0.04,0.08,0.05c1.16,0.73,2.29,1.4,3.49,2.03  c0.13,0.07,0.25,0.14,0.38,0.2c0.11,0.06,0.23,0.12,0.34,0.18c0.03,0.02,0.06,0.03,0.09,0.05c0.77,0.39,1.58,0.78,2.43,1.16  c0.12,0.05,0.25,0.11,0.37,0.16c0.02,0.01,0.03,0.01,0.05,0.02c0.04,0.02,0.09,0.04,0.14,0.06c0.26,0.11,0.51,0.21,0.76,0.3  c0.1,0.04,0.2,0.07,0.29,0.11c0.39,0.14,0.79,0.27,1.2,0.42h0c0.28,0.09,0.56,0.17,0.85,0.25c0.28,0.08,0.56,0.15,0.84,0.21h0  c0,0,0.01,0,0.02,0c0.06,0.01,0.26,0.06,0.44,0.1c0.04,0.01,0.08,0.02,0.11,0.02c0.07,0.02,0.12,0.03,0.15,0.03  c-0.01,0-0.01-0.01-0.02-0.01c0,0,0,0-0.01,0c-0.01,0-0.02-0.01-0.03-0.01c0.01,0,0.03,0,0.05,0.01l0.01,0l0.01,0.01  c0.01,0,0.01,0.01,0.02,0.01c0,0,0.01,0,0.01,0h0c0,0,0,0,0.01,0c0.87,0.23,1.75,0.42,2.63,0.57c0.01,0,0.03,0,0.04,0.01h0.01  c0.32,0.04,1.28,0.21,2.58,0.34c0.08,0.01,0.16,0.02,0.24,0.03c1.67,0.16,3.84,0.26,5.92-0.03c0,0,0,0,0.01,0h0.01  c4.28-0.42,8.16-1.69,11.05-3.65l-0.26-0.27L-105.39,459.7z M-129.73,454.99c0.33-0.01,0.65-0.03,0.97-0.05  C-129.08,454.96-129.4,454.98-129.73,454.99z"></path>	<path class="st1" d="M-99.23,446.55l-9.08-9.13c0,0-7.65,9.54-3.59,13.62l8.11,8.15C-105.4,455.91-99.23,446.55-99.23,446.55z   M-105.32,454.98c0,0-2.92-1.72-2.6-5.06l-2.3-0.5l1.83-2.01l1.83-2.01l0.83,2.59l0.83,2.59l-2-0.44  C-107.06,451.4-106.96,453.38-105.32,454.98z"></path>	<g>		<path class="st1" d="M-274.62,461.3c0.97,0.94,2.07,0.71,2.45-0.54c0.06-0.19,0.11-0.38,0.15-0.58c0.33-1.59,0.19-3.25-0.3-4.83   c-0.29-0.93-0.6-1.88-0.99-2.8c-0.39-0.93-1.1-1.8-1.85-2.52c-0.81-0.78-1.87-0.6-2.31,0.4c-0.21,0.47-0.33,1-0.38,1.52   c-0.22,2.51,0.39,4.89,1.56,7.13C-275.87,459.89-275.28,460.66-274.62,461.3z"></path>		<path class="st1" d="M-279.87,466.61c0,0,8.18,15.29,21.44,11.65c4.45-1.22,9.2-6.97,7.49-13.91   C-250.93,464.34-264.58,478.15-279.87,466.61z"></path>		<path class="st1" d="M-251.69,463.47c0,0,0.91-0.25,1.77,0.64C-249.91,464.11-250.11,462.67-251.69,463.47z"></path>		<path class="st1" d="M-280.81,467.48c0-1.49,1.88-1.76,1.88-1.76C-281.53,465.42-280.81,467.48-280.81,467.48z"></path>		<path class="st1" d="M-259.51,453.73c0,0,3.19-4.48,9.11-6.37c0,0-9.4-0.29-12.32,9.84c0,0,6.73-5.67,14.26-5.43   C-248.47,451.77-254.9,450.46-259.51,453.73z"></path>		<path class="st1" d="M-207.5,480.15c-3.97,0-7.18,3.21-7.18,7.18c0,3.97,3.21,7.18,7.18,7.18s7.18-3.21,7.18-7.18   C-200.32,483.37-203.54,480.15-207.5,480.15z M-209.59,491.47l-0.29-8.47l7.1,3.72L-209.59,491.47z"></path>	</g>	<path class="st2" d="M-197.53,459.63c-0.53,0.53-1.08,1.05-1.64,1.55c-0.56,0.51-1.12,1.01-1.69,1.5  c-1.42,1.22-2.86,2.36-4.16,3.35c-0.26,0.2-0.51,0.39-0.76,0.58c-0.25,0.18-0.49,0.37-0.73,0.54c-0.07,0.04-0.13,0.09-0.2,0.14  c-0.1,0.08-0.19,0.14-0.29,0.22c-0.18,0.13-0.35,0.26-0.52,0.38c-0.21,0.15-0.42,0.3-0.61,0.44c-0.29,0.21-0.56,0.39-0.8,0.57  c0.05,0.54,0.12,1.06,0.22,1.56c0.1,0.49,0.22,0.97,0.36,1.43c0.07,0.23,0.15,0.46,0.23,0.67c0.17,0.43,0.35,0.85,0.54,1.24  c0,0.01,0,0.01,0,0.01c0.21,0.39,0.42,0.77,0.65,1.12v0.01c0.09,0.14,0.18,0.28,0.28,0.41c0.01,0.01,0.01,0.02,0.02,0.02  c0.08,0.12,0.17,0.23,0.26,0.34c0.09,0.12,0.19,0.24,0.29,0.36c0.09,0.12,0.19,0.23,0.29,0.34c0.14,0.15,0.28,0.29,0.42,0.43  c0.28,0.28,0.57,0.54,0.87,0.79c0.61,0.49,1.25,0.92,1.89,1.28c0.13,0.07,0.25,0.14,0.37,0.2c0.12,0.06,0.24,0.12,0.36,0.17  c0.13,0.07,0.26,0.13,0.39,0.18c0.2,0.09,0.39,0.17,0.59,0.24c0.14,0.06,0.29,0.11,0.43,0.16c0.14,0.05,0.29,0.1,0.43,0.14  c0.13,0.04,0.26,0.08,0.39,0.12c0.09,0.02,0.19,0.05,0.28,0.07c0.13,0.03,0.26,0.06,0.38,0.09c0.08,0.02,0.16,0.03,0.23,0.05  s0.16,0.03,0.23,0.04c0.09,0.02,0.19,0.03,0.28,0.04c0.02,0.01,0.04,0.01,0.06,0.01c0.03,0.01,0.05,0.01,0.08,0.01  c0.13,0.02,0.26,0.03,0.38,0.04c0.11,0.01,0.21,0.02,0.31,0.03c0.08,0.01,0.17,0.02,0.26,0.02c0.13,0.01,0.26,0.01,0.38,0.01h0.01  v-21.7l-0.01,0.01C-197.01,459.12-197.27,459.38-197.53,459.63z"></path>	<path class="st2" d="M-171.08,465.2c-0.58,0.39-1.13,0.75-1.66,1.08c-0.27,0.17-0.52,0.32-0.77,0.48  c-0.25,0.15-0.49,0.29-0.72,0.43c-0.23,0.13-0.46,0.26-0.68,0.38c-0.22,0.12-0.42,0.23-0.62,0.33c-0.29,0.15-0.57,0.28-0.82,0.4  v0.01c0.03,0.21,0.06,0.42,0.1,0.63c0,0.01,0.01,0.03,0.01,0.04V469c0.04,0.2,0.08,0.39,0.12,0.58c0,0.01,0,0.01,0,0.01  c0.04,0.21,0.09,0.41,0.15,0.6c0.06,0.19,0.11,0.39,0.17,0.58c0.06,0.19,0.13,0.38,0.19,0.56c0.07,0.18,0.14,0.37,0.22,0.54  c0.15,0.36,0.32,0.7,0.49,1.03c0.09,0.17,0.18,0.33,0.27,0.49c0.09,0.16,0.19,0.32,0.28,0.47c0.11,0.15,0.21,0.3,0.31,0.44  c0.11,0.15,0.21,0.29,0.32,0.43c0,0.01,0,0.01,0,0.01c0.11,0.14,0.22,0.28,0.33,0.42s0.23,0.27,0.34,0.39  c0.23,0.26,0.47,0.51,0.71,0.75c0.14,0.14,0.28,0.27,0.43,0.41c0.02,0.02,0.04,0.04,0.07,0.06c0.12,0.11,0.25,0.22,0.37,0.32  c0.13,0.11,0.26,0.21,0.38,0.32c0.02,0.01,0.04,0.03,0.07,0.05c0.15,0.12,0.3,0.23,0.45,0.34c0.34,0.25,0.69,0.48,1.04,0.7  c0.17,0.11,0.35,0.21,0.52,0.31c0.26,0.15,0.52,0.29,0.77,0.42c0.17,0.08,0.34,0.17,0.51,0.24c0.42,0.2,0.82,0.37,1.21,0.51  c0.16,0.06,0.31,0.11,0.46,0.17c0.67,0.23,1.26,0.38,1.75,0.47c0.11,0.02,0.21,0.03,0.3,0.04c0.62,0.08,0.98,0.03,0.98-0.13v-21.7  c-1.3,1.19-2.61,2.3-3.9,3.31C-168.39,463.3-169.79,464.33-171.08,465.2z"></path>	<path class="st0" d="M-102.57,458.44c1.23-5.46,11.68-14.36,11.68-14.36l-9.08-9.13c0,0-0.57,0.45-1.38,1.26l7.7,7.74  C-93.65,443.95-102.46,452.98-102.57,458.44z"></path>	<path class="st0" d="M-103.21,458.63c-0.65-4.65,8.37-14.53,8.37-14.53l-9.08-9.13c0,0-1.07,1.48-1.94,3.58l7.73,7.77  C-98.13,446.31-104.35,456.3-103.21,458.63z"></path>	<path class="st0" d="M-191.55,488.05l-0.1,0.12l-1.25,4.6c0,0,1.48,0.23,2.82,5.2h0.24v-6.43c0,0-1.23-1.03,0-1.58  c0.71-0.32,1.62,0.24,0.71,1.62l-0.08,6.39h0.19c0,0,0.64-3.82,2.8-5.37l-1.21-4.55H-191.55z"></path>	<path class="st0" d="M-187.5,487.25v-1.75c0,0-4.72,0.14-5.97-3.76c0,0,0.36,2.86,1.86,5.51H-187.5z"></path>	<path class="st0" d="M-123.3,488.95c-0.13-0.05-0.27-0.11-0.4-0.16c-0.07-0.03-0.13-0.05-0.2-0.08c-0.25-0.1-0.49-0.19-0.73-0.27  c0.16-0.74,0.31-1.54,0.45-2.43c0.24-1.54,0.43-3.32,0.53-5.34c0.02-1.22,0.04-2.44,0.06-3.62c0.04-3.92,0.03-7.43-0.11-9.34  c-0.25-1.22-0.73-1.5-1.79-1.54c-0.9,0.07-1.78,0.27-2.64,0.56c-3.06,1.08-5.74,3.48-7.83,5.89c-0.02,0.02-0.03,0.03-0.04,0.05  c-0.01,0.01-0.01,0.01-0.01,0.01c-0.01,0-0.01,0.01-0.02,0.02c-1.89,2.19-3.3,4.38-4.07,5.55v-20.26  c-0.01-0.01-0.09-0.09-0.26-0.22c-0.24-0.16-0.47-0.33-0.71-0.5c-0.02-0.02-0.05-0.03-0.07-0.06c-0.13-0.09-0.27-0.19-0.39-0.28  c-0.13-0.1-0.26-0.19-0.39-0.28c-0.28-0.21-0.55-0.41-0.81-0.61c-0.18-0.14-0.36-0.27-0.53-0.41c-0.33-0.25-0.64-0.48-0.93-0.71  c-0.5-0.38-0.94-0.73-1.33-1.05c-0.25-0.2-0.48-0.38-0.68-0.55c-0.04-0.03-0.09-0.07-0.13-0.1c-0.06-0.04-0.11-0.08-0.16-0.13  c-0.21,0-0.42-0.01-0.65-0.01c-0.34-0.01-0.7-0.01-1.08-0.01c-0.25,0-0.52,0-0.8,0c-0.14-0.01-0.28-0.01-0.42-0.01  c-0.43-0.01-0.88-0.01-1.34-0.01c-0.16-0.01-0.31-0.01-0.47-0.01c-0.48-0.01-0.98-0.01-1.5-0.01c-0.34,0-0.69-0.01-1.06-0.01  c-0.65-0.01-1.33-0.01-2.03-0.02c-0.07,0-0.15-0.01-0.22,0c-0.3-0.01-0.61-0.01-0.92-0.01c-0.62,0-1.26-0.01-1.92-0.01  c-0.06,0-0.13-0.01-0.19,0c-0.63-0.01-1.27-0.01-1.93-0.02c-2.84-0.03-5.89-0.06-9.07-0.08c-0.98-0.01-1.97-0.02-2.97-0.03  c-1-0.01-2.01-0.02-3.02-0.03c-1.01-0.01-2.03-0.02-3.05-0.03c-1.03-0.01-2.05-0.02-3.07-0.03c-1.02-0.01-2.05-0.02-3.07-0.03  c-0.51-0.01-1.02-0.01-1.53-0.02l-2.61-0.02c-13.86-0.13-26.35-0.24-29.78-0.27v-0.01c-0.19,0.01-0.89,0-0.92,0v0.01l-7.48,0.09  c-0.15,0.62-0.31,1.24-0.48,1.87l7-0.09v24.94c-0.92-1.34-1.83-2.48-2.84-3.45c-0.01-0.02-0.04-0.04-0.05-0.05  c-1.3-1.17-3.13-2.4-5.62-3.3c-1.5-0.51-3.26-0.89-5.37-1.19l0,0l-0.05-0.01c-0.01,0-0.01,0-0.02,0c0,0,0,0,0,0l0,0  c0.01-0.01,0.01-0.02,0.02-0.03c0.25-0.41,0.47-0.78,0.66-1.12c0.34-0.61,0.66-1.22,0.98-1.84c2.37-4.63,4.1-9.41,5.3-13.85  c0.17-0.63,0.33-1.25,0.48-1.87c1.76-7.24,2.09-13.31,1.53-15.83l-15.31,6.43c0,0,7.16,13.99-1.4,31.91  c-9.87,20.66-42.45,17.15-51.3-8.28l-5.88,1.47c0,0,18.72,31.2,44.28,21.53c0.66-0.26,1.31-0.53,1.95-0.82  c0.19-0.09,0.39-0.18,0.58-0.27c6.25-2.96,11.08-7.83,14.39-12.07c0,0,0,0,0,0c10.43,0.41,16.15,4.45,16.96,6.38l-14.38,8.75  c2.37,14.64,14.51,15.27,16.96,15.03v-52.45c2.88,0.02,11.38,0.1,21.69,0.2c-2.87,3.23-11.7,9.91-17.27,13.83  c0.71,4.8,3.32,8.14,6.44,10.46c0.1-0.02,0.22-0.03,0.32-0.04c3.26-0.33,6.18,1.35,7.65,3.95c2.77,0.85,4.98,1.13,5.5,1.16v-29.34  c1.78,0.02,3.6,0.03,5.44,0.05c0.94,4.58-10.16,29.79,1.86,30.02l0.71-29.99c7.74,0.07,15.75,0.14,22.74,0.21  c-5.51,5.19-18.45,10.98-18.59,11.05l-0.61,0.27c-0.68,10.39,14.69,17.46,22.14,17.4v-28.69c19.88,0.77,19.79-3.89,19.18,13.82  c-12.82-16.47-26.12,6.5-11.83,15.16c6.7-10.62-1.55-7.43-1.7-14.6c1.87-5.8,9.56-5.13,13.53,3.1v10.16c0,1.07,1.5,1.31,1.83,0.29  c0.03-0.09,4.61-8.92,9.28-11.18c1.07-0.52,2.27-0.29,3.08,0.43c0,0,0.01,0,0.01,0.01c0.07,0.06,0.13,0.13,0.19,0.19  c0.01,0.01,0.01,0.01,0.02,0.02c0.19,0.27,0.49,0.86,0.74,2.11c0.09,0.46,0.18,1.01,0.25,1.67c0.13,1.15,0.21,2.62,0.22,4.51v0.05  c0,0.33,0,0.63,0.01,0.89c0,1.31-0.05,2.82-0.2,4.51c-0.05,0.56-0.11,1.15-0.18,1.75c-0.49-0.14-0.79-0.21-0.79-0.21  c-44.87-11.72-21.35,43.32,1.17,6.37l0,0c0,0,0.01-0.02,0.03-0.06c0.13-0.21,0.25-0.42,0.38-0.63c7.93,2.93,11.76,6.48,31.81,27.49  c0.01,0.02,0.04,0.04,0.06,0.07c1.24,1.29,2.5,2.64,3.78,4.03v-15.59C-95.52,503.92-106.65,495.88-123.3,488.95z M-221.08,503.15  c-0.22,0.08-0.65,0.15-1.2,0.12c-0.01,0-0.03,0-0.04-0.01c-0.05,0-0.12,0-0.18-0.01c-0.16-0.01-0.32-0.03-0.49-0.06  c-0.17-0.03-0.34-0.06-0.53-0.11c-0.08-0.02-0.17-0.04-0.25-0.07c-0.21-0.06-0.41-0.13-0.63-0.22c-0.09-0.03-0.18-0.07-0.27-0.11  c-0.08-0.03-0.16-0.07-0.23-0.11c-0.09-0.04-0.19-0.1-0.29-0.15c-0.06-0.04-0.13-0.07-0.19-0.11c-0.09-0.05-0.18-0.1-0.27-0.17  c-0.43-0.27-0.86-0.6-1.29-1c-0.13-0.13-0.26-0.26-0.4-0.41c-0.33-0.35-0.65-0.75-0.96-1.2c-0.07-0.1-0.13-0.18-0.19-0.28  c-0.19-0.3-0.39-0.63-0.58-0.97c-0.09-0.17-0.18-0.35-0.27-0.54c-0.18-0.37-0.35-0.77-0.52-1.18c-0.16-0.42-0.32-0.86-0.47-1.34  c-0.07-0.23-0.15-0.48-0.21-0.73c-0.04-0.17-0.09-0.34-0.13-0.51c-0.03-0.14-0.07-0.28-0.1-0.44c-0.04-0.2-0.1-0.42-0.14-0.64  v-0.01l9.84-5.99V503.15z M-196.74,480.55L-196.74,480.55c-0.13,0-0.26-0.01-0.39-0.01c-0.08,0-0.17-0.01-0.26-0.02  c-0.1,0-0.21-0.01-0.31-0.03c-0.12-0.01-0.25-0.03-0.38-0.04c-0.03-0.01-0.05-0.01-0.08-0.01c-0.02-0.01-0.04-0.01-0.06-0.01  c-0.09-0.01-0.19-0.03-0.28-0.04c-0.08-0.02-0.16-0.03-0.23-0.04c-0.08-0.01-0.16-0.03-0.23-0.05c-0.13-0.03-0.26-0.05-0.38-0.09  c-0.1-0.02-0.19-0.05-0.28-0.07c-0.13-0.04-0.26-0.08-0.39-0.12c-0.15-0.04-0.29-0.09-0.43-0.14c-0.15-0.05-0.29-0.1-0.44-0.16  c-0.2-0.07-0.39-0.16-0.59-0.25c-0.13-0.05-0.26-0.12-0.39-0.18c-0.12-0.05-0.23-0.11-0.36-0.17c-0.12-0.06-0.25-0.13-0.37-0.2  c-0.65-0.36-1.29-0.79-1.89-1.29c-0.3-0.25-0.58-0.51-0.87-0.79c-0.14-0.14-0.28-0.28-0.42-0.43c-0.1-0.11-0.2-0.23-0.29-0.34  c-0.1-0.12-0.19-0.23-0.29-0.36c-0.09-0.11-0.17-0.22-0.26-0.34c0,0-0.01-0.01-0.01-0.02c-0.1-0.13-0.19-0.27-0.28-0.41v-0.01  c-0.23-0.35-0.45-0.73-0.65-1.12c0,0,0,0,0,0c-0.19-0.4-0.38-0.81-0.54-1.24c-0.08-0.22-0.16-0.45-0.23-0.67  c-0.14-0.46-0.26-0.94-0.36-1.43c-0.1-0.5-0.17-1.03-0.22-1.56c0.24-0.17,0.51-0.36,0.79-0.57c0.19-0.14,0.39-0.29,0.61-0.44  c0.17-0.12,0.34-0.25,0.52-0.38c0.1-0.07,0.19-0.14,0.29-0.22c0.07-0.05,0.13-0.1,0.2-0.14c0.23-0.18,0.48-0.36,0.73-0.55  c0.25-0.19,0.5-0.38,0.76-0.58c1.3-1,2.74-2.13,4.17-3.35c0.56-0.48,1.13-0.98,1.69-1.49c0.56-0.5,1.11-1.02,1.64-1.55  c0.26-0.26,0.52-0.52,0.78-0.78l0.01-0.01V480.55z M-163.05,480.55c0,0.16-0.37,0.21-0.99,0.13c-0.09-0.01-0.19-0.03-0.3-0.04  c-0.48-0.08-1.08-0.24-1.75-0.47c-0.14-0.05-0.3-0.1-0.46-0.16c-0.38-0.15-0.79-0.31-1.2-0.51c-0.17-0.08-0.33-0.16-0.51-0.24  c-0.25-0.13-0.51-0.27-0.77-0.42c-0.17-0.1-0.35-0.21-0.52-0.31c-0.34-0.22-0.7-0.45-1.04-0.7c-0.15-0.11-0.3-0.22-0.45-0.34  c-0.02-0.01-0.04-0.04-0.07-0.05c-0.13-0.1-0.26-0.21-0.38-0.32c-0.12-0.1-0.25-0.21-0.37-0.32c-0.02-0.02-0.04-0.04-0.07-0.06  c-0.15-0.13-0.28-0.27-0.43-0.41c-0.25-0.24-0.48-0.49-0.71-0.75c-0.11-0.13-0.23-0.26-0.34-0.39s-0.22-0.27-0.33-0.42c0,0,0,0,0,0  c-0.1-0.14-0.21-0.28-0.32-0.43c-0.1-0.15-0.2-0.3-0.3-0.45c-0.1-0.16-0.19-0.31-0.28-0.47c-0.1-0.16-0.18-0.32-0.27-0.49  c-0.17-0.33-0.34-0.68-0.49-1.03c-0.08-0.18-0.15-0.36-0.22-0.54c-0.07-0.19-0.13-0.37-0.2-0.56c-0.06-0.19-0.12-0.39-0.17-0.59  c-0.06-0.19-0.11-0.39-0.15-0.6c0,0,0,0,0,0c-0.04-0.19-0.08-0.39-0.12-0.59v-0.01c0-0.01-0.01-0.03-0.01-0.04  c-0.04-0.21-0.07-0.42-0.1-0.63v0c0.25-0.12,0.53-0.25,0.82-0.4c0.2-0.11,0.4-0.22,0.62-0.33c0.22-0.12,0.45-0.25,0.68-0.38  c0.23-0.13,0.47-0.28,0.72-0.43c0.25-0.16,0.51-0.31,0.77-0.48c0.53-0.33,1.08-0.69,1.66-1.08c1.29-0.88,2.69-1.9,4.13-3.04  c1.28-1.01,2.59-2.12,3.9-3.31V480.55z M-127.85,493.34c-0.04,0.09-0.08,0.19-0.13,0.27c-0.1,0.2-0.19,0.4-0.3,0.59  c-0.03,0.06-0.06,0.12-0.1,0.18c-0.12,0.23-0.25,0.45-0.37,0.67c-0.01,0.01-0.01,0.03-0.03,0.04c-0.06,0.1-0.12,0.21-0.19,0.31  c-0.01,0.01-0.01,0.03-0.02,0.04c-0.12,0.19-0.23,0.38-0.36,0.56c-0.15,0.23-0.3,0.47-0.47,0.7c-0.09,0.13-0.18,0.25-0.27,0.37  c-0.09,0.13-0.19,0.26-0.28,0.38c-0.06,0.07-0.11,0.15-0.17,0.22c-0.16,0.2-0.31,0.39-0.47,0.59c-0.01,0.02-0.04,0.04-0.05,0.06  c-0.01,0.02-0.03,0.03-0.04,0.05c-0.19,0.22-0.37,0.43-0.56,0.63l-0.31,0.33c-2.51,2.25-4.75,3.66-6.69,4.43  c-0.01,0-0.01,0.01-0.01,0.01c-0.01,0-0.01,0.01-0.02,0.01h0c-2.69,1.07-4.81,0.91-6.25,0.05c0-0.01-0.01-0.01-0.01-0.01  c-0.01,0-0.02,0-0.02-0.01c-1.63-0.99-2.38-2.87-2.12-4.87c0-0.01,0.01-0.03,0.01-0.04c0.27-2.04,1.6-4.2,4.12-5.65  c0.01-0.01,0.01-0.01,0.03-0.01c0.99-0.57,2.16-1.02,3.53-1.32c2.06-0.38,4.13-0.41,5.94-0.28c0.13,0.01,0.25,0.02,0.38,0.03  c0.03,0,0.06,0,0.08,0c3.16,0.27,5.45,0.98,5.45,0.98C-127.64,492.9-127.74,493.12-127.85,493.34z"></path>	<g>		<path class="st3" d="M-206.31,501.66h-5.25h-0.44h-0.84v0.38c-0.23-0.25-0.48-0.38-0.74-0.38c-0.37,0-0.65,0.2-0.84,0.59   c-0.27-0.39-0.55-0.59-0.86-0.59h-0.53h-0.49h-0.06c0.02-0.47,0.21-0.82,0.54-1.06c0.31-0.22,0.7-0.33,1.18-0.33   c0.59,0,1.34,0.29,2.26,0.87l0.41-0.54c-0.53-0.35-0.96-0.59-1.29-0.74c-0.47-0.21-0.93-0.31-1.38-0.31   c-0.71,0-1.28,0.17-1.72,0.52c-0.48,0.37-0.73,0.9-0.76,1.58h-0.56v0.68h0.56v4h0.76v-4h0.06h0.29h0.12h0.08h0.02   c0.61,0,0.91,0.2,0.91,0.58c0,0.45-0.14,0.68-0.42,0.68c-0.13,0-0.31-0.14-0.56-0.43v0.87c0.16,0.26,0.37,0.38,0.65,0.38   c0.34,0,0.61-0.17,0.82-0.52c0.23,0.33,0.46,0.5,0.7,0.5c0.26,0,0.48-0.1,0.67-0.3v-0.85c-0.27,0.21-0.45,0.31-0.54,0.31   c-0.26,0-0.39-0.2-0.39-0.6c0-0.14,0.05-0.26,0.15-0.37c0.1-0.1,0.22-0.15,0.36-0.15c0.18,0,0.33,0.09,0.46,0.28   c0.12,0.17,0.17,0.34,0.17,0.54v3.11h0.74v-4.02h0.07h0.42v0.44c0.3,0,0.49,0.01,0.57,0.04c0.17,0.05,0.27,0.16,0.29,0.33   c-0.23,0.03-0.41,0.11-0.55,0.25c-0.14,0.14-0.21,0.32-0.21,0.54c0,0.21,0.07,0.39,0.22,0.55c0.15,0.18,0.33,0.26,0.53,0.24   l0.21-0.01l0.23-0.59c-0.27-0.01-0.4-0.06-0.4-0.14c0-0.11,0.09-0.17,0.27-0.17c0.19,0,0.36,0.07,0.51,0.21   c0.15,0.14,0.23,0.31,0.23,0.5c0,0.02,0,0.05-0.01,0.1c-0.26,0-0.49,0.08-0.7,0.22c-0.25,0.16-0.37,0.36-0.37,0.6   c0,0.25,0.09,0.47,0.27,0.67c0.18,0.2,0.39,0.29,0.64,0.28l0.17-0.01l0.29-0.6c-0.38-0.03-0.57-0.14-0.57-0.32   c0-0.13,0.16-0.2,0.47-0.2c0.24,0,0.48,0.13,0.73,0.38c0.19,0.2,0.35,0.44,0.48,0.71h0.71v-2.58c0.18,0.03,0.3,0.05,0.36,0.07   c0.14,0.05,0.21,0.14,0.21,0.26c0,0.19-0.15,0.28-0.45,0.29v0.74h0.29c0.28,0.01,0.51-0.08,0.68-0.29   c0.16-0.19,0.23-0.43,0.23-0.72c0-0.37-0.14-0.64-0.42-0.81c-0.19-0.12-0.49-0.2-0.9-0.26v-0.72h1.25h0.38h0.28v4.02h0.74v-4.02   h0.6v-0.68h-1.62H-206.31z M-208.3,505.18c-0.19-0.22-0.42-0.4-0.7-0.54c-0.01-0.34-0.1-0.64-0.26-0.9   c-0.18-0.29-0.42-0.48-0.73-0.59c0.01-0.36-0.16-0.64-0.51-0.83h1.16c0,0.09,0,0.17,0,0.26c0,0.36,0.08,0.64,0.25,0.84   c0.18,0.23,0.45,0.33,0.8,0.32V505.18z M-208.3,503.03h-0.06c-0.1,0-0.18-0.04-0.24-0.13c-0.06-0.09-0.09-0.18-0.09-0.29   c0-0.1,0.04-0.19,0.11-0.28h0.29V503.03z"></path>		<path class="st3" d="M-196.64,503.78c0-0.44-0.21-0.79-0.62-1.07c-0.36-0.24-0.76-0.36-1.21-0.36c-0.38,0-0.72,0.08-1.01,0.23   c-0.37,0.2-0.55,0.48-0.55,0.85c0,0.25,0.09,0.45,0.27,0.6c0.18,0.15,0.39,0.23,0.65,0.24l0.46-0.62   c-0.35-0.01-0.53-0.09-0.53-0.23c0-0.25,0.25-0.37,0.74-0.37c0.27,0,0.5,0.06,0.68,0.19c0.21,0.15,0.31,0.35,0.31,0.61   c0,0.31-0.25,0.55-0.74,0.72c-0.36,0.12-0.72,0.18-1.1,0.18c-0.14,0-0.4-0.02-0.8-0.08l0.32,0.98c0.44,0.01,0.97,0.15,1.59,0.42   c0.55,0.24,1.05,0.51,1.49,0.83l0.48-0.5c-0.66-0.47-1.3-0.83-1.93-1.1C-197.14,505-196.64,504.49-196.64,503.78z"></path>		<path class="st3" d="M-195.07,501.66h-1.2h-0.42h-3.15h-0.61h-0.31c-1.03,0.93-1.54,1.78-1.54,2.57c0,1.45,0.48,2.18,1.43,2.18   c0.2,0,0.42-0.07,0.66-0.2l-0.25-0.68c-0.19,0.12-0.33,0.17-0.44,0.17c-0.25,0-0.44-0.16-0.57-0.47c-0.1-0.24-0.15-0.49-0.15-0.77   c0-0.52,0.17-0.98,0.51-1.39c0.32-0.39,0.72-0.63,1.19-0.72h3.23h0.42h0.24v4.02h0.74v-4.02h0.22h0.38h2.11v0.08l-1.16,0.67   c-0.47,0.27-0.86,0.51-1.17,0.73l0.21,0.78c0.86,0.02,1.59,0.61,2.19,1.76h0.67v-3.23c0.71,0.08,1.07,0.31,1.07,0.68   c0,0.3-0.16,0.45-0.47,0.45c-0.1,0-0.23,0-0.38,0v0.71c0.13,0.02,0.2,0.03,0.23,0.03c0.37,0,0.67-0.1,0.92-0.31   c0.27-0.22,0.41-0.51,0.41-0.86c0-0.42-0.2-0.76-0.6-1.04c-0.34-0.24-0.73-0.37-1.18-0.4v-0.06h2.13v-0.68h-4.99H-195.07z    M-192.58,505.18c-0.52-0.59-0.89-0.96-1.11-1.1c0.54-0.48,0.91-0.76,1.11-0.85V505.18z"></path>		<path class="st3" d="M-174.81,506.65c0.34,0.08,0.69,0.2,1.04,0.36l0.32-0.56c-0.4-0.26-0.81-0.41-1.22-0.47L-174.81,506.65z"></path>		<path class="st3" d="M-176.44,501.66h-1.21h-0.41h-4.97h-0.43h-4.67v0.68h0.42v0.47c0.23,0,0.38,0,0.46,0   c0.22-0.01,0.39,0,0.5,0.04c0.12,0.04,0.23,0.15,0.36,0.31c0.12,0.17,0.18,0.31,0.18,0.43c-0.4-0.01-0.74,0.1-1.01,0.33   c-0.29,0.24-0.44,0.56-0.44,0.95c0,0.33,0.13,0.61,0.38,0.84c0.25,0.23,0.54,0.35,0.87,0.35c0.23,0,0.51-0.09,0.86-0.26   l-0.22-0.71c-0.3,0.13-0.5,0.2-0.59,0.2c-0.12,0-0.23-0.04-0.33-0.13c-0.11-0.09-0.16-0.19-0.16-0.3c0-0.15,0.08-0.28,0.24-0.38   c0.14-0.09,0.29-0.14,0.45-0.14c0.33,0,0.72,0.17,1.16,0.5c0.47,0.36,0.7,0.69,0.7,1.01v0.5h0.74v-4.02h0.11h0.43h1.49   c-0.29,0.41-0.44,0.79-0.44,1.14c0,0.32,0.08,0.58,0.25,0.78c0.17,0.21,0.4,0.31,0.71,0.31c0.28,0,0.54-0.11,0.79-0.34   c0.03,0.08,0.05,0.16,0.05,0.25c0,0.28-0.1,0.49-0.31,0.65c-0.18,0.14-0.42,0.21-0.7,0.21c-0.11,0-0.36-0.1-0.75-0.29   c-0.33-0.45-0.57-0.9-0.73-1.35l-0.48,0.46c0.31,0.63,0.56,1.1,0.74,1.4c0.32,0.2,0.52,0.31,0.59,0.35   c0.23,0.11,0.45,0.17,0.66,0.17c1.15,0,1.72-0.55,1.72-1.64c0-0.43-0.08-0.75-0.23-0.98h-0.66c-0.15,0.27-0.36,0.41-0.66,0.41   c-0.17,0-0.26-0.11-0.26-0.34c0-0.39,0.22-0.76,0.66-1.1c0.11,0.33,0.33,0.6,0.67,0.83c0.3,0.2,0.63,0.33,1,0.39   c-0.2,0.67-0.3,1.2-0.3,1.58c0,0.5,0.15,0.96,0.44,1.4l0.56-0.3c-0.2-0.28-0.3-0.75-0.3-1.4c0-0.3,0.16-0.77,0.48-1.43l-0.47-0.59   c-0.1,0.01-0.19,0.02-0.28,0.02c-0.51,0-0.85-0.19-1.02-0.56h1.73h0.41h0.26v4.02h0.74v-4.02h0.21h0.39h0.04v0.56   c0.31,0.01,0.61,0.08,0.91,0.2c0.33,0.13,0.58,0.3,0.76,0.52l-1.68,0.72l0.21,0.74c1.41,0.32,2.44,0.75,3.09,1.28h0.68v-4.02h0.47   v-0.68h-4.47H-176.44z M-184.3,504.54c-0.38-0.42-0.74-0.69-1.08-0.83c-0.03-0.54-0.32-1-0.89-1.38h1.97V504.54z M-172.79,502.33   v3.12c-0.49-0.3-1.09-0.59-1.8-0.87l1.07-0.5v-0.69c-0.19-0.32-0.62-0.67-1.29-1.06H-172.79z"></path>		<path class="st3" d="M-157.91,501.66h-0.39h-1.21h-0.41h-4.97h-0.43h-4.67v0.68h0.42v0.47c0.23,0,0.38,0,0.46,0   c0.22-0.01,0.39,0,0.5,0.04c0.12,0.04,0.23,0.15,0.36,0.31c0.12,0.17,0.18,0.31,0.18,0.43c-0.4-0.01-0.74,0.1-1.01,0.33   c-0.29,0.24-0.44,0.56-0.44,0.95c0,0.33,0.13,0.61,0.38,0.84c0.25,0.23,0.54,0.35,0.87,0.35c0.23,0,0.51-0.09,0.86-0.26   l-0.22-0.71c-0.3,0.13-0.5,0.2-0.59,0.2c-0.12,0-0.23-0.04-0.33-0.13c-0.11-0.09-0.16-0.19-0.16-0.3c0-0.15,0.08-0.28,0.24-0.38   c0.14-0.09,0.29-0.14,0.45-0.14c0.33,0,0.72,0.17,1.16,0.5c0.47,0.36,0.7,0.69,0.7,1.01v0.5h0.74v-4.02h0.11h0.43h1.49   c-0.29,0.41-0.44,0.79-0.44,1.14c0,0.32,0.08,0.58,0.25,0.78c0.17,0.21,0.4,0.31,0.71,0.31c0.28,0,0.54-0.11,0.79-0.34   c0.03,0.08,0.05,0.16,0.05,0.25c0,0.28-0.1,0.49-0.31,0.65c-0.18,0.14-0.42,0.21-0.7,0.21c-0.11,0-0.36-0.1-0.75-0.29   c-0.33-0.45-0.57-0.9-0.73-1.35l-0.48,0.46c0.31,0.63,0.56,1.1,0.74,1.4c0.32,0.2,0.52,0.31,0.59,0.35   c0.23,0.11,0.45,0.17,0.66,0.17c1.15,0,1.72-0.55,1.72-1.64c0-0.43-0.08-0.75-0.23-0.98h-0.66c-0.15,0.27-0.36,0.41-0.66,0.41   c-0.17,0-0.26-0.11-0.26-0.34c0-0.39,0.22-0.76,0.66-1.1c0.11,0.33,0.33,0.6,0.67,0.83c0.3,0.2,0.63,0.33,1,0.39   c-0.2,0.67-0.3,1.2-0.3,1.58c0,0.5,0.15,0.96,0.44,1.4l0.56-0.3c-0.2-0.28-0.3-0.75-0.3-1.4c0-0.3,0.16-0.77,0.48-1.43l-0.47-0.59   c-0.1,0.01-0.19,0.02-0.28,0.02c-0.51,0-0.85-0.19-1.02-0.56h1.73h0.41h0.26v4.02h0.74v-4.02h0.21h0.39h0.04v0.56   c0.31,0.01,0.61,0.08,0.91,0.2c0.33,0.13,0.58,0.3,0.76,0.52l-1.68,0.72l0.21,0.74c1.41,0.32,2.44,0.75,3.09,1.28h0.68v-4.02h0.47   v-0.68H-157.91z M-166.17,504.54c-0.38-0.42-0.74-0.69-1.08-0.83c-0.03-0.54-0.32-1-0.89-1.38h1.97V504.54z M-154.65,505.45   c-0.49-0.3-1.09-0.59-1.8-0.87l1.07-0.5v-0.69c-0.19-0.32-0.62-0.67-1.29-1.06h2.02V505.45z"></path>		<path class="st3" d="M-156.67,506.65c0.34,0.08,0.69,0.2,1.04,0.36l0.32-0.56c-0.4-0.26-0.81-0.41-1.22-0.47L-156.67,506.65z"></path>	</g></g></svg>