<svg xmlns="http://www.w3.org/2000/svg" xmlns:xlink="http://www.w3.org/1999/xlink" id="Layer_1" x="0px" y="0px" viewBox="0 0 1200 1200" style="enable-background:new 0 0 1200 1200;" xml:space="preserve"><style type="text/css">	.st0{fill:#0071DC;}	.st1{fill:#FF8B00;}	.st2{fill:none;}	.st3{fill:#252525;}</style><g>	<path class="st0" d="M65.54,646.45c26.17,0,51.1,0,77.13,0c10.36-53.75,38.42-95.94,86.37-125.41  c-36.15-32.36-54.27-72.39-50.37-120.71c2.97-36.84,18.8-68.02,46.47-92.89c54-48.54,136.04-47.09,189.8,1.97  c46.54,42.46,72.74,139.23-5.69,212.03c46.67,28.95,75.02,70.52,85.39,124.79c25.45,0,50.69,0,77.35,0c0-9.07,0-18.29,0-27.5  c0-21.88,0-43.75,0-65.63c0-24.46,10.08-37.76,28.44-37.56c18.29,0.2,27.84,13.27,27.84,38.14c0,30.46,0,60.93,0,92.23  c155.86,0,311.55,0,468.28,0c0.18-2.16,0.63-5.09,0.63-8.03c0.06-23.83-0.04-47.66,0.06-71.49c0.08-19.31,11.3-32.05,28.02-32.11  c16.73-0.06,28.2,12.7,28.21,31.91c0.06,105.08,0.03,210.16,0.03,315.25c0,79.3,0.03,158.6-0.01,237.9  c-0.02,44.24-27.21,71.27-71.68,71.27c-333.68,0.02-667.36,0.02-1001.04,0c-44.39,0-71.52-27.09-71.52-71.42  c-0.02-296.1-0.02-592.21,0-888.31c0-44.6,26.92-71.73,71.17-71.73c133.24-0.02,266.47-0.01,399.71,0c3.51,0,7.07-0.17,10.54,0.24  c14.28,1.71,24.99,13.79,24.98,27.89c-0.01,14.1-10.72,26.17-25.02,27.85c-4.25,0.5-8.58,0.26-12.88,0.26  c-131.28,0.01-262.57,0.01-393.85,0.01c-17.65,0-18.38,0.74-18.38,18.67c0,133.21,0,266.42,0,399.62  C65.54,637.58,65.54,641.45,65.54,646.45z M65.54,703.29c0,5.35,0,9.6,0,13.85c0,118.34,0,236.67,0,355.01  c0,16.4,0.17,32.81-0.07,49.21c-0.13,8.73,3.38,13.09,12.4,13.04c21.46-0.14,42.91-0.04,64.89-0.04  c10.28-54.52,38.72-96.39,85.72-125.44c-73.24-67.17-57.27-160.59-9.8-207.96c51.39-51.27,134.3-55.9,189.53-9.62  c29.15,24.43,46.43,55.68,50.32,93.36c5.12,49.56-13.09,90.64-49.79,123.87c49.91,33.77,65.66,56.73,86.32,125  c25.6,0,51.15,0,76.19,0c0-143.93,0-287.06,0-430.26C402.62,703.29,234.74,703.29,65.54,703.29z M1097.24,703.68  c-157.09,0-312.75,0-468.35,0c0,143.78,0,286.91,0,430.3c19.63,0,38.64,0,57.96,0c10.19-54.39,38.85-96.07,85.73-125.21  c-70.99-64.38-60.28-158.27-8.79-208.88c53.45-52.53,138.43-53.99,194.05-3.76c51.9,46.86,70.35,144.05-4.24,212.4  c55.44,42.92,59.58,48.96,86.02,125.84c13.06,0,26.32,0.01,39.57,0c16.9-0.01,18.03-1.12,18.03-17.87  c0.01-133.96,0-267.91,0-401.87C1097.24,711.17,1097.24,707.72,1097.24,703.68z M318.4,327.94c-46.34,0.16-84.14,38.15-84.03,84.43  c0.12,46.81,38.45,84.67,85.39,84.34c46.09-0.32,83.62-38.62,83.37-85.09C402.9,365.38,364.82,327.77,318.4,327.94z M318.79,984.32  c46.24,0.1,84.23-37.79,84.35-84.12c0.12-46.41-37.51-84.44-83.77-84.66c-46.48-0.22-84.73,37.33-85,83.46  C234.09,945.98,271.92,984.21,318.79,984.32z M947.14,900.22c0.13-46.41-37.5-84.46-83.75-84.68  c-46.49-0.23-84.74,37.32-85.02,83.44c-0.29,46.98,37.53,85.22,84.4,85.34C909,984.43,947.01,946.55,947.14,900.22z   M436.01,1134.01c-5.22-50.92-63.2-95.04-122.16-93.31c-53.83,1.59-110.36,48.66-111.88,93.31  C279.97,1134.01,357.97,1134.01,436.01,1134.01z M745.18,1134.07c78.63,0,156.65,0,234.7,0c-3.75-45.68-57.3-90.91-110.16-93.32  C810.41,1038.05,754.46,1079.48,745.18,1134.07z M435.89,646.46c-4.11-49.22-62-94.33-119.54-93.43  c-55.21,0.87-111.88,46.98-114.53,93.43C279.84,646.46,357.85,646.46,435.89,646.46z"></path>	<path class="st0" d="M683.57,477.96c-15.26,0-30.05,0.13-44.84-0.03c-38.16-0.41-66.6-28.69-66.66-66.92  c-0.17-111.73-0.17-223.46,0.01-335.19c0.06-38.17,28.59-66.62,66.84-66.65c161.77-0.14,323.54-0.14,485.31,0  c38.19,0.03,66.67,28.53,66.73,66.79c0.19,111.73,0.19,223.46,0,335.19c-0.07,38.2-28.59,66.64-66.8,66.75  c-74.63,0.22-149.27-0.08-223.9,0.3c-7.01,0.04-14.74,1.96-20.88,5.31c-49.67,27.08-99.01,54.75-148.51,82.14  c-25.37,14.04-46.23,1.5-46.31-27.69c-0.05-18.75-0.06-37.5-0.12-56.25C684.45,480.97,684.12,480.24,683.57,477.96z M947.88,165.11  c-1.14-3.68-1.94-6.23-2.71-8.78c-6.54-21.7-23.16-34.57-45.86-34.63c-62.09-0.16-124.19-0.23-186.28,0.03  c-26.72,0.11-46.95,20.04-47.13,46.57c-0.34,50.36-0.38,100.73,0.03,151.1c0.2,25.39,20.07,45.68,45.39,45.87  c63.26,0.46,126.53,0.35,189.79,0.06c20.61-0.09,37.49-13.44,43.68-32.93c1.03-3.24,2.08-6.47,3.22-10.04  c3.35,1.13,5.94,1.93,8.48,2.87c25.94,9.63,51.7,19.77,77.84,28.79c30.72,10.6,62-9.89,62.6-41.72  c0.87-46.05,0.74-92.15-0.02-138.2c-0.4-24.69-21.38-44.16-46.05-43.51c-9.09,0.24-18.37,3.14-27.07,6.23  C998.59,145.78,973.62,155.46,947.88,165.11z"></path>	<path class="st0" d="M890.4,178.71c0,43.63,0,86.45,0,129.87c-55.83,0-111.16,0-167.41,0c0-42.85,0-85.96,0-129.87  C778.26,178.71,833.87,178.71,890.4,178.71z"></path>	<path class="st0" d="M1040.42,190.73c0,35.77,0,69.93,0,105.64c-31.51-11.78-62.03-23.19-92.45-34.56  c-0.29-1.52-0.68-2.65-0.71-3.8c-0.86-32.02-0.86-32.04,29.36-43.39C997.63,206.73,1018.67,198.87,1040.42,190.73z"></path></g></svg>